M48
INCH,TZ
T1C0.0276
T2C0.0300
T3C0.0315
T4C0.0394
%
G90
G05
T1
X55050Y-29400
X55050Y-32750
X57050Y-29400
X57050Y-32750
T2
X69400Y-36313
X69400Y-37100
X71900Y-27550
X72687Y-27550
X76100Y-32831
X76100Y-33619
T3
X53508Y-38150
X54492Y-38150
X55608Y-31100
X56592Y-31100
X57400Y-35150
X57400Y-39150
X58650Y-35150
X58650Y-39150
X61150Y-24900
X61800Y-41400
X61800Y-45400
X62134Y-24900
X62400Y-36766
X62400Y-37750
X63150Y-41400
X63150Y-45400
X63500Y-27300
X64535Y-24900
X65016Y-33750
X65293Y-36750
X66000Y-33750
X66300Y-41400
X66300Y-45400
X66457Y-24900
X66670Y-36750
X67500Y-27300
X67650Y-41400
X67650Y-45400
X68850Y-24900
X69050Y-32408
X69050Y-33392
X69834Y-24900
X69850Y-26758
X69850Y-27742
X71661Y-32800
X71908Y-29850
X72350Y-35750
X72350Y-39750
X72892Y-29850
X73039Y-32800
X74050Y-35750
X74050Y-39750
T4
X53508Y-41400
X54508Y-41400
X55508Y-41400
X56508Y-41400
X57508Y-41400
X58508Y-41400
X59508Y-41400
X60508Y-41400
X76720Y-41296
X76720Y-42296
X76720Y-43296
X76720Y-44296
T0
M30
