G04 #@! TF.GenerationSoftware,KiCad,Pcbnew,(6.0.10)*
G04 #@! TF.CreationDate,2023-07-12T01:57:19+10:00*
G04 #@! TF.ProjectId,DAC,4441432e-6b69-4636-9164-5f7063625858,rev?*
G04 #@! TF.SameCoordinates,Original*
G04 #@! TF.FileFunction,Legend,Bot*
G04 #@! TF.FilePolarity,Positive*
%FSLAX46Y46*%
G04 Gerber Fmt 4.6, Leading zero omitted, Abs format (unit mm)*
G04 Created by KiCad (PCBNEW (6.0.10)) date 2023-07-12 01:57:19*
%MOMM*%
%LPD*%
G01*
G04 APERTURE LIST*
G04 APERTURE END LIST*
G36*
X159335609Y-84723934D02*
G01*
X159485162Y-84770725D01*
X159590843Y-84862693D01*
X159630903Y-84983264D01*
X159627279Y-85011160D01*
X159568453Y-85104430D01*
X159460801Y-85177017D01*
X159334459Y-85206250D01*
X159271443Y-85216075D01*
X159234028Y-85250348D01*
X159259949Y-85286678D01*
X159345918Y-85287061D01*
X159475684Y-85242724D01*
X159488795Y-85236892D01*
X159580642Y-85213386D01*
X159643124Y-85245854D01*
X159658593Y-85264493D01*
X159660443Y-85316540D01*
X159592945Y-85385769D01*
X159568445Y-85403930D01*
X159432313Y-85459602D01*
X159284894Y-85465891D01*
X159150051Y-85428552D01*
X159051646Y-85353341D01*
X159013542Y-85246013D01*
X159018225Y-85216318D01*
X159079014Y-85127964D01*
X159185753Y-85058195D01*
X159307383Y-85029861D01*
X159327357Y-85029202D01*
X159409102Y-85006396D01*
X159432807Y-84965033D01*
X159384509Y-84924239D01*
X159316834Y-84903876D01*
X159223859Y-84907173D01*
X159189931Y-84963716D01*
X159173562Y-85002289D01*
X159101736Y-85029861D01*
X159038072Y-85010251D01*
X159013542Y-84928438D01*
X159039192Y-84814434D01*
X159128018Y-84743636D01*
X159286945Y-84721181D01*
X159335609Y-84723934D01*
G37*
G36*
X154819035Y-87284091D02*
G01*
X154756440Y-87334951D01*
X154667745Y-87360254D01*
X154532403Y-87351081D01*
X154494575Y-87346480D01*
X154379679Y-87345004D01*
X154339237Y-87371091D01*
X154326540Y-87393935D01*
X154262066Y-87401631D01*
X154216966Y-87378365D01*
X154203840Y-87299179D01*
X154209053Y-87256195D01*
X154215382Y-87132095D01*
X154218916Y-86965515D01*
X154435184Y-86965515D01*
X154440081Y-87080982D01*
X154479281Y-87152253D01*
X154499527Y-87164155D01*
X154604152Y-87184868D01*
X154695506Y-87120272D01*
X154715978Y-87092298D01*
X154728978Y-87026762D01*
X154688191Y-86932859D01*
X154625320Y-86850828D01*
X154541270Y-86813055D01*
X154471872Y-86852061D01*
X154435184Y-86965515D01*
X154218916Y-86965515D01*
X154219068Y-86958353D01*
X154219438Y-86758325D01*
X154219145Y-86588533D01*
X154223262Y-86442528D01*
X154234468Y-86358452D01*
X154255007Y-86321698D01*
X154287124Y-86317655D01*
X154292049Y-86318915D01*
X154351860Y-86372911D01*
X154399174Y-86474348D01*
X154408089Y-86503002D01*
X154459575Y-86592103D01*
X154540447Y-86617361D01*
X154629402Y-86623559D01*
X154756661Y-86676592D01*
X154847985Y-86796904D01*
X154905959Y-86978301D01*
X154903084Y-87026762D01*
X154895844Y-87148778D01*
X154819035Y-87284091D01*
G37*
G36*
X158551087Y-84434550D02*
G01*
X158622033Y-84463131D01*
X158653006Y-84559311D01*
X158657157Y-84618355D01*
X158636746Y-84668075D01*
X158564812Y-84669554D01*
X158544266Y-84664933D01*
X158477668Y-84613397D01*
X158455180Y-84535929D01*
X158478799Y-84465367D01*
X158550521Y-84434549D01*
X158551087Y-84434550D01*
G37*
G36*
X153931337Y-86650244D02*
G01*
X153957331Y-86655226D01*
X154048595Y-86699588D01*
X154082980Y-86760606D01*
X154056311Y-86814589D01*
X153964410Y-86837848D01*
X153954809Y-86837910D01*
X153888567Y-86850081D01*
X153860184Y-86900592D01*
X153854167Y-87014236D01*
X153854191Y-87026030D01*
X153861537Y-87133932D01*
X153892387Y-87180567D01*
X153961808Y-87190625D01*
X154040140Y-87202004D01*
X154104252Y-87250585D01*
X154096702Y-87322917D01*
X154078178Y-87336079D01*
X153989491Y-87355646D01*
X153857833Y-87364683D01*
X153713301Y-87362998D01*
X153585987Y-87350399D01*
X153505988Y-87326692D01*
X153486331Y-87310410D01*
X153466488Y-87241535D01*
X153505503Y-87175822D01*
X153588200Y-87146528D01*
X153618760Y-87144218D01*
X153656859Y-87118510D01*
X153673876Y-87047058D01*
X153677778Y-86908711D01*
X153685711Y-86753922D01*
X153720159Y-86669009D01*
X153796807Y-86639779D01*
X153931337Y-86650244D01*
G37*
G36*
X160394620Y-87302553D02*
G01*
X160371489Y-87322555D01*
X160276967Y-87358291D01*
X160129340Y-87355139D01*
X160077744Y-87350815D01*
X159968786Y-87353213D01*
X159914236Y-87372352D01*
X159895437Y-87394547D01*
X159831729Y-87405037D01*
X159778868Y-87344252D01*
X159764947Y-87256733D01*
X159770894Y-87146528D01*
X160005730Y-87146528D01*
X160060834Y-87177032D01*
X160162672Y-87190625D01*
X160254103Y-87177727D01*
X160292361Y-87146528D01*
X160290742Y-87140206D01*
X160238462Y-87113336D01*
X160135419Y-87102431D01*
X160114197Y-87102756D01*
X160024360Y-87116522D01*
X160005730Y-87146528D01*
X159770894Y-87146528D01*
X159773041Y-87106754D01*
X159802414Y-86941249D01*
X159846595Y-86794785D01*
X159899113Y-86701930D01*
X159934497Y-86673712D01*
X160070286Y-86625070D01*
X160224989Y-86625340D01*
X160356816Y-86676818D01*
X160410760Y-86733819D01*
X160406125Y-86789804D01*
X160333943Y-86820654D01*
X160205469Y-86816019D01*
X160141415Y-86807162D01*
X160053467Y-86813034D01*
X160012941Y-86857005D01*
X160006493Y-86882547D01*
X160032862Y-86916796D01*
X160129593Y-86926042D01*
X160238486Y-86937644D01*
X160370110Y-86994328D01*
X160447286Y-87084383D01*
X160454087Y-87146528D01*
X160459096Y-87192296D01*
X160394620Y-87302553D01*
G37*
G36*
X152440043Y-86331839D02*
G01*
X152470406Y-86346146D01*
X152489233Y-86388992D01*
X152498898Y-86475286D01*
X152501781Y-86619935D01*
X152500256Y-86837848D01*
X152499323Y-86912905D01*
X152494981Y-87107767D01*
X152486763Y-87233659D01*
X152472149Y-87305326D01*
X152448623Y-87337513D01*
X152413666Y-87344966D01*
X152374545Y-87336954D01*
X152337416Y-87283765D01*
X152319525Y-87163112D01*
X152291756Y-87022844D01*
X152199408Y-86880899D01*
X152131750Y-86822151D01*
X152090230Y-86811254D01*
X152063574Y-86856127D01*
X152056063Y-86888487D01*
X152050508Y-87002647D01*
X152059787Y-87144651D01*
X152066504Y-87216321D01*
X152068457Y-87329045D01*
X152056720Y-87385874D01*
X152036904Y-87397113D01*
X151960137Y-87401183D01*
X151920883Y-87372478D01*
X151893398Y-87285517D01*
X151878342Y-87125888D01*
X151875041Y-87010288D01*
X151878428Y-86861810D01*
X151890038Y-86763186D01*
X151898267Y-86739196D01*
X151974253Y-86658611D01*
X152090832Y-86628057D01*
X152215918Y-86657899D01*
X152238557Y-86669431D01*
X152284512Y-86677965D01*
X152307075Y-86633450D01*
X152319244Y-86518332D01*
X152332017Y-86412557D01*
X152362171Y-86347555D01*
X152419403Y-86330729D01*
X152440043Y-86331839D01*
G37*
G36*
X159563645Y-86618362D02*
G01*
X159599931Y-86634923D01*
X159620187Y-86685905D01*
X159628986Y-86789223D01*
X159630903Y-86962790D01*
X159630719Y-87001605D01*
X159625759Y-87162541D01*
X159615405Y-87282394D01*
X159601505Y-87337616D01*
X159590315Y-87348008D01*
X159521060Y-87371958D01*
X159472698Y-87318510D01*
X159454514Y-87196572D01*
X159448346Y-87129478D01*
X159411647Y-87005004D01*
X159353857Y-86895966D01*
X159288850Y-86825810D01*
X159230497Y-86817981D01*
X159212409Y-86857161D01*
X159196183Y-86963377D01*
X159189931Y-87108267D01*
X159188704Y-87211626D01*
X159179333Y-87312572D01*
X159155902Y-87355511D01*
X159112761Y-87358780D01*
X159072692Y-87330090D01*
X159033790Y-87234296D01*
X159015998Y-87097380D01*
X159019986Y-86945530D01*
X159046422Y-86804935D01*
X159095976Y-86701783D01*
X159151628Y-86641558D01*
X159217713Y-86618546D01*
X159318378Y-86646604D01*
X159332390Y-86651670D01*
X159419086Y-86671303D01*
X159454514Y-86657628D01*
X159471028Y-86634240D01*
X159542709Y-86617361D01*
X159563645Y-86618362D01*
G37*
G36*
X154074503Y-85410070D02*
G01*
X154062819Y-85465224D01*
X154034798Y-85475487D01*
X153937139Y-85480341D01*
X153802094Y-85469810D01*
X153764388Y-85464432D01*
X153597790Y-85418634D01*
X153494223Y-85340643D01*
X153478818Y-85319901D01*
X153420735Y-85164603D01*
X153422987Y-85125453D01*
X153595859Y-85125453D01*
X153658879Y-85225149D01*
X153717044Y-85272736D01*
X153810166Y-85296680D01*
X153874351Y-85241406D01*
X153898264Y-85112258D01*
X153873892Y-85007266D01*
X153808193Y-84934178D01*
X153724974Y-84915956D01*
X153648196Y-84966561D01*
X153614396Y-85020214D01*
X153595859Y-85125453D01*
X153422987Y-85125453D01*
X153430681Y-84991670D01*
X153507796Y-84833294D01*
X153543746Y-84791160D01*
X153631364Y-84733481D01*
X153751147Y-84730393D01*
X153778469Y-84733502D01*
X153862171Y-84734232D01*
X153890906Y-84694709D01*
X153888056Y-84591154D01*
X153885567Y-84508324D01*
X153905796Y-84448965D01*
X153964410Y-84434549D01*
X153980584Y-84435229D01*
X154014166Y-84448322D01*
X154037052Y-84489676D01*
X154052555Y-84574264D01*
X154063984Y-84717062D01*
X154074653Y-84933042D01*
X154080261Y-85112154D01*
X154080261Y-85112258D01*
X154080459Y-85286005D01*
X154074503Y-85410070D01*
G37*
G36*
X153213645Y-86618362D02*
G01*
X153249931Y-86634923D01*
X153270187Y-86685905D01*
X153278986Y-86789223D01*
X153280903Y-86962790D01*
X153280719Y-87001605D01*
X153275759Y-87162541D01*
X153265405Y-87282394D01*
X153251505Y-87337616D01*
X153240315Y-87348008D01*
X153171060Y-87371958D01*
X153122698Y-87318510D01*
X153104514Y-87196572D01*
X153098346Y-87129478D01*
X153061647Y-87005004D01*
X153003857Y-86895966D01*
X152938850Y-86825810D01*
X152880497Y-86817981D01*
X152862409Y-86857161D01*
X152846183Y-86963377D01*
X152839931Y-87108267D01*
X152838704Y-87211626D01*
X152829333Y-87312572D01*
X152805902Y-87355511D01*
X152762761Y-87358780D01*
X152722692Y-87330090D01*
X152683790Y-87234296D01*
X152665998Y-87097380D01*
X152669986Y-86945530D01*
X152696422Y-86804935D01*
X152745976Y-86701783D01*
X152801628Y-86641558D01*
X152867713Y-86618546D01*
X152968378Y-86646604D01*
X152982390Y-86651670D01*
X153069086Y-86671303D01*
X153104514Y-86657628D01*
X153121028Y-86634240D01*
X153192709Y-86617361D01*
X153213645Y-86618362D01*
G37*
G36*
X158693837Y-84754063D02*
G01*
X158719831Y-84759045D01*
X158811095Y-84803408D01*
X158845480Y-84864425D01*
X158818811Y-84918408D01*
X158726910Y-84941667D01*
X158717309Y-84941730D01*
X158651067Y-84953901D01*
X158622684Y-85004412D01*
X158616667Y-85118056D01*
X158616691Y-85129849D01*
X158624037Y-85237751D01*
X158654887Y-85284386D01*
X158724308Y-85294445D01*
X158802640Y-85305823D01*
X158866752Y-85354404D01*
X158859202Y-85426736D01*
X158840678Y-85439899D01*
X158751991Y-85459465D01*
X158620333Y-85468503D01*
X158475801Y-85466818D01*
X158348487Y-85454218D01*
X158268488Y-85430512D01*
X158248831Y-85414230D01*
X158228988Y-85345354D01*
X158268003Y-85279642D01*
X158350700Y-85250348D01*
X158381260Y-85248037D01*
X158419359Y-85222330D01*
X158436376Y-85150878D01*
X158440278Y-85012531D01*
X158448211Y-84857741D01*
X158482659Y-84772829D01*
X158559307Y-84743598D01*
X158693837Y-84754063D01*
G37*
G36*
X156485941Y-85226694D02*
G01*
X156404119Y-85368773D01*
X156351917Y-85412138D01*
X156202722Y-85465415D01*
X156035702Y-85456359D01*
X155882639Y-85384040D01*
X155846026Y-85354105D01*
X155803036Y-85295414D01*
X155826322Y-85245105D01*
X155831947Y-85239694D01*
X155896243Y-85213201D01*
X155993761Y-85242724D01*
X156111443Y-85284007D01*
X156200588Y-85291489D01*
X156233819Y-85261372D01*
X156224143Y-85246768D01*
X156156693Y-85198760D01*
X156046406Y-85140104D01*
X155992020Y-85111142D01*
X155892095Y-85037533D01*
X155845701Y-84971459D01*
X155843765Y-84930789D01*
X155845236Y-84927482D01*
X156047992Y-84927482D01*
X156060457Y-84965446D01*
X156146710Y-85013861D01*
X156221204Y-85044803D01*
X156291872Y-85068668D01*
X156310722Y-85057077D01*
X156296105Y-85009491D01*
X156243824Y-84948412D01*
X156145704Y-84909674D01*
X156053847Y-84922820D01*
X156047992Y-84927482D01*
X155845236Y-84927482D01*
X155889862Y-84827129D01*
X155994014Y-84750865D01*
X156134114Y-84721181D01*
X156211204Y-84729846D01*
X156351817Y-84799264D01*
X156450602Y-84919903D01*
X156494340Y-85057077D01*
X156498373Y-85069726D01*
X156485941Y-85226694D01*
G37*
G36*
X161169035Y-87284091D02*
G01*
X161106440Y-87334951D01*
X161017745Y-87360254D01*
X160882403Y-87351081D01*
X160844575Y-87346480D01*
X160729679Y-87345004D01*
X160689236Y-87371091D01*
X160676540Y-87393935D01*
X160612066Y-87401631D01*
X160566966Y-87378365D01*
X160553840Y-87299179D01*
X160559053Y-87256195D01*
X160565382Y-87132095D01*
X160568916Y-86965515D01*
X160785184Y-86965515D01*
X160790081Y-87080982D01*
X160829281Y-87152253D01*
X160849527Y-87164155D01*
X160954152Y-87184868D01*
X161045506Y-87120272D01*
X161065978Y-87092298D01*
X161078978Y-87026762D01*
X161038191Y-86932859D01*
X160975320Y-86850828D01*
X160891270Y-86813055D01*
X160821872Y-86852061D01*
X160785184Y-86965515D01*
X160568916Y-86965515D01*
X160569068Y-86958353D01*
X160569438Y-86758325D01*
X160569145Y-86588533D01*
X160573262Y-86442528D01*
X160584468Y-86358452D01*
X160605007Y-86321698D01*
X160637124Y-86317655D01*
X160642049Y-86318915D01*
X160701860Y-86372911D01*
X160749174Y-86474348D01*
X160758089Y-86503002D01*
X160809575Y-86592103D01*
X160890447Y-86617361D01*
X160979402Y-86623559D01*
X161106661Y-86676592D01*
X161197985Y-86796904D01*
X161255959Y-86978301D01*
X161253084Y-87026762D01*
X161245844Y-87148778D01*
X161169035Y-87284091D01*
G37*
G36*
X155594895Y-86618362D02*
G01*
X155631181Y-86634923D01*
X155651437Y-86685905D01*
X155660236Y-86789223D01*
X155662153Y-86962790D01*
X155661969Y-87001605D01*
X155657009Y-87162541D01*
X155646655Y-87282394D01*
X155632755Y-87337616D01*
X155621565Y-87348008D01*
X155552310Y-87371958D01*
X155503948Y-87318510D01*
X155485764Y-87196572D01*
X155479596Y-87129478D01*
X155442897Y-87005004D01*
X155385107Y-86895966D01*
X155320100Y-86825810D01*
X155261747Y-86817981D01*
X155243659Y-86857161D01*
X155227433Y-86963377D01*
X155221181Y-87108267D01*
X155219954Y-87211626D01*
X155210583Y-87312572D01*
X155187152Y-87355511D01*
X155144011Y-87358780D01*
X155103942Y-87330090D01*
X155065040Y-87234296D01*
X155047248Y-87097380D01*
X155051236Y-86945530D01*
X155077672Y-86804935D01*
X155127226Y-86701783D01*
X155182878Y-86641558D01*
X155248963Y-86618546D01*
X155349628Y-86646604D01*
X155363640Y-86651670D01*
X155450336Y-86671303D01*
X155485764Y-86657628D01*
X155502278Y-86634240D01*
X155573959Y-86617361D01*
X155594895Y-86618362D01*
G37*
G36*
X158073441Y-87122875D02*
G01*
X157991619Y-87264953D01*
X157939417Y-87308318D01*
X157790222Y-87361596D01*
X157623202Y-87352540D01*
X157470139Y-87280220D01*
X157433526Y-87250285D01*
X157390536Y-87191594D01*
X157413822Y-87141286D01*
X157419447Y-87135874D01*
X157483743Y-87109382D01*
X157581261Y-87138905D01*
X157698943Y-87180188D01*
X157788088Y-87187670D01*
X157821319Y-87157552D01*
X157811643Y-87142949D01*
X157744193Y-87094941D01*
X157633906Y-87036285D01*
X157579520Y-87007323D01*
X157479595Y-86933713D01*
X157433201Y-86867639D01*
X157431265Y-86826970D01*
X157432736Y-86823662D01*
X157635492Y-86823662D01*
X157647957Y-86861626D01*
X157734210Y-86910042D01*
X157808704Y-86940984D01*
X157879372Y-86964849D01*
X157898222Y-86953257D01*
X157883605Y-86905672D01*
X157831324Y-86844593D01*
X157733204Y-86805854D01*
X157641347Y-86819001D01*
X157635492Y-86823662D01*
X157432736Y-86823662D01*
X157477362Y-86723310D01*
X157581514Y-86647046D01*
X157721614Y-86617361D01*
X157798704Y-86626027D01*
X157939317Y-86695445D01*
X158038102Y-86816084D01*
X158081840Y-86953257D01*
X158085873Y-86965906D01*
X158073441Y-87122875D01*
G37*
G36*
X158551087Y-86330730D02*
G01*
X158622033Y-86359311D01*
X158653006Y-86455492D01*
X158657157Y-86514536D01*
X158636746Y-86564255D01*
X158564812Y-86565735D01*
X158544266Y-86561114D01*
X158477668Y-86509578D01*
X158455180Y-86432110D01*
X158478799Y-86361548D01*
X158550521Y-86330729D01*
X158551087Y-86330730D01*
G37*
G36*
X157182395Y-84722182D02*
G01*
X157218681Y-84738743D01*
X157238937Y-84789725D01*
X157247736Y-84893042D01*
X157249653Y-85066609D01*
X157249469Y-85105424D01*
X157244509Y-85266360D01*
X157234155Y-85386213D01*
X157220255Y-85441435D01*
X157209065Y-85451827D01*
X157139810Y-85475777D01*
X157091448Y-85422329D01*
X157073264Y-85300392D01*
X157067096Y-85233297D01*
X157030397Y-85108823D01*
X156972607Y-84999786D01*
X156907600Y-84929630D01*
X156849247Y-84921801D01*
X156831159Y-84960980D01*
X156814933Y-85067196D01*
X156808681Y-85212086D01*
X156807454Y-85315445D01*
X156798083Y-85416391D01*
X156774652Y-85459331D01*
X156731511Y-85462600D01*
X156691442Y-85433910D01*
X156652540Y-85338116D01*
X156634748Y-85201199D01*
X156638736Y-85049349D01*
X156665172Y-84908754D01*
X156714726Y-84805602D01*
X156770378Y-84745378D01*
X156836463Y-84722366D01*
X156937128Y-84750423D01*
X156951140Y-84755489D01*
X157037836Y-84775122D01*
X157073264Y-84761448D01*
X157089778Y-84738059D01*
X157161459Y-84721181D01*
X157182395Y-84722182D01*
G37*
G36*
X156425870Y-87302553D02*
G01*
X156402739Y-87322555D01*
X156308217Y-87358291D01*
X156160590Y-87355139D01*
X156108994Y-87350815D01*
X156000036Y-87353213D01*
X155945486Y-87372352D01*
X155926687Y-87394547D01*
X155862979Y-87405037D01*
X155810118Y-87344252D01*
X155796197Y-87256733D01*
X155802144Y-87146528D01*
X156036980Y-87146528D01*
X156092084Y-87177032D01*
X156193922Y-87190625D01*
X156285353Y-87177727D01*
X156323611Y-87146528D01*
X156321992Y-87140206D01*
X156269712Y-87113336D01*
X156166669Y-87102431D01*
X156145447Y-87102756D01*
X156055610Y-87116522D01*
X156036980Y-87146528D01*
X155802144Y-87146528D01*
X155804291Y-87106754D01*
X155833664Y-86941249D01*
X155877845Y-86794785D01*
X155930363Y-86701930D01*
X155965747Y-86673712D01*
X156101536Y-86625070D01*
X156256239Y-86625340D01*
X156388066Y-86676818D01*
X156442010Y-86733819D01*
X156437375Y-86789804D01*
X156365193Y-86820654D01*
X156236719Y-86816019D01*
X156172665Y-86807162D01*
X156084717Y-86813034D01*
X156044191Y-86857005D01*
X156037743Y-86882547D01*
X156064112Y-86916796D01*
X156160843Y-86926042D01*
X156269736Y-86937644D01*
X156401360Y-86994328D01*
X156478536Y-87084383D01*
X156485337Y-87146528D01*
X156490346Y-87192296D01*
X156425870Y-87302553D01*
G37*
G36*
X157147470Y-86366672D02*
G01*
X157251589Y-86403392D01*
X157317291Y-86460237D01*
X157319933Y-86522477D01*
X157282880Y-86552324D01*
X157191929Y-86573165D01*
X157173289Y-86573501D01*
X157130608Y-86584845D01*
X157109245Y-86626625D01*
X157104035Y-86718029D01*
X157109815Y-86878247D01*
X157110797Y-87037047D01*
X157098559Y-87184240D01*
X157075190Y-87275221D01*
X157004855Y-87340486D01*
X156897556Y-87367221D01*
X156779246Y-87358128D01*
X156674444Y-87318656D01*
X156607672Y-87254257D01*
X156603450Y-87170378D01*
X156634322Y-87125579D01*
X156709834Y-87124907D01*
X156779337Y-87153420D01*
X156864579Y-87181100D01*
X156914245Y-87171122D01*
X156936765Y-87110858D01*
X156940569Y-86987677D01*
X156934088Y-86788952D01*
X156918924Y-86374827D01*
X157051216Y-86361860D01*
X157147470Y-86366672D01*
G37*
G36*
X158009286Y-85324471D02*
G01*
X157898372Y-85400183D01*
X157751733Y-85412412D01*
X157747014Y-85411649D01*
X157652163Y-85400769D01*
X157625740Y-85419133D01*
X157650357Y-85477989D01*
X157710776Y-85538266D01*
X157811507Y-85544305D01*
X157965861Y-85493978D01*
X158027753Y-85487757D01*
X158072905Y-85531412D01*
X158073365Y-85604139D01*
X158020091Y-85675648D01*
X158011643Y-85681289D01*
X157906156Y-85719698D01*
X157773592Y-85735417D01*
X157654364Y-85722437D01*
X157545918Y-85664878D01*
X157475518Y-85551961D01*
X157437461Y-85373580D01*
X157426042Y-85119631D01*
X157426042Y-85030512D01*
X157612162Y-85030512D01*
X157619284Y-85128501D01*
X157687726Y-85204699D01*
X157752767Y-85234665D01*
X157843964Y-85242558D01*
X157896244Y-85181390D01*
X157903673Y-85126045D01*
X157880145Y-85023919D01*
X157828764Y-84935358D01*
X157766536Y-84897570D01*
X157748676Y-84898551D01*
X157658059Y-84943079D01*
X157612162Y-85030512D01*
X157426042Y-85030512D01*
X157426042Y-84736225D01*
X157650932Y-84731102D01*
X157789643Y-84735109D01*
X157895023Y-84764845D01*
X157981661Y-84831819D01*
X158047499Y-84918895D01*
X158091867Y-85063581D01*
X158085086Y-85126045D01*
X158076457Y-85205522D01*
X158009286Y-85324471D01*
G37*
G36*
X160454691Y-85226694D02*
G01*
X160372869Y-85368773D01*
X160320667Y-85412138D01*
X160171472Y-85465415D01*
X160004452Y-85456359D01*
X159851389Y-85384040D01*
X159814776Y-85354105D01*
X159771786Y-85295414D01*
X159795072Y-85245105D01*
X159800697Y-85239694D01*
X159864993Y-85213201D01*
X159962511Y-85242724D01*
X160080193Y-85284007D01*
X160169338Y-85291489D01*
X160202569Y-85261372D01*
X160192893Y-85246768D01*
X160125443Y-85198760D01*
X160015156Y-85140104D01*
X159960770Y-85111142D01*
X159860845Y-85037533D01*
X159814451Y-84971459D01*
X159812515Y-84930789D01*
X159813986Y-84927482D01*
X160016742Y-84927482D01*
X160029207Y-84965446D01*
X160115460Y-85013861D01*
X160189954Y-85044803D01*
X160260622Y-85068668D01*
X160279472Y-85057077D01*
X160264855Y-85009491D01*
X160212574Y-84948412D01*
X160114454Y-84909674D01*
X160022597Y-84922820D01*
X160016742Y-84927482D01*
X159813986Y-84927482D01*
X159858612Y-84827129D01*
X159962764Y-84750865D01*
X160102864Y-84721181D01*
X160179954Y-84729846D01*
X160320567Y-84799264D01*
X160419352Y-84919903D01*
X160463090Y-85057077D01*
X160467123Y-85069726D01*
X160454691Y-85226694D01*
G37*
G36*
X161169035Y-85387911D02*
G01*
X161106440Y-85438770D01*
X161017745Y-85464073D01*
X160882403Y-85454900D01*
X160844575Y-85450300D01*
X160729679Y-85448824D01*
X160689236Y-85474911D01*
X160676540Y-85497754D01*
X160612066Y-85505450D01*
X160566966Y-85482185D01*
X160553840Y-85402998D01*
X160559053Y-85360015D01*
X160565382Y-85235915D01*
X160568916Y-85069334D01*
X160785184Y-85069334D01*
X160790081Y-85184801D01*
X160829281Y-85256072D01*
X160849527Y-85267974D01*
X160954152Y-85288688D01*
X161045506Y-85224091D01*
X161065978Y-85196117D01*
X161078978Y-85130582D01*
X161038191Y-85036678D01*
X160975320Y-84954647D01*
X160891270Y-84916875D01*
X160821872Y-84955881D01*
X160785184Y-85069334D01*
X160568916Y-85069334D01*
X160569068Y-85062173D01*
X160569438Y-84862144D01*
X160569145Y-84692352D01*
X160573262Y-84546347D01*
X160584468Y-84462272D01*
X160605007Y-84425517D01*
X160637124Y-84421475D01*
X160642049Y-84422734D01*
X160701860Y-84476731D01*
X160749174Y-84578168D01*
X160758089Y-84606822D01*
X160809575Y-84695922D01*
X160890447Y-84721181D01*
X160979402Y-84727379D01*
X161106661Y-84780412D01*
X161197985Y-84900724D01*
X161255959Y-85082120D01*
X161253084Y-85130582D01*
X161245844Y-85252597D01*
X161169035Y-85387911D01*
G37*
G36*
X153331939Y-84752610D02*
G01*
X153359125Y-84829310D01*
X153332460Y-84910629D01*
X153312441Y-84940215D01*
X153258251Y-85041274D01*
X153197900Y-85172091D01*
X153152683Y-85281292D01*
X153132295Y-85360590D01*
X153146610Y-85418269D01*
X153195373Y-85486254D01*
X153255006Y-85582063D01*
X153280903Y-85665202D01*
X153268150Y-85716987D01*
X153213530Y-85730767D01*
X153126258Y-85680424D01*
X153017657Y-85570052D01*
X152950772Y-85481595D01*
X152851053Y-85325063D01*
X152759152Y-85156210D01*
X152685515Y-84996350D01*
X152640585Y-84866793D01*
X152634806Y-84788851D01*
X152666356Y-84736937D01*
X152726822Y-84729387D01*
X152799182Y-84802377D01*
X152878648Y-84952691D01*
X152978966Y-85184202D01*
X153094958Y-84952691D01*
X153151048Y-84852334D01*
X153219655Y-84757719D01*
X153269359Y-84721181D01*
X153331939Y-84752610D01*
G37*
G36*
X153788587Y-86330730D02*
G01*
X153859533Y-86359311D01*
X153890506Y-86455492D01*
X153894657Y-86514536D01*
X153874246Y-86564255D01*
X153802312Y-86565735D01*
X153781766Y-86561114D01*
X153715168Y-86509578D01*
X153692680Y-86432110D01*
X153716299Y-86361548D01*
X153788021Y-86330729D01*
X153788587Y-86330730D01*
G37*
G36*
X158693837Y-86650244D02*
G01*
X158719831Y-86655226D01*
X158811095Y-86699588D01*
X158845480Y-86760606D01*
X158818811Y-86814589D01*
X158726910Y-86837848D01*
X158717309Y-86837910D01*
X158651067Y-86850081D01*
X158622684Y-86900592D01*
X158616667Y-87014236D01*
X158616691Y-87026030D01*
X158624037Y-87133932D01*
X158654887Y-87180567D01*
X158724308Y-87190625D01*
X158802640Y-87202004D01*
X158866752Y-87250585D01*
X158859202Y-87322917D01*
X158840678Y-87336079D01*
X158751991Y-87355646D01*
X158620333Y-87364683D01*
X158475801Y-87362998D01*
X158348487Y-87350399D01*
X158268488Y-87326692D01*
X158248831Y-87310410D01*
X158228988Y-87241535D01*
X158268003Y-87175822D01*
X158350700Y-87146528D01*
X158381260Y-87144218D01*
X158419359Y-87118510D01*
X158436376Y-87047058D01*
X158440278Y-86908711D01*
X158448211Y-86753922D01*
X158482659Y-86669009D01*
X158559307Y-86639779D01*
X158693837Y-86650244D01*
G37*
G36*
X155612785Y-85387911D02*
G01*
X155550190Y-85438770D01*
X155461495Y-85464073D01*
X155326153Y-85454900D01*
X155288325Y-85450300D01*
X155173429Y-85448824D01*
X155132986Y-85474911D01*
X155120290Y-85497754D01*
X155055816Y-85505450D01*
X155010716Y-85482185D01*
X154997590Y-85402998D01*
X155002803Y-85360015D01*
X155009132Y-85235915D01*
X155012666Y-85069334D01*
X155228934Y-85069334D01*
X155233831Y-85184801D01*
X155273031Y-85256072D01*
X155293277Y-85267974D01*
X155397902Y-85288688D01*
X155489256Y-85224091D01*
X155509728Y-85196117D01*
X155522728Y-85130582D01*
X155481941Y-85036678D01*
X155419070Y-84954647D01*
X155335020Y-84916875D01*
X155265622Y-84955881D01*
X155228934Y-85069334D01*
X155012666Y-85069334D01*
X155012818Y-85062173D01*
X155013188Y-84862144D01*
X155012895Y-84692352D01*
X155017012Y-84546347D01*
X155028218Y-84462272D01*
X155048757Y-84425517D01*
X155080874Y-84421475D01*
X155085799Y-84422734D01*
X155145610Y-84476731D01*
X155192924Y-84578168D01*
X155201839Y-84606822D01*
X155253325Y-84695922D01*
X155334197Y-84721181D01*
X155423152Y-84727379D01*
X155550411Y-84780412D01*
X155641735Y-84900724D01*
X155699709Y-85082120D01*
X155696834Y-85130582D01*
X155689594Y-85252597D01*
X155612785Y-85387911D01*
G37*
G36*
X149316680Y-103782646D02*
G01*
X149405024Y-103988146D01*
X149137660Y-104173674D01*
X148522612Y-104322356D01*
X148381174Y-104341038D01*
X147780922Y-104300855D01*
X147422315Y-104054368D01*
X147433326Y-103998301D01*
X147676971Y-103886792D01*
X148112186Y-103791533D01*
X148613914Y-103730465D01*
X149057097Y-103721523D01*
X149316680Y-103782646D01*
G37*
G36*
X171670752Y-90331340D02*
G01*
X171622090Y-90493957D01*
X171338301Y-90725653D01*
X171101523Y-90916520D01*
X171099600Y-91065777D01*
X171158746Y-91162347D01*
X171035261Y-91405848D01*
X170675904Y-91706119D01*
X170294134Y-91904388D01*
X170042301Y-91915526D01*
X169987993Y-91741332D01*
X170198801Y-91383601D01*
X170276807Y-91291389D01*
X170691037Y-90878082D01*
X171124200Y-90535438D01*
X171482153Y-90330758D01*
X171670752Y-90331340D01*
G37*
G36*
X146897883Y-104289144D02*
G01*
X146863193Y-104418611D01*
X146733726Y-104383920D01*
X146768417Y-104254454D01*
X146897883Y-104289144D01*
G37*
G36*
X144972198Y-106021691D02*
G01*
X145107903Y-106319086D01*
X145020004Y-106525208D01*
X144746234Y-106589440D01*
X144436384Y-106403501D01*
X144358187Y-106250801D01*
X144473889Y-106016953D01*
X144644885Y-105952592D01*
X144972198Y-106021691D01*
G37*
G36*
X181846080Y-69665972D02*
G01*
X181811390Y-69795440D01*
X181681923Y-69760748D01*
X181716613Y-69631282D01*
X181846080Y-69665972D01*
G37*
G36*
X187651805Y-93728666D02*
G01*
X187944999Y-93961986D01*
X188040682Y-94105655D01*
X188312009Y-94513053D01*
X188490146Y-94831099D01*
X188569584Y-94972928D01*
X188671265Y-95258609D01*
X188576794Y-95403526D01*
X188283338Y-95505929D01*
X187839620Y-95599918D01*
X187450926Y-95538914D01*
X187358628Y-95302603D01*
X187673476Y-95302603D01*
X187744856Y-95362081D01*
X188014487Y-95324596D01*
X188117071Y-95240676D01*
X188165948Y-95018275D01*
X188094568Y-94958797D01*
X187824935Y-94996282D01*
X187722353Y-95080202D01*
X187673476Y-95302603D01*
X187358628Y-95302603D01*
X187335443Y-95243243D01*
X187322608Y-95099265D01*
X187151911Y-94707013D01*
X187144412Y-94697582D01*
X187049833Y-94318953D01*
X187095581Y-94199489D01*
X187373656Y-94199489D01*
X187411141Y-94469121D01*
X187495061Y-94571703D01*
X187717462Y-94620579D01*
X187776940Y-94549200D01*
X187739455Y-94279568D01*
X187655535Y-94176986D01*
X187433134Y-94128109D01*
X187373656Y-94199489D01*
X187095581Y-94199489D01*
X187198908Y-93929662D01*
X187521537Y-93717399D01*
X187651805Y-93728666D01*
G37*
G36*
X182337283Y-66783149D02*
G01*
X182410867Y-67027132D01*
X182396116Y-67179883D01*
X182311761Y-67288443D01*
X182220222Y-67032886D01*
X182212766Y-66877605D01*
X182294583Y-66756514D01*
X182337283Y-66783149D01*
G37*
G36*
X168192630Y-95364292D02*
G01*
X168152246Y-95718325D01*
X168001618Y-95899986D01*
X167712566Y-95755897D01*
X167476576Y-95540514D01*
X167419859Y-95412807D01*
X167642669Y-95485840D01*
X167700036Y-95514312D01*
X167858218Y-95540165D01*
X167769884Y-95302954D01*
X167705722Y-95126880D01*
X167798005Y-95123924D01*
X167894671Y-95172869D01*
X168104564Y-95088186D01*
X168171296Y-95082859D01*
X168192630Y-95364292D01*
G37*
G36*
X163495938Y-107854451D02*
G01*
X163506702Y-107857357D01*
X163913414Y-108042208D01*
X163956452Y-108299238D01*
X163642307Y-108664356D01*
X163621522Y-108682955D01*
X163375479Y-108990161D01*
X163367968Y-109200308D01*
X163373144Y-109204794D01*
X163697126Y-109276220D01*
X164036991Y-109121955D01*
X164199837Y-108828271D01*
X164227419Y-108690601D01*
X164389092Y-108582741D01*
X164481085Y-108677857D01*
X164506341Y-109001180D01*
X164506041Y-109002938D01*
X164427034Y-109304743D01*
X164242659Y-109464400D01*
X163821091Y-109596418D01*
X163616940Y-109627760D01*
X163205702Y-109509369D01*
X162990905Y-109199280D01*
X163021776Y-108814412D01*
X163347542Y-108471684D01*
X163503024Y-108344580D01*
X163560980Y-108129579D01*
X163390990Y-108082194D01*
X163046123Y-108207956D01*
X162761117Y-108315930D01*
X162632721Y-108227757D01*
X162689943Y-108037476D01*
X163004239Y-107835366D01*
X163495938Y-107854451D01*
G37*
G36*
X180820299Y-97624993D02*
G01*
X181061831Y-97923983D01*
X181368318Y-98408615D01*
X181562342Y-98767539D01*
X181722057Y-99173129D01*
X181672449Y-99314489D01*
X181667730Y-99314236D01*
X181423310Y-99153315D01*
X181149388Y-98787625D01*
X180849058Y-98267439D01*
X180697569Y-99172870D01*
X180634167Y-99478892D01*
X180488280Y-99906846D01*
X180341271Y-100072160D01*
X180163801Y-99959553D01*
X179888102Y-99608549D01*
X179618280Y-99149081D01*
X179431580Y-98715616D01*
X179405243Y-98442629D01*
X179452482Y-98417957D01*
X179665737Y-98562818D01*
X179960256Y-98930060D01*
X180415875Y-99602219D01*
X180509145Y-98626453D01*
X180551808Y-98262582D01*
X180637551Y-97790645D01*
X180721935Y-97573376D01*
X180820299Y-97624993D01*
G37*
G36*
X163046271Y-98139571D02*
G01*
X163166338Y-98183441D01*
X163269463Y-98236457D01*
X163576734Y-98394423D01*
X163655624Y-98517347D01*
X163693781Y-98576803D01*
X163483393Y-98687829D01*
X163338254Y-98742920D01*
X163405477Y-98906134D01*
X163483914Y-99002926D01*
X163489044Y-99318309D01*
X163400066Y-99428546D01*
X163358361Y-99251741D01*
X163337322Y-99073785D01*
X163259593Y-99257843D01*
X163202299Y-99362745D01*
X163173428Y-99415607D01*
X162853164Y-99619456D01*
X162705510Y-99665890D01*
X162747211Y-99777855D01*
X162761673Y-99915887D01*
X162436765Y-100109115D01*
X162077429Y-100325099D01*
X161916510Y-100548239D01*
X161911392Y-100610960D01*
X161827918Y-100812873D01*
X161802397Y-100817202D01*
X161752056Y-100652919D01*
X161740190Y-100580849D01*
X161531908Y-100438790D01*
X161450545Y-100451370D01*
X161411505Y-100615536D01*
X161433166Y-100694258D01*
X161273328Y-100791749D01*
X161047566Y-100643315D01*
X160825509Y-100271314D01*
X160785127Y-100171692D01*
X160728283Y-100076810D01*
X160954555Y-100076810D01*
X160957380Y-100141013D01*
X161127177Y-100123065D01*
X161207241Y-100061044D01*
X161173431Y-99950442D01*
X161138028Y-99944688D01*
X160954555Y-100076810D01*
X160728283Y-100076810D01*
X160631073Y-99914551D01*
X160409441Y-99905247D01*
X159993633Y-100120889D01*
X159880524Y-100187078D01*
X159501818Y-100424355D01*
X159332281Y-100557439D01*
X159242794Y-100588208D01*
X158921199Y-100566766D01*
X158686533Y-100559226D01*
X158558641Y-100726842D01*
X158556497Y-100805082D01*
X158495292Y-100717832D01*
X158512666Y-100592776D01*
X158652349Y-100426896D01*
X158894957Y-100426896D01*
X159024424Y-100461586D01*
X159059115Y-100332119D01*
X158929648Y-100297428D01*
X158894957Y-100426896D01*
X158652349Y-100426896D01*
X158759419Y-100299746D01*
X159190015Y-99973337D01*
X159365678Y-99871871D01*
X162123295Y-99871871D01*
X162255417Y-100055344D01*
X162319621Y-100052519D01*
X162301671Y-99882722D01*
X162239651Y-99802658D01*
X162129049Y-99836468D01*
X162123295Y-99871871D01*
X159365678Y-99871871D01*
X159696351Y-99680868D01*
X160170324Y-99489661D01*
X160503832Y-99467033D01*
X160518037Y-99471741D01*
X160558180Y-99466633D01*
X160884895Y-99425062D01*
X160927880Y-99403098D01*
X161640672Y-99403098D01*
X161771108Y-99532415D01*
X161832889Y-99561538D01*
X161844365Y-99563078D01*
X162049417Y-99590610D01*
X162065701Y-99566957D01*
X161935264Y-99437639D01*
X161873483Y-99408517D01*
X161656956Y-99379445D01*
X161640672Y-99403098D01*
X160927880Y-99403098D01*
X161093245Y-99318601D01*
X162267812Y-99318601D01*
X162270637Y-99382804D01*
X162410218Y-99368050D01*
X162440434Y-99364856D01*
X162520498Y-99302835D01*
X162486687Y-99192233D01*
X162451285Y-99186479D01*
X162267812Y-99318601D01*
X161093245Y-99318601D01*
X161354912Y-99184896D01*
X161406418Y-99144016D01*
X161875179Y-99144016D01*
X162004646Y-99178706D01*
X162039337Y-99049239D01*
X161909870Y-99014549D01*
X161875179Y-99144016D01*
X161406418Y-99144016D01*
X161645241Y-98954463D01*
X162203493Y-98954463D01*
X162332960Y-98989154D01*
X162367650Y-98859687D01*
X162238184Y-98824997D01*
X162203493Y-98954463D01*
X161645241Y-98954463D01*
X161790273Y-98839352D01*
X161831484Y-98782474D01*
X162541947Y-98782474D01*
X162586134Y-98796154D01*
X162825431Y-98704825D01*
X162928286Y-98621558D01*
X162979865Y-98403656D01*
X162905790Y-98355854D01*
X162696382Y-98481305D01*
X162609199Y-98602514D01*
X162553106Y-98752614D01*
X162541947Y-98782474D01*
X161831484Y-98782474D01*
X162013422Y-98531373D01*
X162178098Y-98531373D01*
X162307565Y-98566064D01*
X162342255Y-98436597D01*
X162212788Y-98401906D01*
X162178098Y-98531373D01*
X162013422Y-98531373D01*
X162053153Y-98476538D01*
X162133237Y-98365416D01*
X162451309Y-98313180D01*
X162539617Y-98322650D01*
X162656030Y-98335136D01*
X162627635Y-98172680D01*
X162620360Y-98158986D01*
X162691438Y-98062238D01*
X163046271Y-98139571D01*
G37*
G36*
X181448385Y-70114459D02*
G01*
X181413694Y-70243925D01*
X181284228Y-70209235D01*
X181318918Y-70079768D01*
X181448385Y-70114459D01*
G37*
G36*
X167190229Y-95592684D02*
G01*
X167430521Y-95876596D01*
X167516029Y-96082013D01*
X167452379Y-96174915D01*
X167311041Y-96097323D01*
X167101271Y-95868474D01*
X166983951Y-95631383D01*
X167046018Y-95525072D01*
X167190229Y-95592684D01*
G37*
G36*
X178187481Y-82284317D02*
G01*
X178152790Y-82413784D01*
X178023324Y-82379093D01*
X178058014Y-82249627D01*
X178187481Y-82284317D01*
G37*
G36*
X145310438Y-104572445D02*
G01*
X145300250Y-104659868D01*
X145098908Y-104745664D01*
X144844765Y-104710954D01*
X144785907Y-104643618D01*
X144961986Y-104557255D01*
X145120803Y-104541360D01*
X145310438Y-104572445D01*
G37*
G36*
X166250413Y-106511708D02*
G01*
X166390665Y-106714736D01*
X166579824Y-106988558D01*
X166756497Y-107273993D01*
X166963886Y-107712815D01*
X166954280Y-107921465D01*
X166858642Y-107939547D01*
X166639380Y-107774958D01*
X166507005Y-107621277D01*
X166292742Y-107680356D01*
X166052152Y-108107034D01*
X165965397Y-108294445D01*
X165772808Y-108579911D01*
X165658574Y-108581876D01*
X165675716Y-108276473D01*
X165682810Y-107915235D01*
X165423666Y-107632830D01*
X165395065Y-107614892D01*
X165163790Y-107282504D01*
X165180675Y-107203811D01*
X165543562Y-107203811D01*
X165664675Y-107314148D01*
X166002347Y-107335016D01*
X166190581Y-107189487D01*
X166118112Y-106872095D01*
X165924981Y-106663652D01*
X165659328Y-106740889D01*
X165546206Y-106893235D01*
X165543562Y-107203811D01*
X165180675Y-107203811D01*
X165253702Y-106863461D01*
X165649588Y-106438213D01*
X165832435Y-106319402D01*
X166030681Y-106306049D01*
X166250413Y-106511708D01*
G37*
G36*
X185702911Y-95104196D02*
G01*
X186151468Y-95331334D01*
X186329103Y-95435067D01*
X186632430Y-95612199D01*
X187035565Y-95884676D01*
X187250637Y-96086643D01*
X187241363Y-96217355D01*
X187034449Y-96259524D01*
X186771335Y-96151769D01*
X186430424Y-96062750D01*
X186106199Y-96268099D01*
X185915185Y-96700786D01*
X185885661Y-96867179D01*
X185833348Y-97001049D01*
X185771076Y-96799531D01*
X185764891Y-96773127D01*
X185644344Y-96353768D01*
X185468621Y-95822636D01*
X185439702Y-95736849D01*
X185369577Y-95450268D01*
X185676079Y-95450268D01*
X185694596Y-95666126D01*
X185785300Y-95776833D01*
X186006511Y-95827275D01*
X186042906Y-95800366D01*
X186081485Y-95578029D01*
X186048633Y-95535588D01*
X185769570Y-95416882D01*
X185676079Y-95450268D01*
X185369577Y-95450268D01*
X185327538Y-95278468D01*
X185329295Y-95003928D01*
X185396996Y-94992908D01*
X185702911Y-95104196D01*
G37*
G36*
X145258577Y-104170573D02*
G01*
X145158134Y-104308646D01*
X145064391Y-104346974D01*
X144985512Y-104262393D01*
X144998229Y-104228855D01*
X145204388Y-104136025D01*
X145258577Y-104170573D01*
G37*
G36*
X164162007Y-97054680D02*
G01*
X164234494Y-97311145D01*
X164213687Y-97356126D01*
X164101698Y-97598220D01*
X163839748Y-97846486D01*
X163655300Y-97960974D01*
X163557698Y-97888074D01*
X163522095Y-97684579D01*
X163523818Y-97678388D01*
X163655512Y-97678388D01*
X163784978Y-97713079D01*
X163819669Y-97583612D01*
X163690202Y-97548921D01*
X163655512Y-97678388D01*
X163523818Y-97678388D01*
X163630366Y-97295582D01*
X163861795Y-97012100D01*
X163945302Y-96978020D01*
X164162007Y-97054680D01*
G37*
G36*
X178315844Y-99369121D02*
G01*
X178764400Y-99596259D01*
X178942035Y-99699992D01*
X179245363Y-99877125D01*
X179648498Y-100149601D01*
X179863570Y-100351569D01*
X179854295Y-100482280D01*
X179647382Y-100524449D01*
X179384267Y-100416694D01*
X179043356Y-100327675D01*
X178719131Y-100533025D01*
X178528117Y-100965711D01*
X178498594Y-101132105D01*
X178446280Y-101265975D01*
X178384008Y-101064456D01*
X178377824Y-101038052D01*
X178257277Y-100618693D01*
X178081553Y-100087562D01*
X178052635Y-100001775D01*
X177982510Y-99715194D01*
X178289012Y-99715194D01*
X178307528Y-99931052D01*
X178398233Y-100041758D01*
X178619443Y-100092200D01*
X178655838Y-100065292D01*
X178694417Y-99842955D01*
X178661565Y-99800514D01*
X178382503Y-99681807D01*
X178289012Y-99715194D01*
X177982510Y-99715194D01*
X177940471Y-99543393D01*
X177942228Y-99268853D01*
X178009929Y-99257833D01*
X178315844Y-99369121D01*
G37*
G36*
X168734957Y-93207588D02*
G01*
X168736742Y-93212606D01*
X168785539Y-93349740D01*
X168717033Y-93650425D01*
X168642948Y-93730345D01*
X168340579Y-94056871D01*
X167941878Y-94487667D01*
X167925223Y-94505525D01*
X167488105Y-94890589D01*
X167284619Y-95009567D01*
X167310953Y-94911290D01*
X167181486Y-94876600D01*
X167146796Y-95006066D01*
X167245413Y-95032491D01*
X167068457Y-95135958D01*
X166739370Y-95221940D01*
X166573935Y-95128847D01*
X166645243Y-94836985D01*
X166710520Y-94746962D01*
X166759832Y-94854101D01*
X166816100Y-94967813D01*
X167069955Y-94881167D01*
X167185953Y-94793518D01*
X167316175Y-94562186D01*
X167075561Y-94408804D01*
X166933183Y-94349272D01*
X166875096Y-94254662D01*
X166931848Y-94254662D01*
X167061315Y-94289352D01*
X167096005Y-94159886D01*
X166966539Y-94125195D01*
X166931848Y-94254662D01*
X166875096Y-94254662D01*
X166758717Y-94065109D01*
X167260163Y-94065109D01*
X167389629Y-94099800D01*
X167424320Y-93970333D01*
X167294853Y-93935643D01*
X167260163Y-94065109D01*
X166758717Y-94065109D01*
X166745841Y-94044138D01*
X166802726Y-93831571D01*
X166906453Y-93831571D01*
X167035919Y-93866262D01*
X167070610Y-93736795D01*
X166941143Y-93702105D01*
X166906453Y-93831571D01*
X166802726Y-93831571D01*
X166867912Y-93587984D01*
X167076313Y-93263102D01*
X167291838Y-93105184D01*
X167406027Y-93304195D01*
X167528241Y-93438972D01*
X167579477Y-93443000D01*
X167855900Y-93464732D01*
X168227842Y-93354513D01*
X168483498Y-93133719D01*
X168558224Y-93074672D01*
X168734957Y-93207588D01*
G37*
G36*
X174911144Y-85708044D02*
G01*
X174876454Y-85837511D01*
X174746987Y-85802820D01*
X174781677Y-85673353D01*
X174911144Y-85708044D01*
G37*
G36*
X144170664Y-103766531D02*
G01*
X144175450Y-103767823D01*
X144564062Y-103945099D01*
X144721201Y-104160712D01*
X144621850Y-104272042D01*
X144302499Y-104149906D01*
X144131958Y-104049600D01*
X143949085Y-104011450D01*
X143944190Y-104229136D01*
X143994483Y-104395229D01*
X144101618Y-104369887D01*
X144168488Y-104321995D01*
X144340137Y-104433581D01*
X144490012Y-104692158D01*
X144507161Y-104841358D01*
X144520877Y-104960701D01*
X144473947Y-105027559D01*
X144186291Y-105124535D01*
X143820470Y-105114852D01*
X143582610Y-104991699D01*
X143563348Y-104925158D01*
X143585378Y-104889522D01*
X143846140Y-104889522D01*
X143890269Y-104962622D01*
X144166367Y-104976609D01*
X144204258Y-104970314D01*
X144388632Y-104909790D01*
X144205206Y-104831660D01*
X144030426Y-104807676D01*
X143846140Y-104889522D01*
X143585378Y-104889522D01*
X143694913Y-104712334D01*
X143799148Y-104624712D01*
X143629995Y-104579880D01*
X143483771Y-104536789D01*
X143374647Y-104238186D01*
X143399781Y-104079909D01*
X143487766Y-104069216D01*
X143543524Y-104107449D01*
X143600180Y-103923759D01*
X143615999Y-103813604D01*
X143770449Y-103699107D01*
X144170664Y-103766531D01*
G37*
G36*
X174104876Y-101922672D02*
G01*
X174170139Y-101940783D01*
X174721227Y-102191302D01*
X174910376Y-102522016D01*
X174924876Y-102547369D01*
X174805333Y-103047932D01*
X174797752Y-103064105D01*
X174498158Y-103523215D01*
X174110735Y-103683430D01*
X173518125Y-103594586D01*
X172984060Y-103382371D01*
X172694558Y-103035715D01*
X172705756Y-102716643D01*
X173080462Y-102716643D01*
X173134410Y-103091099D01*
X173519680Y-103375378D01*
X173705237Y-103412152D01*
X174140275Y-103319675D01*
X174484577Y-103057701D01*
X174593997Y-102714855D01*
X174592465Y-102705563D01*
X174368541Y-102317987D01*
X173943160Y-102177622D01*
X173429451Y-102322577D01*
X173367206Y-102361343D01*
X173080462Y-102716643D01*
X172705756Y-102716643D01*
X172712185Y-102533449D01*
X172935069Y-102115861D01*
X173418708Y-101869345D01*
X174104876Y-101922672D01*
G37*
G36*
X169160666Y-93186729D02*
G01*
X169125975Y-93316196D01*
X168996509Y-93281505D01*
X169031199Y-93152039D01*
X169160666Y-93186729D01*
G37*
G36*
X182440132Y-71074005D02*
G01*
X182405440Y-71203472D01*
X182275974Y-71168781D01*
X182310664Y-71039315D01*
X182440132Y-71074005D01*
G37*
G36*
X168031064Y-105429388D02*
G01*
X168096328Y-105447499D01*
X168647416Y-105698019D01*
X168836565Y-106028733D01*
X168851065Y-106054085D01*
X168731522Y-106554649D01*
X168723941Y-106570821D01*
X168424347Y-107029932D01*
X168036924Y-107190146D01*
X167444315Y-107101302D01*
X166910248Y-106889088D01*
X166620746Y-106542432D01*
X166631944Y-106223360D01*
X167006651Y-106223360D01*
X167060598Y-106597816D01*
X167445868Y-106882095D01*
X167631426Y-106918869D01*
X168066464Y-106826391D01*
X168410765Y-106564418D01*
X168520186Y-106221572D01*
X168518653Y-106212279D01*
X168294730Y-105824704D01*
X167869349Y-105684339D01*
X167355640Y-105829293D01*
X167293395Y-105868060D01*
X167006651Y-106223360D01*
X166631944Y-106223360D01*
X166638374Y-106040165D01*
X166861258Y-105622578D01*
X167344898Y-105376061D01*
X168031064Y-105429388D01*
G37*
G36*
X172400066Y-102588578D02*
G01*
X172393587Y-102719535D01*
X172166528Y-102942288D01*
X172143105Y-102956187D01*
X171982831Y-103126720D01*
X172019664Y-103396511D01*
X172264706Y-103870547D01*
X172384631Y-104095659D01*
X172540231Y-104500786D01*
X172527042Y-104704030D01*
X172458413Y-104698458D01*
X172223347Y-104481822D01*
X171936392Y-104060100D01*
X171905629Y-104007104D01*
X171627553Y-103585507D01*
X171414661Y-103440823D01*
X171181586Y-103510945D01*
X170972989Y-103590335D01*
X170758495Y-103536340D01*
X170779746Y-103445228D01*
X171033341Y-103198152D01*
X171484504Y-102898302D01*
X171786560Y-102738681D01*
X172198363Y-102580176D01*
X172400066Y-102588578D01*
G37*
G36*
X184595910Y-95445143D02*
G01*
X184837443Y-95744133D01*
X185143931Y-96228764D01*
X185337955Y-96587688D01*
X185497670Y-96993278D01*
X185448061Y-97134638D01*
X185443343Y-97134385D01*
X185198923Y-96973464D01*
X184925000Y-96607774D01*
X184624670Y-96087588D01*
X184473182Y-96993019D01*
X184409779Y-97299042D01*
X184263892Y-97726996D01*
X184116883Y-97892310D01*
X183939413Y-97779702D01*
X183663713Y-97428698D01*
X183393893Y-96969230D01*
X183207193Y-96535765D01*
X183180855Y-96262778D01*
X183228094Y-96238106D01*
X183441350Y-96382967D01*
X183735868Y-96750209D01*
X184191488Y-97422368D01*
X184284758Y-96446602D01*
X184327420Y-96082731D01*
X184413163Y-95610795D01*
X184497548Y-95393525D01*
X184595910Y-95445143D01*
G37*
G36*
X152967153Y-98187891D02*
G01*
X152866711Y-98325965D01*
X152772967Y-98364292D01*
X152694089Y-98279711D01*
X152706806Y-98246174D01*
X152912964Y-98153343D01*
X152967153Y-98187891D01*
G37*
G36*
X156336463Y-101617497D02*
G01*
X156900331Y-101724176D01*
X157365879Y-101857616D01*
X157556317Y-102001907D01*
X157515725Y-102208145D01*
X157416506Y-102362810D01*
X157113562Y-102648891D01*
X157069037Y-102672616D01*
X156947950Y-102668687D01*
X157032810Y-102391562D01*
X157091164Y-102135885D01*
X156981753Y-101988237D01*
X156833820Y-102058023D01*
X156661048Y-102364611D01*
X156602338Y-102538950D01*
X156436839Y-102653970D01*
X156080577Y-102537601D01*
X155602709Y-102327676D01*
X155922911Y-102649080D01*
X156092632Y-102833707D01*
X156080264Y-102951025D01*
X155734966Y-102976466D01*
X155358639Y-102960530D01*
X155043020Y-102901040D01*
X154964578Y-102889886D01*
X154851830Y-103066142D01*
X154869355Y-103152351D01*
X154871674Y-103163757D01*
X155062475Y-103194051D01*
X155074444Y-103188121D01*
X155163188Y-103267942D01*
X155084785Y-103607950D01*
X154883977Y-103968733D01*
X154546075Y-104191295D01*
X154424834Y-104200326D01*
X154381023Y-104114265D01*
X154633095Y-103849610D01*
X155063095Y-103457081D01*
X154590762Y-103703886D01*
X154260070Y-103817194D01*
X154124646Y-103743350D01*
X154111856Y-103669449D01*
X153900865Y-103529112D01*
X153820118Y-103514282D01*
X153765909Y-103444765D01*
X154362878Y-103444765D01*
X154365703Y-103508968D01*
X154535500Y-103491019D01*
X154615565Y-103428999D01*
X154581754Y-103318397D01*
X154546351Y-103312642D01*
X154362878Y-103444765D01*
X153765909Y-103444765D01*
X153676622Y-103330264D01*
X153668022Y-103270826D01*
X153667099Y-103270179D01*
X153970246Y-103270179D01*
X154099712Y-103304870D01*
X154134403Y-103175403D01*
X154004935Y-103140712D01*
X153970246Y-103270179D01*
X153667099Y-103270179D01*
X153469939Y-103131944D01*
X153404697Y-103223040D01*
X153571397Y-103495995D01*
X153762160Y-103753433D01*
X153813430Y-103907907D01*
X153722509Y-103949002D01*
X153237357Y-103991669D01*
X152765359Y-103846317D01*
X152625851Y-103735274D01*
X152580516Y-103497553D01*
X152790925Y-103102417D01*
X152814296Y-103067699D01*
X152881885Y-102985851D01*
X154462717Y-102985851D01*
X154592183Y-103020541D01*
X154626874Y-102891075D01*
X154497407Y-102856384D01*
X154462717Y-102985851D01*
X152881885Y-102985851D01*
X153123004Y-102693866D01*
X153378588Y-102510287D01*
X153502152Y-102480882D01*
X154124885Y-102298272D01*
X154449809Y-102133749D01*
X154438274Y-102005715D01*
X154407896Y-101981040D01*
X154519214Y-101902635D01*
X154904398Y-101855342D01*
X155038514Y-101846572D01*
X155354242Y-101786264D01*
X155358809Y-101698667D01*
X155280567Y-101619868D01*
X155439320Y-101563899D01*
X155820373Y-101563590D01*
X156336463Y-101617497D01*
G37*
G36*
X179693448Y-72003176D02*
G01*
X179658757Y-72132643D01*
X179529291Y-72097952D01*
X179563981Y-71968485D01*
X179693448Y-72003176D01*
G37*
G36*
X182318692Y-67888262D02*
G01*
X182392277Y-68132245D01*
X182377525Y-68284996D01*
X182293170Y-68393557D01*
X182201631Y-68137999D01*
X182194176Y-67982719D01*
X182275992Y-67861629D01*
X182318692Y-67888262D01*
G37*
G36*
X152698777Y-102980224D02*
G01*
X152571947Y-103009086D01*
X152410519Y-103104162D01*
X152325079Y-103447820D01*
X152323683Y-103454757D01*
X152263745Y-103752391D01*
X151986532Y-104112551D01*
X151868938Y-104190487D01*
X151765793Y-104289006D01*
X151991043Y-104241553D01*
X152238450Y-104217687D01*
X152210283Y-104397812D01*
X152057392Y-104542882D01*
X151670496Y-104640093D01*
X151395713Y-104581409D01*
X151394327Y-104385226D01*
X151430219Y-104265661D01*
X151306722Y-104231261D01*
X151020260Y-104415878D01*
X150952377Y-104431657D01*
X150955851Y-104225609D01*
X151085428Y-103993789D01*
X151412118Y-103973349D01*
X151636194Y-103984288D01*
X151682055Y-103856171D01*
X151495386Y-103770146D01*
X151107619Y-103808979D01*
X150765099Y-103840267D01*
X150505868Y-103714478D01*
X150435428Y-103632540D01*
X151818581Y-103632540D01*
X151950705Y-103816013D01*
X152014908Y-103813188D01*
X151996959Y-103643391D01*
X151934937Y-103563326D01*
X151824337Y-103597137D01*
X151818581Y-103632540D01*
X150435428Y-103632540D01*
X150431314Y-103627754D01*
X150182462Y-103596610D01*
X150112611Y-103627706D01*
X150029742Y-103562391D01*
X150162494Y-103464994D01*
X150570444Y-103312620D01*
X151135399Y-103153147D01*
X151737178Y-103016444D01*
X152255609Y-102932385D01*
X152570510Y-102930840D01*
X152698777Y-102980224D01*
G37*
G36*
X171219565Y-83646189D02*
G01*
X171364755Y-83925220D01*
X171333228Y-84060115D01*
X171097980Y-84117386D01*
X170992081Y-84065491D01*
X170846890Y-83786459D01*
X170878418Y-83651564D01*
X171113665Y-83594294D01*
X171219565Y-83646189D01*
G37*
G36*
X170035888Y-104938479D02*
G01*
X170235780Y-105318496D01*
X170397206Y-105735793D01*
X170393000Y-105936119D01*
X170226209Y-105896562D01*
X169991902Y-105620503D01*
X169946505Y-105545874D01*
X169696107Y-105334491D01*
X169344570Y-105447051D01*
X169051128Y-105562127D01*
X168839401Y-105519833D01*
X168878958Y-105353043D01*
X169155018Y-105118736D01*
X169401397Y-104922148D01*
X169470634Y-104717639D01*
X169306410Y-104668502D01*
X168965466Y-104790422D01*
X168672024Y-104905499D01*
X168460296Y-104863205D01*
X168452820Y-104838797D01*
X168584114Y-104627817D01*
X168940070Y-104367332D01*
X169514620Y-104035615D01*
X170035888Y-104938479D01*
G37*
G36*
X175100696Y-86036358D02*
G01*
X175066006Y-86165824D01*
X174936539Y-86131134D01*
X174971230Y-86001667D01*
X175100696Y-86036358D01*
G37*
G36*
X181834309Y-78180714D02*
G01*
X181731286Y-78453652D01*
X181392394Y-78762695D01*
X180859890Y-78748327D01*
X180596776Y-78630233D01*
X180493650Y-78346477D01*
X180473084Y-78188256D01*
X181513396Y-78188256D01*
X181528243Y-78210282D01*
X181644140Y-78191571D01*
X181707682Y-77919911D01*
X181694658Y-77805112D01*
X181593498Y-77889315D01*
X181549830Y-77982092D01*
X181513396Y-78188256D01*
X180473084Y-78188256D01*
X180463302Y-78112995D01*
X180360322Y-77945030D01*
X181154094Y-77945030D01*
X181283560Y-77979720D01*
X181318251Y-77850254D01*
X181188784Y-77815563D01*
X181154094Y-77945030D01*
X180360322Y-77945030D01*
X180240574Y-77749714D01*
X180084621Y-77533214D01*
X180130896Y-77331955D01*
X180191577Y-77280807D01*
X180141785Y-77122551D01*
X180098475Y-77020804D01*
X180208234Y-76767675D01*
X180428097Y-76525951D01*
X180646997Y-76444662D01*
X180668184Y-76465823D01*
X180667651Y-76726672D01*
X180562381Y-77179657D01*
X180485330Y-77457896D01*
X180466988Y-77678835D01*
X180597440Y-77582120D01*
X180773031Y-77420062D01*
X180836286Y-77541623D01*
X180837522Y-77602967D01*
X180902414Y-77670901D01*
X181097495Y-77505736D01*
X181470789Y-77071920D01*
X181610993Y-76929943D01*
X182003908Y-76668442D01*
X182152158Y-76566757D01*
X182198571Y-76342178D01*
X182196865Y-76339292D01*
X181982706Y-76300224D01*
X181565827Y-76570271D01*
X181046217Y-76994319D01*
X181019431Y-76416825D01*
X181147289Y-76416825D01*
X181276755Y-76451516D01*
X181311446Y-76322049D01*
X181181979Y-76287359D01*
X181147289Y-76416825D01*
X181019431Y-76416825D01*
X181017482Y-76374795D01*
X181019987Y-76140246D01*
X181021541Y-76132497D01*
X181639760Y-76132497D01*
X181769227Y-76167187D01*
X181803917Y-76037721D01*
X181674451Y-76003031D01*
X181639760Y-76132497D01*
X181021541Y-76132497D01*
X181127425Y-75604374D01*
X181338507Y-75228539D01*
X181602110Y-75122274D01*
X181634815Y-75058809D01*
X181436050Y-74827415D01*
X181328829Y-74722031D01*
X181217069Y-74556657D01*
X181394693Y-74562985D01*
X181416460Y-74568695D01*
X181704480Y-74800338D01*
X181733718Y-75150783D01*
X181487041Y-75454604D01*
X181309622Y-75597992D01*
X181155553Y-75898683D01*
X181164296Y-75999105D01*
X181248383Y-75968968D01*
X181490747Y-75802328D01*
X181873568Y-75862406D01*
X181973283Y-75939937D01*
X182241267Y-76148302D01*
X182403016Y-76578748D01*
X182261453Y-77005769D01*
X181848587Y-77275659D01*
X181615366Y-77393058D01*
X181712002Y-77568321D01*
X181735903Y-77609122D01*
X181811275Y-77737783D01*
X181832104Y-77773340D01*
X181834309Y-78180714D01*
G37*
G36*
X175429011Y-85846805D02*
G01*
X175394320Y-85976272D01*
X175264853Y-85941582D01*
X175299544Y-85812115D01*
X175429011Y-85846805D01*
G37*
G36*
X157938692Y-111660148D02*
G01*
X158030219Y-111830910D01*
X158225284Y-112327635D01*
X158262972Y-112676743D01*
X158233319Y-112757744D01*
X157962025Y-113085806D01*
X157579320Y-113302393D01*
X157247739Y-113306664D01*
X157241248Y-113302901D01*
X157251169Y-113145085D01*
X157553666Y-112911160D01*
X157881671Y-112651850D01*
X157913662Y-112375002D01*
X157712387Y-112260779D01*
X157279026Y-112413096D01*
X157272892Y-112416620D01*
X156900971Y-112566169D01*
X156691778Y-112533266D01*
X156690637Y-112531202D01*
X156771146Y-112331966D01*
X157089474Y-112084781D01*
X157095594Y-112081231D01*
X157411067Y-111833913D01*
X157487169Y-111636296D01*
X157485952Y-111634276D01*
X157273155Y-111604380D01*
X156899922Y-111756467D01*
X156893787Y-111759992D01*
X156521867Y-111909541D01*
X156312674Y-111876638D01*
X156308173Y-111830174D01*
X156484364Y-111607181D01*
X156874526Y-111333377D01*
X157531154Y-110954272D01*
X157938692Y-111660148D01*
G37*
G36*
X180862104Y-70144772D02*
G01*
X180860539Y-70370033D01*
X180959955Y-70561758D01*
X180963872Y-70563016D01*
X181055701Y-70767189D01*
X181056516Y-70785088D01*
X181074796Y-71186663D01*
X181040540Y-71509657D01*
X180977396Y-71785010D01*
X180920784Y-71853238D01*
X180902684Y-71631658D01*
X180822676Y-71472585D01*
X180504505Y-71298723D01*
X180346843Y-71266009D01*
X180167711Y-71327252D01*
X180306942Y-71594256D01*
X180351163Y-71660847D01*
X180272610Y-71739291D01*
X179887853Y-71630044D01*
X179694620Y-71533184D01*
X179763180Y-71486719D01*
X179873679Y-71466386D01*
X180031273Y-71253885D01*
X180081594Y-71113800D01*
X180380840Y-71075180D01*
X180522551Y-71088951D01*
X180587141Y-70997693D01*
X180551074Y-70942278D01*
X180756417Y-70942278D01*
X180790623Y-71093551D01*
X180888518Y-71196612D01*
X180947062Y-70936525D01*
X180941724Y-70851364D01*
X180830779Y-70665908D01*
X180774057Y-70693728D01*
X180756417Y-70942278D01*
X180551074Y-70942278D01*
X180391273Y-70696752D01*
X180362898Y-70659155D01*
X180227115Y-70459315D01*
X180306028Y-70518414D01*
X180468529Y-70667052D01*
X180591340Y-70619962D01*
X180732483Y-70272200D01*
X180765464Y-70181705D01*
X180861149Y-69981088D01*
X180862104Y-70144772D01*
G37*
G36*
X178733594Y-83869799D02*
G01*
X178443891Y-84242085D01*
X178254454Y-84390616D01*
X178207873Y-84400499D01*
X178201775Y-84464825D01*
X178192094Y-84566936D01*
X178214408Y-84639793D01*
X178084253Y-84854029D01*
X177939333Y-84899433D01*
X177570364Y-84919326D01*
X177215499Y-84872648D01*
X177064751Y-84778873D01*
X177657828Y-84778873D01*
X177787295Y-84813563D01*
X177821985Y-84684097D01*
X177692519Y-84649406D01*
X177657828Y-84778873D01*
X177064751Y-84778873D01*
X177056278Y-84773602D01*
X177043164Y-84788472D01*
X176988137Y-85040576D01*
X176911931Y-85271444D01*
X176797630Y-85184487D01*
X176705817Y-85105220D01*
X176482917Y-85208046D01*
X176384362Y-85320237D01*
X176260963Y-85386123D01*
X176304678Y-85200296D01*
X176455791Y-84924439D01*
X176647491Y-84924439D01*
X176776958Y-84959130D01*
X176811648Y-84829663D01*
X176682182Y-84794973D01*
X176647491Y-84924439D01*
X176455791Y-84924439D01*
X176511055Y-84823555D01*
X176668373Y-84470626D01*
X176588148Y-84373346D01*
X177642573Y-84373346D01*
X177723378Y-84408235D01*
X177898350Y-84276765D01*
X177995362Y-84039315D01*
X177966476Y-83954674D01*
X177803644Y-84063983D01*
X177710470Y-84193574D01*
X177653884Y-84343398D01*
X177642573Y-84373346D01*
X176588148Y-84373346D01*
X176559119Y-84338145D01*
X176455676Y-84352641D01*
X176401983Y-84499206D01*
X176404506Y-84597270D01*
X176181775Y-84718240D01*
X175957587Y-84709366D01*
X176002998Y-84503364D01*
X176066519Y-84320739D01*
X175891121Y-84372578D01*
X175847936Y-84394158D01*
X175730290Y-84375748D01*
X175749804Y-84311797D01*
X176950409Y-84311797D01*
X177079876Y-84346487D01*
X177114567Y-84217020D01*
X176985100Y-84182330D01*
X176950409Y-84311797D01*
X175749804Y-84311797D01*
X175819920Y-84082020D01*
X175907911Y-83817549D01*
X175876279Y-83728128D01*
X175828481Y-83737176D01*
X175760139Y-83565677D01*
X175809663Y-83432273D01*
X176115615Y-83391634D01*
X176314568Y-83396766D01*
X176508664Y-83284773D01*
X176510856Y-83228885D01*
X176361724Y-83228981D01*
X176294007Y-83257011D01*
X176084305Y-83190763D01*
X176100925Y-83086196D01*
X176203604Y-83028688D01*
X177014377Y-83028688D01*
X177165931Y-82983547D01*
X177229132Y-83070608D01*
X177192913Y-83407064D01*
X177155552Y-83757758D01*
X177219153Y-83944394D01*
X177308627Y-83896320D01*
X177416484Y-83610246D01*
X177455698Y-83494636D01*
X178302589Y-83494636D01*
X178304154Y-83530212D01*
X178305414Y-83558839D01*
X178475211Y-83540890D01*
X178555276Y-83478869D01*
X178521466Y-83368268D01*
X178486062Y-83362514D01*
X178302589Y-83494636D01*
X177455698Y-83494636D01*
X177495365Y-83377689D01*
X177682503Y-83134374D01*
X177865987Y-83058578D01*
X177943615Y-83224998D01*
X177957155Y-83340970D01*
X178059523Y-83252393D01*
X178094431Y-83146870D01*
X178000469Y-82924355D01*
X177947135Y-82884113D01*
X177981955Y-82731292D01*
X178036178Y-82708990D01*
X178345543Y-82743820D01*
X178572903Y-82756698D01*
X178645228Y-82536471D01*
X178512884Y-82195336D01*
X178354753Y-82033225D01*
X178115085Y-82048533D01*
X177709323Y-82302841D01*
X177621411Y-82368386D01*
X177302374Y-82645625D01*
X177079944Y-82890887D01*
X177014377Y-83028688D01*
X176203604Y-83028688D01*
X176354215Y-82944335D01*
X176703012Y-82722901D01*
X177043687Y-82326081D01*
X177337612Y-81969307D01*
X177747325Y-81800509D01*
X177989695Y-81758524D01*
X177895022Y-81615513D01*
X177868017Y-81587814D01*
X177842272Y-81266618D01*
X178064173Y-80742455D01*
X178126094Y-80637789D01*
X178378000Y-80637789D01*
X178510124Y-80821262D01*
X178574327Y-80818437D01*
X178556378Y-80648640D01*
X178546542Y-80635942D01*
X178767923Y-80635942D01*
X178897390Y-80670633D01*
X178932080Y-80541166D01*
X178802614Y-80506475D01*
X178767923Y-80635942D01*
X178546542Y-80635942D01*
X178494357Y-80568575D01*
X178383756Y-80602386D01*
X178378000Y-80637789D01*
X178126094Y-80637789D01*
X178176943Y-80551839D01*
X178373979Y-80278361D01*
X178448916Y-80272554D01*
X178458652Y-80350965D01*
X178602392Y-80403198D01*
X178648095Y-80365681D01*
X178717923Y-80092612D01*
X178803826Y-79858530D01*
X178944431Y-79717983D01*
X180352378Y-79717983D01*
X180353140Y-79720717D01*
X180405940Y-79910282D01*
X180453094Y-79965897D01*
X180759233Y-80187153D01*
X181010031Y-80196170D01*
X181085255Y-79980518D01*
X181011855Y-79809221D01*
X180830926Y-79930962D01*
X180702198Y-80049568D01*
X180632140Y-79940270D01*
X180618683Y-79844599D01*
X180432680Y-79688876D01*
X180352378Y-79717983D01*
X178944431Y-79717983D01*
X179103833Y-79558646D01*
X179405550Y-79298230D01*
X179576091Y-79064192D01*
X179576782Y-79042530D01*
X179432679Y-79066145D01*
X179109430Y-79282394D01*
X178601054Y-79679195D01*
X178817308Y-79155528D01*
X178853590Y-79069647D01*
X179104403Y-78634653D01*
X179379802Y-78530539D01*
X179760465Y-78720054D01*
X179822211Y-78764796D01*
X180056491Y-79030546D01*
X180003790Y-79331058D01*
X179947106Y-79466408D01*
X179995855Y-79550419D01*
X180302795Y-79408598D01*
X180641241Y-79289322D01*
X180901965Y-79403852D01*
X180990706Y-79504731D01*
X181256808Y-79544577D01*
X181390242Y-79496326D01*
X181315617Y-79633844D01*
X181312094Y-79640336D01*
X181260893Y-79738897D01*
X181288968Y-80074160D01*
X181288013Y-80278481D01*
X181004917Y-80548232D01*
X180912575Y-80596093D01*
X180514968Y-80640985D01*
X180046691Y-80390116D01*
X179929140Y-80306400D01*
X179674657Y-80175347D01*
X179671809Y-80291157D01*
X179725600Y-80461432D01*
X179612531Y-80585105D01*
X179502834Y-80627779D01*
X179437732Y-80890726D01*
X179428902Y-81052919D01*
X179253432Y-81196062D01*
X179156642Y-81210878D01*
X179261205Y-81319034D01*
X179387462Y-81522992D01*
X179371471Y-81699630D01*
X179348572Y-81952578D01*
X179343583Y-81968710D01*
X179179861Y-82307940D01*
X178988729Y-82307728D01*
X178922202Y-82311878D01*
X179054794Y-82544794D01*
X179173667Y-82787160D01*
X179154029Y-83003057D01*
X179141047Y-83145776D01*
X179042719Y-83333305D01*
X178871836Y-83659208D01*
X178733594Y-83869799D01*
G37*
G36*
X164640454Y-97109731D02*
G01*
X164605764Y-97239198D01*
X164476298Y-97204507D01*
X164510988Y-97075040D01*
X164640454Y-97109731D01*
G37*
G36*
X150351986Y-103827050D02*
G01*
X150317295Y-103956516D01*
X150187829Y-103921826D01*
X150222519Y-103792359D01*
X150351986Y-103827050D01*
G37*
G36*
X175601006Y-84866935D02*
G01*
X175605086Y-85023243D01*
X175493133Y-85262594D01*
X175448013Y-85322256D01*
X175578599Y-85486846D01*
X175659400Y-85568539D01*
X175406657Y-85554926D01*
X175156079Y-85500714D01*
X175016930Y-85426550D01*
X175093814Y-85289857D01*
X175296743Y-84962811D01*
X175390310Y-84821915D01*
X175534396Y-84691281D01*
X175601006Y-84866935D01*
G37*
G36*
X182199789Y-69899511D02*
G01*
X182165099Y-70028977D01*
X182035632Y-69994287D01*
X182070323Y-69864820D01*
X182199789Y-69899511D01*
G37*
G36*
X158174112Y-100920851D02*
G01*
X158218170Y-101044187D01*
X157961443Y-101309690D01*
X157844377Y-101397448D01*
X157373413Y-101581212D01*
X156908219Y-101582369D01*
X156606431Y-101391411D01*
X156608393Y-101336344D01*
X156820603Y-101178527D01*
X157219372Y-101021312D01*
X157672664Y-100910456D01*
X158048438Y-100891713D01*
X158174112Y-100920851D01*
G37*
G36*
X180116538Y-71977781D02*
G01*
X180081847Y-72107248D01*
X179952380Y-72072557D01*
X179987071Y-71943091D01*
X180116538Y-71977781D01*
G37*
G36*
X181258832Y-69786144D02*
G01*
X181224142Y-69915610D01*
X181094675Y-69880920D01*
X181129366Y-69751454D01*
X181258832Y-69786144D01*
G37*
G36*
X162359286Y-109117656D02*
G01*
X162722113Y-109506713D01*
X162765549Y-109988452D01*
X162660922Y-110268014D01*
X162342561Y-110555345D01*
X161791412Y-110583930D01*
X161726036Y-110575796D01*
X161513083Y-110526267D01*
X161596211Y-110439184D01*
X162005975Y-110269814D01*
X162360095Y-110116281D01*
X162561005Y-109940977D01*
X162516229Y-109731958D01*
X162132078Y-109294911D01*
X161682972Y-109148829D01*
X161263731Y-109336791D01*
X161250518Y-109349511D01*
X160976590Y-109542490D01*
X160858707Y-109425689D01*
X160911792Y-109113958D01*
X161236003Y-108898070D01*
X161755993Y-108888900D01*
X162359286Y-109117656D01*
G37*
G36*
X169766504Y-91961444D02*
G01*
X169731814Y-92090910D01*
X169602346Y-92056220D01*
X169637038Y-91926753D01*
X169766504Y-91961444D01*
G37*
G36*
X180557492Y-64592199D02*
G01*
X180557547Y-64608351D01*
X180612778Y-64775523D01*
X180807219Y-64611639D01*
X180944890Y-64455701D01*
X180997130Y-64448294D01*
X180881443Y-64750467D01*
X180759064Y-65033405D01*
X180669012Y-65201966D01*
X180653747Y-65205230D01*
X180558398Y-65053906D01*
X180488271Y-64751029D01*
X180491559Y-64489968D01*
X180528596Y-64426465D01*
X180557492Y-64592199D01*
G37*
G36*
X158754753Y-110551685D02*
G01*
X159027564Y-110917818D01*
X159298504Y-111365994D01*
X159496422Y-111781671D01*
X159550170Y-112050313D01*
X159549929Y-112051199D01*
X159365798Y-112276985D01*
X159025748Y-112494033D01*
X158680034Y-112625825D01*
X158478916Y-112595843D01*
X158518473Y-112429052D01*
X158794532Y-112194745D01*
X158903596Y-112128017D01*
X159065684Y-111949004D01*
X159024602Y-111684760D01*
X158778433Y-111219098D01*
X158658507Y-110993987D01*
X158502907Y-110588860D01*
X158516097Y-110385615D01*
X158551217Y-110382131D01*
X158754753Y-110551685D01*
G37*
G36*
X159766097Y-110078823D02*
G01*
X160214653Y-110305961D01*
X160392288Y-110409694D01*
X160695616Y-110586826D01*
X161098751Y-110859303D01*
X161313823Y-111061270D01*
X161304548Y-111191982D01*
X161097635Y-111234150D01*
X160834520Y-111126396D01*
X160493609Y-111037377D01*
X160169384Y-111242726D01*
X159978370Y-111675413D01*
X159948847Y-111841806D01*
X159896533Y-111975676D01*
X159834261Y-111774158D01*
X159828077Y-111747753D01*
X159707530Y-111328394D01*
X159531806Y-110797263D01*
X159502887Y-110711476D01*
X159432762Y-110424895D01*
X159739264Y-110424895D01*
X159757781Y-110640753D01*
X159848486Y-110751460D01*
X160069696Y-110801902D01*
X160106091Y-110774993D01*
X160144670Y-110552656D01*
X160111818Y-110510215D01*
X159832756Y-110391509D01*
X159739264Y-110424895D01*
X159432762Y-110424895D01*
X159390724Y-110253095D01*
X159392481Y-109978555D01*
X159460182Y-109967535D01*
X159766097Y-110078823D01*
G37*
G36*
X174811790Y-86494839D02*
G01*
X174695814Y-86738675D01*
X174400786Y-87197205D01*
X174000541Y-87743447D01*
X173617712Y-88202846D01*
X173295747Y-88521812D01*
X173125689Y-88604616D01*
X172979116Y-88599175D01*
X172677797Y-88776606D01*
X172593770Y-88822224D01*
X172652029Y-88660536D01*
X172895359Y-88282274D01*
X173051155Y-88073216D01*
X173543565Y-87516194D01*
X174014602Y-87098945D01*
X174085850Y-87047292D01*
X174493708Y-86712197D01*
X174734143Y-86449704D01*
X174820786Y-86333949D01*
X174811790Y-86494839D01*
G37*
G36*
X169558361Y-92738244D02*
G01*
X169523671Y-92867710D01*
X169394204Y-92833020D01*
X169428895Y-92703553D01*
X169558361Y-92738244D01*
G37*
G36*
X166511348Y-95427661D02*
G01*
X166583570Y-95618585D01*
X166416642Y-95581418D01*
X166197673Y-95548672D01*
X166094435Y-95822162D01*
X165999249Y-96063759D01*
X165677873Y-96394057D01*
X165677767Y-96394116D01*
X165440510Y-96508548D01*
X165400790Y-96416432D01*
X165526607Y-96043639D01*
X165645608Y-95779477D01*
X165947968Y-95393028D01*
X166262604Y-95259458D01*
X166511348Y-95427661D01*
G37*
G36*
X176060244Y-85044611D02*
G01*
X176025554Y-85174078D01*
X175896087Y-85139387D01*
X175930777Y-85009920D01*
X176060244Y-85044611D01*
G37*
G36*
X149834119Y-103688288D02*
G01*
X149799428Y-103817754D01*
X149669962Y-103783064D01*
X149704652Y-103653597D01*
X149834119Y-103688288D01*
G37*
G36*
X179756388Y-77952111D02*
G01*
X179747817Y-78054290D01*
X179676287Y-78251051D01*
X179652416Y-78262703D01*
X179561403Y-78188550D01*
X179642203Y-77921514D01*
X179710881Y-77828608D01*
X179756388Y-77952111D01*
G37*
G36*
X182091456Y-97189271D02*
G01*
X182540013Y-97416408D01*
X182717648Y-97520141D01*
X183020975Y-97697274D01*
X183424110Y-97969751D01*
X183639182Y-98171718D01*
X183629908Y-98302429D01*
X183422994Y-98344598D01*
X183159879Y-98236844D01*
X182818969Y-98147824D01*
X182494744Y-98353174D01*
X182303730Y-98785860D01*
X182274206Y-98952254D01*
X182221893Y-99086124D01*
X182159620Y-98884606D01*
X182153436Y-98858201D01*
X182032889Y-98438842D01*
X181857166Y-97907711D01*
X181828247Y-97821924D01*
X181758121Y-97535343D01*
X182064624Y-97535343D01*
X182083140Y-97751201D01*
X182173845Y-97861908D01*
X182395056Y-97912349D01*
X182431450Y-97885441D01*
X182470030Y-97663104D01*
X182437177Y-97620663D01*
X182158115Y-97501956D01*
X182064624Y-97535343D01*
X181758121Y-97535343D01*
X181716082Y-97363543D01*
X181717840Y-97089003D01*
X181785541Y-97077983D01*
X182091456Y-97189271D01*
G37*
G36*
X182795420Y-66381920D02*
G01*
X182814987Y-66420157D01*
X182817806Y-66587872D01*
X182787112Y-66595521D01*
X182549184Y-66524084D01*
X182486822Y-66475305D01*
X182526799Y-66318132D01*
X182578089Y-66296930D01*
X182795420Y-66381920D01*
G37*
G36*
X176059744Y-100373501D02*
G01*
X176301276Y-100672491D01*
X176607763Y-101157123D01*
X176801788Y-101516046D01*
X176961502Y-101921637D01*
X176911894Y-102062996D01*
X176907176Y-102062744D01*
X176662756Y-101901822D01*
X176388833Y-101536132D01*
X176088504Y-101015946D01*
X175937016Y-101921377D01*
X175873613Y-102227400D01*
X175727725Y-102655354D01*
X175580717Y-102820668D01*
X175403247Y-102708060D01*
X175127547Y-102357056D01*
X174857726Y-101897588D01*
X174671025Y-101464124D01*
X174644688Y-101191136D01*
X174691927Y-101166464D01*
X174905182Y-101311325D01*
X175199702Y-101678567D01*
X175655321Y-102350726D01*
X175748590Y-101374961D01*
X175791253Y-101011089D01*
X175876996Y-100539153D01*
X175961381Y-100321883D01*
X176059744Y-100373501D01*
G37*
G36*
X146347610Y-104066662D02*
G01*
X146492737Y-104147332D01*
X146331075Y-104386925D01*
X146174689Y-104599040D01*
X146129342Y-104800920D01*
X146262396Y-105039076D01*
X146266282Y-105050748D01*
X146177241Y-105252398D01*
X146175612Y-105253293D01*
X145995470Y-105161903D01*
X145756114Y-104838907D01*
X145625072Y-104420481D01*
X145807066Y-104143750D01*
X146304370Y-104064043D01*
X146347610Y-104066662D01*
G37*
G36*
X181028063Y-74274533D02*
G01*
X181092329Y-74478672D01*
X181153680Y-74673556D01*
X181130261Y-75046300D01*
X180938133Y-75327141D01*
X180615571Y-75303626D01*
X180556712Y-75236290D01*
X180732791Y-75149928D01*
X180881352Y-75096191D01*
X180939080Y-74918883D01*
X180845211Y-74848365D01*
X180556552Y-74897441D01*
X180449662Y-74954800D01*
X180354168Y-74937187D01*
X180457144Y-74655084D01*
X180786775Y-74655084D01*
X180916242Y-74689774D01*
X180950932Y-74560308D01*
X180821466Y-74525617D01*
X180786775Y-74655084D01*
X180457144Y-74655084D01*
X180459094Y-74649743D01*
X180534300Y-74499301D01*
X180798799Y-74215666D01*
X181028063Y-74274533D01*
G37*
G36*
X172272845Y-89857778D02*
G01*
X172238156Y-89987246D01*
X172108688Y-89952555D01*
X172143379Y-89823088D01*
X172272845Y-89857778D01*
G37*
G36*
X180775657Y-69517916D02*
G01*
X180839788Y-69558383D01*
X180889809Y-69670886D01*
X180856681Y-69680163D01*
X180611500Y-69612692D01*
X180547367Y-69572225D01*
X180497347Y-69459721D01*
X180530474Y-69450445D01*
X180775657Y-69517916D01*
G37*
G36*
X170461892Y-84446489D02*
G01*
X170479776Y-84488481D01*
X170392512Y-84705423D01*
X170350519Y-84723306D01*
X170133578Y-84636041D01*
X170115695Y-84594050D01*
X170202959Y-84377108D01*
X170244951Y-84359224D01*
X170461892Y-84446489D01*
G37*
G36*
X181690749Y-91643260D02*
G01*
X181349519Y-92059146D01*
X181008290Y-92475030D01*
X180667062Y-92890914D01*
X179984605Y-93722682D01*
X179962477Y-93749652D01*
X179527272Y-94205601D01*
X179061889Y-94693166D01*
X178596507Y-95180730D01*
X178208688Y-95587034D01*
X177842336Y-95970848D01*
X176261861Y-97404143D01*
X175514543Y-98081868D01*
X173010362Y-100044151D01*
X172440584Y-100459019D01*
X171786669Y-100938022D01*
X171285223Y-101308653D01*
X171013583Y-101513985D01*
X170948621Y-101559696D01*
X170581923Y-101791791D01*
X169960898Y-102170384D01*
X169137506Y-102664232D01*
X168163702Y-103242084D01*
X167091444Y-103872697D01*
X163948867Y-105604389D01*
X160981558Y-107013063D01*
X158179813Y-108100017D01*
X155531073Y-108868226D01*
X153022772Y-109320662D01*
X150642352Y-109460298D01*
X148377248Y-109290105D01*
X146214898Y-108813058D01*
X145356489Y-108487847D01*
X149103129Y-108487847D01*
X149232596Y-108522537D01*
X149267286Y-108393071D01*
X149154006Y-108362717D01*
X150828657Y-108362717D01*
X150960781Y-108546190D01*
X151024984Y-108543365D01*
X151007035Y-108373568D01*
X150945014Y-108293504D01*
X150834413Y-108327314D01*
X150828657Y-108362717D01*
X149154006Y-108362717D01*
X149137820Y-108358380D01*
X149103129Y-108487847D01*
X145356489Y-108487847D01*
X144630079Y-108212644D01*
X144495445Y-108134138D01*
X149336667Y-108134138D01*
X149466133Y-108168828D01*
X149500824Y-108039362D01*
X149371357Y-108004671D01*
X149336667Y-108134138D01*
X144495445Y-108134138D01*
X143900518Y-107787233D01*
X148042001Y-107787233D01*
X148171468Y-107821923D01*
X148178656Y-107795098D01*
X153737319Y-107795098D01*
X153752167Y-107817124D01*
X153868063Y-107798413D01*
X153922974Y-107563657D01*
X156011334Y-107563657D01*
X156140801Y-107598348D01*
X156175491Y-107468881D01*
X156046025Y-107434191D01*
X156011334Y-107563657D01*
X153922974Y-107563657D01*
X153931606Y-107526753D01*
X153918581Y-107411954D01*
X153817420Y-107496157D01*
X153773754Y-107588934D01*
X153737319Y-107795098D01*
X148178656Y-107795098D01*
X148206158Y-107692457D01*
X148076692Y-107657767D01*
X148042001Y-107787233D01*
X143900518Y-107787233D01*
X142964333Y-107241339D01*
X141435988Y-105946663D01*
X140011134Y-104303970D01*
X139935528Y-104203228D01*
X139611128Y-103698232D01*
X139480687Y-103250848D01*
X139484428Y-102676350D01*
X139496965Y-102462510D01*
X139502017Y-101990821D01*
X140703873Y-101990821D01*
X140717792Y-102487482D01*
X140758959Y-102882692D01*
X140917059Y-103609126D01*
X141137707Y-104168942D01*
X141375194Y-104527675D01*
X141888553Y-105158288D01*
X142488330Y-105786690D01*
X143073597Y-106309852D01*
X143543426Y-106624744D01*
X143858048Y-106813814D01*
X144136868Y-107089016D01*
X144254659Y-107208859D01*
X144747326Y-107396642D01*
X145535916Y-107505175D01*
X146569669Y-107532021D01*
X147797827Y-107474740D01*
X148757567Y-107374101D01*
X149169629Y-107330892D01*
X149582501Y-107258633D01*
X150388305Y-107076887D01*
X151374704Y-106825955D01*
X151727478Y-106729263D01*
X158593861Y-106729263D01*
X158723328Y-106763953D01*
X158758018Y-106634487D01*
X158628552Y-106599796D01*
X158593861Y-106729263D01*
X151727478Y-106729263D01*
X151808396Y-106707084D01*
X152091434Y-106629506D01*
X154596498Y-106629506D01*
X154725964Y-106664196D01*
X154742064Y-106604111D01*
X155019587Y-106604111D01*
X155149054Y-106638801D01*
X155175606Y-106539710D01*
X158922176Y-106539710D01*
X159051642Y-106574401D01*
X159086333Y-106444934D01*
X158956866Y-106410244D01*
X158922176Y-106539710D01*
X155175606Y-106539710D01*
X155183745Y-106509334D01*
X155054278Y-106474644D01*
X155019587Y-106604111D01*
X154742064Y-106604111D01*
X154760654Y-106534730D01*
X154631188Y-106500039D01*
X154596498Y-106629506D01*
X152091434Y-106629506D01*
X152437777Y-106534577D01*
X152536142Y-106505796D01*
X153171870Y-106319782D01*
X155512059Y-106319782D01*
X155641525Y-106354473D01*
X155642681Y-106350158D01*
X159250490Y-106350158D01*
X159379956Y-106384849D01*
X159414646Y-106255382D01*
X159285180Y-106220692D01*
X159250490Y-106350158D01*
X155642681Y-106350158D01*
X155676216Y-106225006D01*
X155546749Y-106190316D01*
X155512059Y-106319782D01*
X153171870Y-106319782D01*
X153473596Y-106231497D01*
X154378241Y-105945455D01*
X155047787Y-105705192D01*
X155093843Y-105686725D01*
X160399589Y-105686725D01*
X160529056Y-105721416D01*
X160563746Y-105591949D01*
X160434280Y-105557259D01*
X160399589Y-105686725D01*
X155093843Y-105686725D01*
X155331426Y-105591461D01*
X155938757Y-105349024D01*
X155979177Y-105333017D01*
X160633127Y-105333017D01*
X160762593Y-105367707D01*
X160797284Y-105238241D01*
X160667817Y-105203550D01*
X160633127Y-105333017D01*
X155979177Y-105333017D01*
X156382309Y-105173369D01*
X156457853Y-105142528D01*
X156539996Y-105106284D01*
X158751214Y-105106284D01*
X158880680Y-105140974D01*
X158915372Y-105011507D01*
X158785904Y-104976816D01*
X158751214Y-105106284D01*
X156539996Y-105106284D01*
X156908962Y-104943484D01*
X157102400Y-104854408D01*
X157187655Y-104815149D01*
X160771889Y-104815149D01*
X160901356Y-104849841D01*
X160907493Y-104826936D01*
X163405207Y-104826936D01*
X163534673Y-104861626D01*
X163569364Y-104732160D01*
X163439897Y-104697469D01*
X163405207Y-104826936D01*
X160907493Y-104826936D01*
X160936046Y-104720373D01*
X160806579Y-104685683D01*
X160771889Y-104815149D01*
X157187655Y-104815149D01*
X157556130Y-104645470D01*
X157723728Y-104566247D01*
X161205179Y-104566247D01*
X161235832Y-104736525D01*
X161306905Y-104810817D01*
X161462788Y-104549705D01*
X161510913Y-104401167D01*
X161380859Y-104273301D01*
X161274827Y-104311103D01*
X161205587Y-104564754D01*
X161205179Y-104566247D01*
X157723728Y-104566247D01*
X158285979Y-104300473D01*
X158395969Y-104246493D01*
X161756831Y-104246493D01*
X161771848Y-104250517D01*
X161886298Y-104281184D01*
X161902398Y-104221098D01*
X162179922Y-104221098D01*
X162309388Y-104255789D01*
X162344079Y-104126322D01*
X162249302Y-104100927D01*
X162767169Y-104100927D01*
X162896635Y-104135617D01*
X162931326Y-104006151D01*
X162801859Y-103971461D01*
X162767169Y-104100927D01*
X162249302Y-104100927D01*
X162214612Y-104091632D01*
X162179922Y-104221098D01*
X161902398Y-104221098D01*
X161920988Y-104151717D01*
X161791521Y-104117027D01*
X161756831Y-104246493D01*
X158395969Y-104246493D01*
X158753878Y-104070842D01*
X159502692Y-103689352D01*
X160326629Y-103258125D01*
X160345683Y-103247942D01*
X164244582Y-103247942D01*
X164374049Y-103282632D01*
X164408740Y-103153166D01*
X164279273Y-103118475D01*
X164244582Y-103247942D01*
X160345683Y-103247942D01*
X161055034Y-102868838D01*
X164901210Y-102868838D01*
X165030677Y-102903527D01*
X165065368Y-102774061D01*
X164935901Y-102739371D01*
X164901210Y-102868838D01*
X161055034Y-102868838D01*
X161156982Y-102814353D01*
X161925042Y-102395228D01*
X162115252Y-102288551D01*
X162387214Y-102136024D01*
X165791377Y-102136024D01*
X165920843Y-102170714D01*
X165955534Y-102041248D01*
X165826067Y-102006557D01*
X165791377Y-102136024D01*
X162387214Y-102136024D01*
X162562106Y-102037938D01*
X162877503Y-101851695D01*
X166283848Y-101851695D01*
X166413315Y-101886386D01*
X166448005Y-101756919D01*
X166318539Y-101722229D01*
X166283848Y-101851695D01*
X162877503Y-101851695D01*
X162999464Y-101779677D01*
X163168410Y-101657633D01*
X163313097Y-101546015D01*
X163715424Y-101269068D01*
X164312206Y-100870214D01*
X164501884Y-100745670D01*
X169147301Y-100745670D01*
X169170473Y-100783159D01*
X169276455Y-100874595D01*
X169346901Y-100786736D01*
X169557694Y-100508729D01*
X169673053Y-100349990D01*
X169695419Y-100251436D01*
X169428540Y-100379805D01*
X169214593Y-100541971D01*
X169191974Y-100610439D01*
X169147301Y-100745670D01*
X164501884Y-100745670D01*
X165040285Y-100392152D01*
X165645815Y-99987673D01*
X166134595Y-99646597D01*
X170317424Y-99646597D01*
X170378100Y-99706754D01*
X170447859Y-99775916D01*
X170487049Y-99794388D01*
X170509641Y-99805038D01*
X170726169Y-99834110D01*
X170742453Y-99810458D01*
X170612017Y-99681139D01*
X170550235Y-99652018D01*
X170333708Y-99622946D01*
X170317424Y-99646597D01*
X166134595Y-99646597D01*
X166307019Y-99526278D01*
X171069797Y-99526278D01*
X171182406Y-99556451D01*
X171199264Y-99560968D01*
X171233955Y-99431501D01*
X171104488Y-99396811D01*
X171069797Y-99526278D01*
X166307019Y-99526278D01*
X166668466Y-99274056D01*
X167091199Y-98968050D01*
X172352596Y-98968050D01*
X172355421Y-99032253D01*
X172525218Y-99014305D01*
X172605283Y-98952283D01*
X172571472Y-98841682D01*
X172536069Y-98835927D01*
X172352596Y-98968050D01*
X167091199Y-98968050D01*
X167756750Y-98486274D01*
X168106466Y-98224808D01*
X172944906Y-98224808D01*
X173074372Y-98259498D01*
X173109063Y-98130032D01*
X172979596Y-98095341D01*
X172944906Y-98224808D01*
X168106466Y-98224808D01*
X168815104Y-97694993D01*
X169747964Y-96970880D01*
X170196032Y-96601827D01*
X173102258Y-96601827D01*
X173231725Y-96636518D01*
X173266416Y-96507051D01*
X173171643Y-96481657D01*
X173689506Y-96481657D01*
X173818972Y-96516347D01*
X173853663Y-96386881D01*
X173828264Y-96380075D01*
X175381867Y-96380075D01*
X175511333Y-96414766D01*
X175546023Y-96285299D01*
X175416557Y-96250609D01*
X175381867Y-96380075D01*
X173828264Y-96380075D01*
X173724196Y-96352189D01*
X173689506Y-96481657D01*
X173171643Y-96481657D01*
X173136949Y-96472361D01*
X173102258Y-96601827D01*
X170196032Y-96601827D01*
X170459768Y-96384600D01*
X170680024Y-96197328D01*
X174181977Y-96197328D01*
X174311444Y-96232019D01*
X174322563Y-96190523D01*
X175710180Y-96190523D01*
X175839648Y-96225214D01*
X175874338Y-96095746D01*
X175744872Y-96061056D01*
X175710180Y-96190523D01*
X174322563Y-96190523D01*
X174346134Y-96102552D01*
X174216667Y-96067861D01*
X174181977Y-96197328D01*
X170680024Y-96197328D01*
X170707226Y-96174200D01*
X170913754Y-96000970D01*
X176038495Y-96000970D01*
X176167962Y-96035662D01*
X176202652Y-95906194D01*
X176073185Y-95871504D01*
X176038495Y-96000970D01*
X170913754Y-96000970D01*
X171167876Y-95787820D01*
X171713429Y-95333617D01*
X171813630Y-95249807D01*
X171969268Y-95104000D01*
X176833885Y-95104000D01*
X176963351Y-95138691D01*
X176998042Y-95009224D01*
X176868575Y-94974534D01*
X176833885Y-95104000D01*
X171969268Y-95104000D01*
X172238397Y-94851872D01*
X175375062Y-94851872D01*
X175504529Y-94886562D01*
X175522452Y-94819672D01*
X177326356Y-94819672D01*
X177455823Y-94854362D01*
X177490513Y-94724896D01*
X177361047Y-94690205D01*
X177326356Y-94819672D01*
X175522452Y-94819672D01*
X175539219Y-94757096D01*
X175409753Y-94722405D01*
X175375062Y-94851872D01*
X172238397Y-94851872D01*
X172724387Y-94396582D01*
X177300961Y-94396582D01*
X177430427Y-94431273D01*
X177465119Y-94301806D01*
X177370340Y-94276410D01*
X177888208Y-94276410D01*
X178017675Y-94311101D01*
X178052365Y-94181634D01*
X177922899Y-94146944D01*
X177888208Y-94276410D01*
X177370340Y-94276410D01*
X177335651Y-94267115D01*
X177300961Y-94396582D01*
X172724387Y-94396582D01*
X172818291Y-94308610D01*
X175936915Y-94308610D01*
X176066381Y-94343301D01*
X176101071Y-94213834D01*
X175971605Y-94179143D01*
X175936915Y-94308610D01*
X172818291Y-94308610D01*
X173045078Y-94096149D01*
X173578119Y-93474215D01*
X178519441Y-93474215D01*
X178648907Y-93508906D01*
X178683598Y-93379439D01*
X178554131Y-93344749D01*
X178519441Y-93474215D01*
X173578119Y-93474215D01*
X174066265Y-92904663D01*
X174199850Y-92697416D01*
X178727584Y-92697416D01*
X178857051Y-92732107D01*
X178891741Y-92602640D01*
X178762274Y-92567949D01*
X178727584Y-92697416D01*
X174199850Y-92697416D01*
X174590355Y-92091578D01*
X177502299Y-92091578D01*
X177631766Y-92126268D01*
X177666456Y-91996802D01*
X177536990Y-91962112D01*
X177502299Y-92091578D01*
X174590355Y-92091578D01*
X174804369Y-91759552D01*
X174892564Y-91595927D01*
X180572235Y-91595927D01*
X180573801Y-91631503D01*
X180575060Y-91660130D01*
X180744857Y-91642181D01*
X180824921Y-91580160D01*
X180791111Y-91469559D01*
X180755708Y-91463804D01*
X180572235Y-91595927D01*
X174892564Y-91595927D01*
X175018109Y-91363010D01*
X175248888Y-91015334D01*
X175436487Y-90899963D01*
X175650689Y-90950158D01*
X176008345Y-91036157D01*
X176278493Y-90864388D01*
X176417133Y-90563374D01*
X177495494Y-90563374D01*
X177624961Y-90598065D01*
X177659651Y-90468598D01*
X177530185Y-90433907D01*
X177495494Y-90563374D01*
X176417133Y-90563374D01*
X176507150Y-90367929D01*
X176745348Y-89947580D01*
X177400048Y-89414662D01*
X177576801Y-89306503D01*
X177955924Y-89020487D01*
X178101629Y-88825205D01*
X182401616Y-88825205D01*
X182531083Y-88859895D01*
X182565773Y-88730428D01*
X182436307Y-88695738D01*
X182401616Y-88825205D01*
X178101629Y-88825205D01*
X178109765Y-88814301D01*
X178110356Y-88806315D01*
X178256502Y-88549518D01*
X178334170Y-88468530D01*
X179715410Y-88468530D01*
X179816548Y-88691248D01*
X179895887Y-88729401D01*
X180079079Y-88718434D01*
X180020645Y-88529090D01*
X180260769Y-88529090D01*
X180390236Y-88563781D01*
X180424926Y-88434314D01*
X180295460Y-88399624D01*
X180260769Y-88529090D01*
X180020645Y-88529090D01*
X179996243Y-88450021D01*
X179904530Y-88346773D01*
X179741181Y-88393529D01*
X179715410Y-88468530D01*
X178334170Y-88468530D01*
X178579990Y-88212202D01*
X178846122Y-87918842D01*
X179093074Y-87599920D01*
X183007454Y-87599920D01*
X183136920Y-87634610D01*
X183171611Y-87505144D01*
X183042144Y-87470453D01*
X183007454Y-87599920D01*
X179093074Y-87599920D01*
X179269268Y-87372378D01*
X179368375Y-87234425D01*
X180607674Y-87234425D01*
X180737141Y-87269114D01*
X180760005Y-87183783D01*
X181288728Y-87183783D01*
X181419164Y-87313100D01*
X181480946Y-87342223D01*
X181697473Y-87371295D01*
X181713757Y-87347642D01*
X181637063Y-87271605D01*
X182817901Y-87271605D01*
X182947368Y-87306295D01*
X182982058Y-87176829D01*
X182852592Y-87142139D01*
X182817901Y-87271605D01*
X181637063Y-87271605D01*
X181583321Y-87218324D01*
X181521539Y-87189202D01*
X181305012Y-87160130D01*
X181288728Y-87183783D01*
X180760005Y-87183783D01*
X180766850Y-87158239D01*
X181876945Y-87158239D01*
X181989552Y-87188412D01*
X182006412Y-87192929D01*
X182041102Y-87063463D01*
X181911635Y-87028772D01*
X181876945Y-87158239D01*
X180766850Y-87158239D01*
X180771831Y-87139648D01*
X180642365Y-87104958D01*
X180607674Y-87234425D01*
X179368375Y-87234425D01*
X179779806Y-86661728D01*
X180318319Y-85867051D01*
X180322360Y-85860908D01*
X182442850Y-85860908D01*
X182697083Y-85973385D01*
X182753822Y-85995346D01*
X182784953Y-86007394D01*
X183124928Y-86092279D01*
X183176411Y-85997040D01*
X183067544Y-85946865D01*
X182723278Y-85875623D01*
X182551392Y-85852592D01*
X182442850Y-85860908D01*
X180322360Y-85860908D01*
X180327410Y-85853230D01*
X180465068Y-85648626D01*
X182975254Y-85648626D01*
X183104720Y-85683316D01*
X183139411Y-85553850D01*
X183009944Y-85519158D01*
X182975254Y-85648626D01*
X180465068Y-85648626D01*
X180837374Y-85095262D01*
X180897101Y-85010587D01*
X183701263Y-85010587D01*
X183830729Y-85045278D01*
X183865419Y-84915811D01*
X183735953Y-84881121D01*
X183701263Y-85010587D01*
X180897101Y-85010587D01*
X181262387Y-84492721D01*
X183840025Y-84492721D01*
X183969492Y-84527412D01*
X184004182Y-84397945D01*
X183874716Y-84363255D01*
X183840025Y-84492721D01*
X181262387Y-84492721D01*
X181288712Y-84455400D01*
X181632764Y-84000655D01*
X181703866Y-83924065D01*
X184824967Y-83924065D01*
X184954433Y-83958755D01*
X184989124Y-83829289D01*
X184859657Y-83794598D01*
X184824967Y-83924065D01*
X181703866Y-83924065D01*
X181809110Y-83810698D01*
X183884010Y-83810698D01*
X184013477Y-83845388D01*
X184048167Y-83715922D01*
X183918701Y-83681231D01*
X183884010Y-83810698D01*
X181809110Y-83810698D01*
X181820862Y-83798039D01*
X181909382Y-83727929D01*
X181962439Y-83515274D01*
X181953784Y-83448321D01*
X182049929Y-83111137D01*
X182086528Y-83034047D01*
X183927027Y-83034047D01*
X184057463Y-83163365D01*
X184119244Y-83192487D01*
X184335773Y-83221559D01*
X184352056Y-83197907D01*
X184221620Y-83068589D01*
X184159839Y-83039466D01*
X183943310Y-83010395D01*
X183927027Y-83034047D01*
X182086528Y-83034047D01*
X182139052Y-82923415D01*
X184684994Y-82923415D01*
X184698720Y-82937333D01*
X184854262Y-82907958D01*
X184890946Y-82901030D01*
X184932082Y-82868372D01*
X184938334Y-82803244D01*
X185272241Y-82803244D01*
X185287088Y-82825271D01*
X185402985Y-82806559D01*
X185466527Y-82534899D01*
X185453504Y-82420100D01*
X185352342Y-82504303D01*
X185308675Y-82597080D01*
X185272241Y-82803244D01*
X184938334Y-82803244D01*
X184954733Y-82632409D01*
X184907564Y-82580474D01*
X184748781Y-82654793D01*
X184719108Y-82716850D01*
X184684994Y-82923415D01*
X182139052Y-82923415D01*
X182275537Y-82635934D01*
X182322564Y-82541427D01*
X183807825Y-82541427D01*
X183937292Y-82576118D01*
X183971982Y-82446651D01*
X183842516Y-82411961D01*
X183807825Y-82541427D01*
X182322564Y-82541427D01*
X182442159Y-82301085D01*
X184982319Y-82301085D01*
X185111786Y-82335775D01*
X185146477Y-82206308D01*
X185017010Y-82171618D01*
X184982319Y-82301085D01*
X182442159Y-82301085D01*
X182554983Y-82074352D01*
X183100406Y-82074352D01*
X183229873Y-82109042D01*
X183264564Y-81979575D01*
X183135097Y-81944885D01*
X183100406Y-82074352D01*
X182554983Y-82074352D01*
X182585610Y-82012803D01*
X182796681Y-81532936D01*
X183272336Y-81532936D01*
X183404460Y-81716410D01*
X183468662Y-81713584D01*
X183450713Y-81543787D01*
X183388693Y-81463723D01*
X183278091Y-81497533D01*
X183272336Y-81532936D01*
X182796681Y-81532936D01*
X182969235Y-81140635D01*
X183232445Y-80479422D01*
X185088001Y-80479422D01*
X185127565Y-80575656D01*
X185162715Y-80661152D01*
X185241049Y-80656947D01*
X185349104Y-80469555D01*
X185300660Y-80229619D01*
X185537367Y-80229619D01*
X185666833Y-80264310D01*
X185701524Y-80134843D01*
X185572057Y-80100153D01*
X185537367Y-80229619D01*
X185300660Y-80229619D01*
X185291071Y-80182126D01*
X185222876Y-80130939D01*
X185111035Y-80318901D01*
X185088001Y-80479422D01*
X183232445Y-80479422D01*
X183326425Y-80243334D01*
X183500970Y-79737149D01*
X185253039Y-79737149D01*
X185382505Y-79771839D01*
X185417196Y-79642373D01*
X185287729Y-79607681D01*
X185253039Y-79737149D01*
X183500970Y-79737149D01*
X183580863Y-79505457D01*
X184509407Y-79505457D01*
X184641531Y-79688930D01*
X184705734Y-79686104D01*
X184687784Y-79516308D01*
X184625763Y-79436244D01*
X184515163Y-79470054D01*
X184509407Y-79505457D01*
X183580863Y-79505457D01*
X183583746Y-79497096D01*
X183649146Y-79288878D01*
X183780123Y-78892814D01*
X184812326Y-78892814D01*
X184944449Y-79076288D01*
X185008652Y-79073462D01*
X184990703Y-78903665D01*
X184928682Y-78823601D01*
X184818081Y-78857411D01*
X184812326Y-78892814D01*
X183780123Y-78892814D01*
X183827069Y-78750851D01*
X184042880Y-78119111D01*
X184182751Y-77616467D01*
X184260612Y-77200453D01*
X184710746Y-77200453D01*
X184842868Y-77383927D01*
X184907071Y-77381102D01*
X184889122Y-77211305D01*
X184827101Y-77131240D01*
X184716500Y-77165050D01*
X184710746Y-77200453D01*
X184260612Y-77200453D01*
X184340267Y-76774855D01*
X184389285Y-76384500D01*
X184933065Y-76384500D01*
X184934254Y-76421432D01*
X184978857Y-76837662D01*
X185057237Y-77025080D01*
X185060046Y-77025635D01*
X185113002Y-76879484D01*
X185112422Y-76530386D01*
X185068081Y-76143595D01*
X184989756Y-75884367D01*
X184982525Y-75876269D01*
X184941091Y-76002471D01*
X184933065Y-76384500D01*
X184389285Y-76384500D01*
X184458445Y-75833746D01*
X184526304Y-74910474D01*
X184532859Y-74122378D01*
X184467129Y-73586791D01*
X184329679Y-73230902D01*
X183936726Y-72661771D01*
X183445197Y-72286562D01*
X182949825Y-72192339D01*
X182446612Y-72273690D01*
X182463174Y-72084343D01*
X182585698Y-72084343D01*
X182715165Y-72119034D01*
X182749855Y-71989567D01*
X182620388Y-71954876D01*
X182585698Y-72084343D01*
X182463174Y-72084343D01*
X182502044Y-71639973D01*
X182486052Y-71164969D01*
X182372338Y-70846339D01*
X182208803Y-70764810D01*
X182127066Y-70876669D01*
X182044359Y-70989856D01*
X182004404Y-71174594D01*
X182077127Y-71393024D01*
X182127360Y-71473461D01*
X182140145Y-71493932D01*
X182105024Y-71809354D01*
X182070263Y-71896919D01*
X181964632Y-71998926D01*
X181843418Y-71746238D01*
X181826121Y-71698082D01*
X181771128Y-71617267D01*
X181878280Y-71617267D01*
X182007746Y-71651958D01*
X182042437Y-71522491D01*
X181912970Y-71487800D01*
X181878280Y-71617267D01*
X181771128Y-71617267D01*
X181678712Y-71481458D01*
X181481241Y-71608080D01*
X181423896Y-71671652D01*
X181342816Y-71703824D01*
X181438644Y-71424454D01*
X181537325Y-71120055D01*
X181536135Y-70929878D01*
X181484692Y-70893967D01*
X181630229Y-70893967D01*
X181652839Y-71100425D01*
X181688835Y-71160518D01*
X181835132Y-71301256D01*
X181887113Y-71080101D01*
X181880568Y-71018984D01*
X181704087Y-70867084D01*
X181630229Y-70893967D01*
X181484692Y-70893967D01*
X181460075Y-70876783D01*
X181420617Y-70744605D01*
X181698022Y-70736396D01*
X181848489Y-70749735D01*
X181989845Y-70642735D01*
X181807853Y-70344671D01*
X181774488Y-70290272D01*
X181895736Y-70257452D01*
X181952829Y-70276854D01*
X182198392Y-70465748D01*
X182215474Y-70490957D01*
X182408388Y-70545143D01*
X182416778Y-70540154D01*
X182464495Y-70452771D01*
X182453959Y-70430767D01*
X182474444Y-70164484D01*
X182564519Y-69698542D01*
X182631206Y-69138048D01*
X182526019Y-68851589D01*
X182261232Y-68879095D01*
X182222236Y-68967998D01*
X182370185Y-69199223D01*
X182426508Y-69250950D01*
X182518086Y-69371018D01*
X182291163Y-69299565D01*
X182202331Y-69265555D01*
X182069127Y-69249482D01*
X182241390Y-69437740D01*
X182409661Y-69601646D01*
X182400650Y-69649512D01*
X182085652Y-69527655D01*
X181755719Y-69436350D01*
X181439957Y-69452747D01*
X181357013Y-69476709D01*
X181164396Y-69338247D01*
X181121021Y-69261675D01*
X180895740Y-69229709D01*
X180812400Y-69197052D01*
X180884185Y-68925962D01*
X180925506Y-68765962D01*
X181171188Y-68765962D01*
X181190013Y-69126395D01*
X181309546Y-69356649D01*
X181399798Y-69310747D01*
X181418786Y-68902404D01*
X181415649Y-68826586D01*
X181365823Y-68573400D01*
X181237145Y-68636107D01*
X181171188Y-68765962D01*
X180925506Y-68765962D01*
X180957331Y-68642729D01*
X180875957Y-68457823D01*
X180719798Y-68514642D01*
X180521110Y-68808956D01*
X180494236Y-68872707D01*
X180458912Y-68904285D01*
X180532339Y-68617448D01*
X180606850Y-68098552D01*
X180598348Y-68044014D01*
X180836631Y-68044014D01*
X180858132Y-68118164D01*
X181076088Y-68333544D01*
X181371838Y-68389713D01*
X181566179Y-68238823D01*
X181572519Y-68221251D01*
X181602745Y-68289427D01*
X181601852Y-68437128D01*
X181600636Y-68638313D01*
X181622575Y-68959528D01*
X181753276Y-69216057D01*
X181926109Y-69189669D01*
X182057425Y-68842899D01*
X182076180Y-68718209D01*
X182074540Y-68557805D01*
X181959447Y-68725016D01*
X181909181Y-68811201D01*
X181832872Y-68878472D01*
X181861396Y-68607552D01*
X181855157Y-68360802D01*
X181714502Y-68052812D01*
X181499917Y-67909014D01*
X181305841Y-68027940D01*
X181233411Y-68124218D01*
X181191234Y-67987915D01*
X181241561Y-67863700D01*
X182008296Y-67863700D01*
X182026808Y-68235776D01*
X182269774Y-68600568D01*
X182334259Y-68652673D01*
X182532820Y-68698344D01*
X182672892Y-68458380D01*
X182788356Y-67886104D01*
X182854533Y-67347987D01*
X182862202Y-66956914D01*
X182799073Y-66865239D01*
X182670827Y-67110469D01*
X182514461Y-67385181D01*
X182205058Y-67643943D01*
X182008296Y-67863700D01*
X181241561Y-67863700D01*
X181269439Y-67794891D01*
X181584698Y-67781650D01*
X181689393Y-67797109D01*
X181853617Y-67781100D01*
X181688412Y-67611592D01*
X181558878Y-67472791D01*
X181611489Y-67385980D01*
X181674390Y-67377717D01*
X181822605Y-67181145D01*
X181814348Y-67116179D01*
X181617956Y-66963845D01*
X181544545Y-66975705D01*
X181400194Y-67183883D01*
X181353444Y-67325399D01*
X181092343Y-67584068D01*
X180941669Y-67717463D01*
X180836631Y-68044014D01*
X180598348Y-68044014D01*
X180541872Y-67681721D01*
X180472624Y-67469496D01*
X180516447Y-67259933D01*
X180554224Y-67210659D01*
X180425781Y-67056207D01*
X180330013Y-66969487D01*
X180500400Y-66884468D01*
X180528911Y-66878006D01*
X180712417Y-66719886D01*
X181799874Y-66719886D01*
X181838602Y-66865605D01*
X181910799Y-66923602D01*
X181928730Y-67050140D01*
X181950933Y-67206818D01*
X181960182Y-67393029D01*
X182191379Y-67458159D01*
X182350059Y-67385822D01*
X182539889Y-67076641D01*
X182610888Y-66896832D01*
X182883282Y-66695935D01*
X182964914Y-66671711D01*
X183063626Y-66454251D01*
X182869719Y-66078857D01*
X182881285Y-66001007D01*
X183119402Y-65860472D01*
X183298375Y-65769498D01*
X183597803Y-65464751D01*
X183625479Y-65382540D01*
X183485201Y-65364444D01*
X183056740Y-65577770D01*
X182834926Y-65715311D01*
X182368612Y-66070124D01*
X182000069Y-66429854D01*
X181799874Y-66719886D01*
X180712417Y-66719886D01*
X180751181Y-66686485D01*
X180891332Y-66360147D01*
X180908684Y-66050408D01*
X180762557Y-65908688D01*
X180508163Y-65786041D01*
X180370136Y-65535106D01*
X180449314Y-65328808D01*
X180510209Y-65306803D01*
X180616942Y-65435780D01*
X180644124Y-65529298D01*
X180887731Y-65642846D01*
X181001802Y-65633948D01*
X180972021Y-65580247D01*
X180962188Y-65576209D01*
X180901408Y-65363215D01*
X181000282Y-64965764D01*
X181107404Y-64514185D01*
X180987864Y-64033775D01*
X180583103Y-63763208D01*
X180396130Y-63728706D01*
X180112677Y-63784819D01*
X180104508Y-63995749D01*
X180175888Y-64055228D01*
X180445519Y-64017742D01*
X180569057Y-63970301D01*
X180783556Y-64034584D01*
X180793388Y-64115993D01*
X180597291Y-64237662D01*
X180469334Y-64315322D01*
X180310043Y-64662676D01*
X180245636Y-65154900D01*
X180288227Y-65647449D01*
X180449933Y-65995773D01*
X180585904Y-66182858D01*
X180622668Y-66445240D01*
X180536180Y-66494434D01*
X180345049Y-66332147D01*
X180300215Y-66271488D01*
X180210698Y-66315628D01*
X180205601Y-66728053D01*
X180209758Y-66822097D01*
X180178237Y-67278651D01*
X180074142Y-67518651D01*
X180036117Y-67581617D01*
X180238288Y-67639405D01*
X180444469Y-67675473D01*
X180362964Y-67782947D01*
X180288815Y-67849581D01*
X180343513Y-68013897D01*
X180403113Y-68074592D01*
X180254952Y-68163053D01*
X180116332Y-68278579D01*
X180045868Y-68657264D01*
X180108227Y-69183532D01*
X180300030Y-69739138D01*
X180371238Y-69959914D01*
X180306763Y-70094773D01*
X180207609Y-70040143D01*
X180072278Y-69752845D01*
X180062836Y-69713842D01*
X179998117Y-69699553D01*
X179935306Y-70003093D01*
X179934133Y-70013176D01*
X179917582Y-70449660D01*
X179971514Y-70685658D01*
X179985882Y-70738994D01*
X179790775Y-70826411D01*
X179603684Y-70960567D01*
X179488439Y-71337156D01*
X179436851Y-71656284D01*
X179291330Y-71907024D01*
X179261132Y-71933597D01*
X179043848Y-72208327D01*
X178678645Y-72723217D01*
X178208120Y-73417080D01*
X177674874Y-74228733D01*
X176413030Y-76105051D01*
X174489534Y-78748376D01*
X172408259Y-81392238D01*
X170229337Y-83966298D01*
X168012897Y-86400219D01*
X165819069Y-88623662D01*
X163707988Y-90566293D01*
X163063656Y-91110231D01*
X162413096Y-91618086D01*
X161710944Y-92115634D01*
X160886701Y-92650481D01*
X159869871Y-93270235D01*
X158589959Y-94022503D01*
X157252977Y-94790935D01*
X155608139Y-95702935D01*
X154211173Y-96431439D01*
X153024919Y-96995608D01*
X152012223Y-97414605D01*
X151590840Y-97574340D01*
X150938041Y-97823470D01*
X150218696Y-98099171D01*
X149893621Y-98222505D01*
X148450011Y-98744016D01*
X146801673Y-99305937D01*
X145077520Y-99865136D01*
X143406472Y-100378477D01*
X142735065Y-100579642D01*
X141873372Y-100856473D01*
X141292011Y-101094743D01*
X140938379Y-101335716D01*
X140759868Y-101620654D01*
X140703873Y-101990821D01*
X139502017Y-101990821D01*
X139503262Y-101874592D01*
X139468213Y-101468866D01*
X139456057Y-101249855D01*
X139584874Y-100872465D01*
X139777867Y-100761131D01*
X140284551Y-100553188D01*
X141037571Y-100279802D01*
X141974751Y-99963435D01*
X143033911Y-99626549D01*
X144070924Y-99300594D01*
X146826307Y-98379918D01*
X149473049Y-97417459D01*
X151967164Y-96431860D01*
X154264663Y-95441770D01*
X156321558Y-94465831D01*
X158093860Y-93522693D01*
X159537582Y-92630998D01*
X160412321Y-92019247D01*
X162458601Y-90448480D01*
X164500286Y-88677404D01*
X166567417Y-86676075D01*
X168690036Y-84414550D01*
X170898183Y-81862887D01*
X173221899Y-78991139D01*
X173810736Y-78229200D01*
X174808404Y-76881710D01*
X175766159Y-75521868D01*
X176650993Y-74200916D01*
X177429892Y-72970098D01*
X178069848Y-71880657D01*
X178537848Y-70983834D01*
X178800882Y-70330875D01*
X178902867Y-69939602D01*
X179129480Y-68622468D01*
X179252866Y-67131534D01*
X179269911Y-65600508D01*
X179177507Y-64163095D01*
X178972540Y-62953002D01*
X178969439Y-62918879D01*
X179130985Y-62655181D01*
X179534174Y-62356368D01*
X180116651Y-62067585D01*
X181265924Y-61754482D01*
X182373629Y-61775475D01*
X183385191Y-62125432D01*
X183770648Y-62427134D01*
X184246032Y-62799223D01*
X184369334Y-62935397D01*
X184867555Y-63584836D01*
X185072868Y-64138157D01*
X185016721Y-64579306D01*
X185001928Y-64695532D01*
X184671393Y-65357127D01*
X184316900Y-66117044D01*
X184128464Y-66520987D01*
X183730678Y-67986808D01*
X183510988Y-69659521D01*
X183490396Y-69979553D01*
X183487344Y-70645129D01*
X183599097Y-71108689D01*
X183794625Y-71386369D01*
X183872751Y-71497320D01*
X184355403Y-71938107D01*
X184909853Y-72492199D01*
X185680789Y-73652720D01*
X186249608Y-75063420D01*
X186268146Y-75146288D01*
X186519518Y-76269995D01*
X186610466Y-76676560D01*
X186713003Y-77909295D01*
X186747745Y-78326989D01*
X186757512Y-78444401D01*
X186740708Y-78878242D01*
X186722210Y-79355858D01*
X186714694Y-79549889D01*
X186697352Y-79997654D01*
X186684898Y-80319202D01*
X186589950Y-80935167D01*
X186515881Y-81415682D01*
X186462515Y-81761891D01*
X186449714Y-81844938D01*
X186386778Y-82253225D01*
X186350453Y-82386696D01*
X186138436Y-83165733D01*
X185997092Y-83685090D01*
X185926419Y-83944770D01*
X185857303Y-84198729D01*
X185749105Y-84511694D01*
X185741302Y-84534265D01*
X185517147Y-85056567D01*
X185399641Y-85330368D01*
X185267395Y-85638513D01*
X185142520Y-85929486D01*
X185017644Y-86220459D01*
X184892767Y-86511434D01*
X184764381Y-86810585D01*
X184219797Y-87775477D01*
X183853308Y-88424822D01*
X183454762Y-89130962D01*
X182530493Y-90465327D01*
X182235743Y-90890856D01*
X182037003Y-91177776D01*
X181843707Y-91456837D01*
X181690749Y-91643260D01*
G37*
M02*
