G04 #@! TF.GenerationSoftware,KiCad,Pcbnew,(6.0.10)*
G04 #@! TF.CreationDate,2023-07-12T01:57:19+10:00*
G04 #@! TF.ProjectId,DAC,4441432e-6b69-4636-9164-5f7063625858,rev?*
G04 #@! TF.SameCoordinates,Original*
G04 #@! TF.FileFunction,Legend,Top*
G04 #@! TF.FilePolarity,Positive*
%FSLAX46Y46*%
G04 Gerber Fmt 4.6, Leading zero omitted, Abs format (unit mm)*
G04 Created by KiCad (PCBNEW (6.0.10)) date 2023-07-12 01:57:19*
%MOMM*%
%LPD*%
G01*
G04 APERTURE LIST*
%ADD10C,0.150000*%
%ADD11C,0.120000*%
%ADD12C,0.152400*%
G04 APERTURE END LIST*
D10*
X175276142Y-69381666D02*
X175323761Y-69429285D01*
X175371380Y-69572142D01*
X175371380Y-69667380D01*
X175323761Y-69810238D01*
X175228523Y-69905476D01*
X175133285Y-69953095D01*
X174942809Y-70000714D01*
X174799952Y-70000714D01*
X174609476Y-69953095D01*
X174514238Y-69905476D01*
X174419000Y-69810238D01*
X174371380Y-69667380D01*
X174371380Y-69572142D01*
X174419000Y-69429285D01*
X174466619Y-69381666D01*
X174704714Y-68524523D02*
X175371380Y-68524523D01*
X174323761Y-68762619D02*
X175038047Y-69000714D01*
X175038047Y-68381666D01*
X165608095Y-77557380D02*
X165608095Y-78366904D01*
X165655714Y-78462142D01*
X165703333Y-78509761D01*
X165798571Y-78557380D01*
X165989047Y-78557380D01*
X166084285Y-78509761D01*
X166131904Y-78462142D01*
X166179523Y-78366904D01*
X166179523Y-77557380D01*
X167179523Y-78557380D02*
X166608095Y-78557380D01*
X166893809Y-78557380D02*
X166893809Y-77557380D01*
X166798571Y-77700238D01*
X166703333Y-77795476D01*
X166608095Y-77843095D01*
X162483800Y-71757580D02*
X162483800Y-71995676D01*
X162245704Y-71900438D02*
X162483800Y-71995676D01*
X162721895Y-71900438D01*
X162340942Y-72186152D02*
X162483800Y-71995676D01*
X162626657Y-72186152D01*
X146248380Y-94527666D02*
X145772190Y-94861000D01*
X146248380Y-95099095D02*
X145248380Y-95099095D01*
X145248380Y-94718142D01*
X145296000Y-94622904D01*
X145343619Y-94575285D01*
X145438857Y-94527666D01*
X145581714Y-94527666D01*
X145676952Y-94575285D01*
X145724571Y-94622904D01*
X145772190Y-94718142D01*
X145772190Y-95099095D01*
X145248380Y-94194333D02*
X145248380Y-93575285D01*
X145629333Y-93908619D01*
X145629333Y-93765761D01*
X145676952Y-93670523D01*
X145724571Y-93622904D01*
X145819809Y-93575285D01*
X146057904Y-93575285D01*
X146153142Y-93622904D01*
X146200761Y-93670523D01*
X146248380Y-93765761D01*
X146248380Y-94051476D01*
X146200761Y-94146714D01*
X146153142Y-94194333D01*
X136993333Y-99758142D02*
X136945714Y-99805761D01*
X136802857Y-99853380D01*
X136707619Y-99853380D01*
X136564761Y-99805761D01*
X136469523Y-99710523D01*
X136421904Y-99615285D01*
X136374285Y-99424809D01*
X136374285Y-99281952D01*
X136421904Y-99091476D01*
X136469523Y-98996238D01*
X136564761Y-98901000D01*
X136707619Y-98853380D01*
X136802857Y-98853380D01*
X136945714Y-98901000D01*
X136993333Y-98948619D01*
X137326666Y-98853380D02*
X137945714Y-98853380D01*
X137612380Y-99234333D01*
X137755238Y-99234333D01*
X137850476Y-99281952D01*
X137898095Y-99329571D01*
X137945714Y-99424809D01*
X137945714Y-99662904D01*
X137898095Y-99758142D01*
X137850476Y-99805761D01*
X137755238Y-99853380D01*
X137469523Y-99853380D01*
X137374285Y-99805761D01*
X137326666Y-99758142D01*
X188539380Y-96051666D02*
X188063190Y-96385000D01*
X188539380Y-96623095D02*
X187539380Y-96623095D01*
X187539380Y-96242142D01*
X187587000Y-96146904D01*
X187634619Y-96099285D01*
X187729857Y-96051666D01*
X187872714Y-96051666D01*
X187967952Y-96099285D01*
X188015571Y-96146904D01*
X188063190Y-96242142D01*
X188063190Y-96623095D01*
X187539380Y-95718333D02*
X187539380Y-95051666D01*
X188539380Y-95480238D01*
X149423380Y-94527666D02*
X148947190Y-94861000D01*
X149423380Y-95099095D02*
X148423380Y-95099095D01*
X148423380Y-94718142D01*
X148471000Y-94622904D01*
X148518619Y-94575285D01*
X148613857Y-94527666D01*
X148756714Y-94527666D01*
X148851952Y-94575285D01*
X148899571Y-94622904D01*
X148947190Y-94718142D01*
X148947190Y-95099095D01*
X148756714Y-93670523D02*
X149423380Y-93670523D01*
X148375761Y-93908619D02*
X149090047Y-94146714D01*
X149090047Y-93527666D01*
X183729333Y-78716142D02*
X183681714Y-78763761D01*
X183538857Y-78811380D01*
X183443619Y-78811380D01*
X183300761Y-78763761D01*
X183205523Y-78668523D01*
X183157904Y-78573285D01*
X183110285Y-78382809D01*
X183110285Y-78239952D01*
X183157904Y-78049476D01*
X183205523Y-77954238D01*
X183300761Y-77859000D01*
X183443619Y-77811380D01*
X183538857Y-77811380D01*
X183681714Y-77859000D01*
X183729333Y-77906619D01*
X184205523Y-78811380D02*
X184396000Y-78811380D01*
X184491238Y-78763761D01*
X184538857Y-78716142D01*
X184634095Y-78573285D01*
X184681714Y-78382809D01*
X184681714Y-78001857D01*
X184634095Y-77906619D01*
X184586476Y-77859000D01*
X184491238Y-77811380D01*
X184300761Y-77811380D01*
X184205523Y-77859000D01*
X184157904Y-77906619D01*
X184110285Y-78001857D01*
X184110285Y-78239952D01*
X184157904Y-78335190D01*
X184205523Y-78382809D01*
X184300761Y-78430428D01*
X184491238Y-78430428D01*
X184586476Y-78382809D01*
X184634095Y-78335190D01*
X184681714Y-78239952D01*
X172283380Y-110402666D02*
X171807190Y-110736000D01*
X172283380Y-110974095D02*
X171283380Y-110974095D01*
X171283380Y-110593142D01*
X171331000Y-110497904D01*
X171378619Y-110450285D01*
X171473857Y-110402666D01*
X171616714Y-110402666D01*
X171711952Y-110450285D01*
X171759571Y-110497904D01*
X171807190Y-110593142D01*
X171807190Y-110974095D01*
X171711952Y-109831238D02*
X171664333Y-109926476D01*
X171616714Y-109974095D01*
X171521476Y-110021714D01*
X171473857Y-110021714D01*
X171378619Y-109974095D01*
X171331000Y-109926476D01*
X171283380Y-109831238D01*
X171283380Y-109640761D01*
X171331000Y-109545523D01*
X171378619Y-109497904D01*
X171473857Y-109450285D01*
X171521476Y-109450285D01*
X171616714Y-109497904D01*
X171664333Y-109545523D01*
X171711952Y-109640761D01*
X171711952Y-109831238D01*
X171759571Y-109926476D01*
X171807190Y-109974095D01*
X171902428Y-110021714D01*
X172092904Y-110021714D01*
X172188142Y-109974095D01*
X172235761Y-109926476D01*
X172283380Y-109831238D01*
X172283380Y-109640761D01*
X172235761Y-109545523D01*
X172188142Y-109497904D01*
X172092904Y-109450285D01*
X171902428Y-109450285D01*
X171807190Y-109497904D01*
X171759571Y-109545523D01*
X171711952Y-109640761D01*
X156694142Y-95130857D02*
X156741761Y-95178476D01*
X156789380Y-95321333D01*
X156789380Y-95416571D01*
X156741761Y-95559428D01*
X156646523Y-95654666D01*
X156551285Y-95702285D01*
X156360809Y-95749904D01*
X156217952Y-95749904D01*
X156027476Y-95702285D01*
X155932238Y-95654666D01*
X155837000Y-95559428D01*
X155789380Y-95416571D01*
X155789380Y-95321333D01*
X155837000Y-95178476D01*
X155884619Y-95130857D01*
X156789380Y-94178476D02*
X156789380Y-94749904D01*
X156789380Y-94464190D02*
X155789380Y-94464190D01*
X155932238Y-94559428D01*
X156027476Y-94654666D01*
X156075095Y-94749904D01*
X155884619Y-93797523D02*
X155837000Y-93749904D01*
X155789380Y-93654666D01*
X155789380Y-93416571D01*
X155837000Y-93321333D01*
X155884619Y-93273714D01*
X155979857Y-93226095D01*
X156075095Y-93226095D01*
X156217952Y-93273714D01*
X156789380Y-93845142D01*
X156789380Y-93226095D01*
X189651142Y-85034357D02*
X189698761Y-85081976D01*
X189746380Y-85224833D01*
X189746380Y-85320071D01*
X189698761Y-85462928D01*
X189603523Y-85558166D01*
X189508285Y-85605785D01*
X189317809Y-85653404D01*
X189174952Y-85653404D01*
X188984476Y-85605785D01*
X188889238Y-85558166D01*
X188794000Y-85462928D01*
X188746380Y-85320071D01*
X188746380Y-85224833D01*
X188794000Y-85081976D01*
X188841619Y-85034357D01*
X189746380Y-84081976D02*
X189746380Y-84653404D01*
X189746380Y-84367690D02*
X188746380Y-84367690D01*
X188889238Y-84462928D01*
X188984476Y-84558166D01*
X189032095Y-84653404D01*
X188746380Y-83748642D02*
X188746380Y-83129595D01*
X189127333Y-83462928D01*
X189127333Y-83320071D01*
X189174952Y-83224833D01*
X189222571Y-83177214D01*
X189317809Y-83129595D01*
X189555904Y-83129595D01*
X189651142Y-83177214D01*
X189698761Y-83224833D01*
X189746380Y-83320071D01*
X189746380Y-83605785D01*
X189698761Y-83701023D01*
X189651142Y-83748642D01*
X183459333Y-66334142D02*
X183411714Y-66381761D01*
X183268857Y-66429380D01*
X183173619Y-66429380D01*
X183030761Y-66381761D01*
X182935523Y-66286523D01*
X182887904Y-66191285D01*
X182840285Y-66000809D01*
X182840285Y-65857952D01*
X182887904Y-65667476D01*
X182935523Y-65572238D01*
X183030761Y-65477000D01*
X183173619Y-65429380D01*
X183268857Y-65429380D01*
X183411714Y-65477000D01*
X183459333Y-65524619D01*
X184030761Y-65857952D02*
X183935523Y-65810333D01*
X183887904Y-65762714D01*
X183840285Y-65667476D01*
X183840285Y-65619857D01*
X183887904Y-65524619D01*
X183935523Y-65477000D01*
X184030761Y-65429380D01*
X184221238Y-65429380D01*
X184316476Y-65477000D01*
X184364095Y-65524619D01*
X184411714Y-65619857D01*
X184411714Y-65667476D01*
X184364095Y-65762714D01*
X184316476Y-65810333D01*
X184221238Y-65857952D01*
X184030761Y-65857952D01*
X183935523Y-65905571D01*
X183887904Y-65953190D01*
X183840285Y-66048428D01*
X183840285Y-66238904D01*
X183887904Y-66334142D01*
X183935523Y-66381761D01*
X184030761Y-66429380D01*
X184221238Y-66429380D01*
X184316476Y-66381761D01*
X184364095Y-66334142D01*
X184411714Y-66238904D01*
X184411714Y-66048428D01*
X184364095Y-65953190D01*
X184316476Y-65905571D01*
X184221238Y-65857952D01*
X166203333Y-69794380D02*
X165870000Y-69318190D01*
X165631904Y-69794380D02*
X165631904Y-68794380D01*
X166012857Y-68794380D01*
X166108095Y-68842000D01*
X166155714Y-68889619D01*
X166203333Y-68984857D01*
X166203333Y-69127714D01*
X166155714Y-69222952D01*
X166108095Y-69270571D01*
X166012857Y-69318190D01*
X165631904Y-69318190D01*
X167155714Y-69794380D02*
X166584285Y-69794380D01*
X166870000Y-69794380D02*
X166870000Y-68794380D01*
X166774761Y-68937238D01*
X166679523Y-69032476D01*
X166584285Y-69080095D01*
X175962333Y-61103142D02*
X175914714Y-61150761D01*
X175771857Y-61198380D01*
X175676619Y-61198380D01*
X175533761Y-61150761D01*
X175438523Y-61055523D01*
X175390904Y-60960285D01*
X175343285Y-60769809D01*
X175343285Y-60626952D01*
X175390904Y-60436476D01*
X175438523Y-60341238D01*
X175533761Y-60246000D01*
X175676619Y-60198380D01*
X175771857Y-60198380D01*
X175914714Y-60246000D01*
X175962333Y-60293619D01*
X176343285Y-60293619D02*
X176390904Y-60246000D01*
X176486142Y-60198380D01*
X176724238Y-60198380D01*
X176819476Y-60246000D01*
X176867095Y-60293619D01*
X176914714Y-60388857D01*
X176914714Y-60484095D01*
X176867095Y-60626952D01*
X176295666Y-61198380D01*
X176914714Y-61198380D01*
X183729333Y-74144142D02*
X183681714Y-74191761D01*
X183538857Y-74239380D01*
X183443619Y-74239380D01*
X183300761Y-74191761D01*
X183205523Y-74096523D01*
X183157904Y-74001285D01*
X183110285Y-73810809D01*
X183110285Y-73667952D01*
X183157904Y-73477476D01*
X183205523Y-73382238D01*
X183300761Y-73287000D01*
X183443619Y-73239380D01*
X183538857Y-73239380D01*
X183681714Y-73287000D01*
X183729333Y-73334619D01*
X184634095Y-73239380D02*
X184157904Y-73239380D01*
X184110285Y-73715571D01*
X184157904Y-73667952D01*
X184253142Y-73620333D01*
X184491238Y-73620333D01*
X184586476Y-73667952D01*
X184634095Y-73715571D01*
X184681714Y-73810809D01*
X184681714Y-74048904D01*
X184634095Y-74144142D01*
X184586476Y-74191761D01*
X184491238Y-74239380D01*
X184253142Y-74239380D01*
X184157904Y-74191761D01*
X184110285Y-74144142D01*
X165550476Y-59173380D02*
X166217142Y-60173380D01*
X166217142Y-59173380D02*
X165550476Y-60173380D01*
X167121904Y-60173380D02*
X166550476Y-60173380D01*
X166836190Y-60173380D02*
X166836190Y-59173380D01*
X166740952Y-59316238D01*
X166645714Y-59411476D01*
X166550476Y-59459095D01*
X170013333Y-86082142D02*
X169965714Y-86129761D01*
X169822857Y-86177380D01*
X169727619Y-86177380D01*
X169584761Y-86129761D01*
X169489523Y-86034523D01*
X169441904Y-85939285D01*
X169394285Y-85748809D01*
X169394285Y-85605952D01*
X169441904Y-85415476D01*
X169489523Y-85320238D01*
X169584761Y-85225000D01*
X169727619Y-85177380D01*
X169822857Y-85177380D01*
X169965714Y-85225000D01*
X170013333Y-85272619D01*
X170870476Y-85177380D02*
X170680000Y-85177380D01*
X170584761Y-85225000D01*
X170537142Y-85272619D01*
X170441904Y-85415476D01*
X170394285Y-85605952D01*
X170394285Y-85986904D01*
X170441904Y-86082142D01*
X170489523Y-86129761D01*
X170584761Y-86177380D01*
X170775238Y-86177380D01*
X170870476Y-86129761D01*
X170918095Y-86082142D01*
X170965714Y-85986904D01*
X170965714Y-85748809D01*
X170918095Y-85653571D01*
X170870476Y-85605952D01*
X170775238Y-85558333D01*
X170584761Y-85558333D01*
X170489523Y-85605952D01*
X170441904Y-85653571D01*
X170394285Y-85748809D01*
X168854380Y-110402666D02*
X168378190Y-110736000D01*
X168854380Y-110974095D02*
X167854380Y-110974095D01*
X167854380Y-110593142D01*
X167902000Y-110497904D01*
X167949619Y-110450285D01*
X168044857Y-110402666D01*
X168187714Y-110402666D01*
X168282952Y-110450285D01*
X168330571Y-110497904D01*
X168378190Y-110593142D01*
X168378190Y-110974095D01*
X167854380Y-109545523D02*
X167854380Y-109736000D01*
X167902000Y-109831238D01*
X167949619Y-109878857D01*
X168092476Y-109974095D01*
X168282952Y-110021714D01*
X168663904Y-110021714D01*
X168759142Y-109974095D01*
X168806761Y-109926476D01*
X168854380Y-109831238D01*
X168854380Y-109640761D01*
X168806761Y-109545523D01*
X168759142Y-109497904D01*
X168663904Y-109450285D01*
X168425809Y-109450285D01*
X168330571Y-109497904D01*
X168282952Y-109545523D01*
X168235333Y-109640761D01*
X168235333Y-109831238D01*
X168282952Y-109926476D01*
X168330571Y-109974095D01*
X168425809Y-110021714D01*
X142200333Y-83637380D02*
X141867000Y-83161190D01*
X141628904Y-83637380D02*
X141628904Y-82637380D01*
X142009857Y-82637380D01*
X142105095Y-82685000D01*
X142152714Y-82732619D01*
X142200333Y-82827857D01*
X142200333Y-82970714D01*
X142152714Y-83065952D01*
X142105095Y-83113571D01*
X142009857Y-83161190D01*
X141628904Y-83161190D01*
X142581285Y-82732619D02*
X142628904Y-82685000D01*
X142724142Y-82637380D01*
X142962238Y-82637380D01*
X143057476Y-82685000D01*
X143105095Y-82732619D01*
X143152714Y-82827857D01*
X143152714Y-82923095D01*
X143105095Y-83065952D01*
X142533666Y-83637380D01*
X143152714Y-83637380D01*
X160853380Y-110878857D02*
X160377190Y-111212190D01*
X160853380Y-111450285D02*
X159853380Y-111450285D01*
X159853380Y-111069333D01*
X159901000Y-110974095D01*
X159948619Y-110926476D01*
X160043857Y-110878857D01*
X160186714Y-110878857D01*
X160281952Y-110926476D01*
X160329571Y-110974095D01*
X160377190Y-111069333D01*
X160377190Y-111450285D01*
X160853380Y-109926476D02*
X160853380Y-110497904D01*
X160853380Y-110212190D02*
X159853380Y-110212190D01*
X159996238Y-110307428D01*
X160091476Y-110402666D01*
X160139095Y-110497904D01*
X160853380Y-108974095D02*
X160853380Y-109545523D01*
X160853380Y-109259809D02*
X159853380Y-109259809D01*
X159996238Y-109355047D01*
X160091476Y-109450285D01*
X160139095Y-109545523D01*
X177919142Y-90019142D02*
X177871523Y-90066761D01*
X177728666Y-90114380D01*
X177633428Y-90114380D01*
X177490571Y-90066761D01*
X177395333Y-89971523D01*
X177347714Y-89876285D01*
X177300095Y-89685809D01*
X177300095Y-89542952D01*
X177347714Y-89352476D01*
X177395333Y-89257238D01*
X177490571Y-89162000D01*
X177633428Y-89114380D01*
X177728666Y-89114380D01*
X177871523Y-89162000D01*
X177919142Y-89209619D01*
X178871523Y-90114380D02*
X178300095Y-90114380D01*
X178585809Y-90114380D02*
X178585809Y-89114380D01*
X178490571Y-89257238D01*
X178395333Y-89352476D01*
X178300095Y-89400095D01*
X179728666Y-89447714D02*
X179728666Y-90114380D01*
X179490571Y-89066761D02*
X179252476Y-89781047D01*
X179871523Y-89781047D01*
X156404333Y-61103142D02*
X156356714Y-61150761D01*
X156213857Y-61198380D01*
X156118619Y-61198380D01*
X155975761Y-61150761D01*
X155880523Y-61055523D01*
X155832904Y-60960285D01*
X155785285Y-60769809D01*
X155785285Y-60626952D01*
X155832904Y-60436476D01*
X155880523Y-60341238D01*
X155975761Y-60246000D01*
X156118619Y-60198380D01*
X156213857Y-60198380D01*
X156356714Y-60246000D01*
X156404333Y-60293619D01*
X157356714Y-61198380D02*
X156785285Y-61198380D01*
X157071000Y-61198380D02*
X157071000Y-60198380D01*
X156975761Y-60341238D01*
X156880523Y-60436476D01*
X156785285Y-60484095D01*
X195201333Y-116108119D02*
X195201333Y-115393833D01*
X195248952Y-115250976D01*
X195344190Y-115155738D01*
X195487047Y-115108119D01*
X195582285Y-115108119D01*
X194772761Y-116012880D02*
X194725142Y-116060500D01*
X194629904Y-116108119D01*
X194391809Y-116108119D01*
X194296571Y-116060500D01*
X194248952Y-116012880D01*
X194201333Y-115917642D01*
X194201333Y-115822404D01*
X194248952Y-115679547D01*
X194820380Y-115108119D01*
X194201333Y-115108119D01*
X193491809Y-105250119D02*
X192920380Y-105250119D01*
X193206095Y-104250119D02*
X193206095Y-105250119D01*
X192587047Y-104250119D02*
X192587047Y-105250119D01*
X192110857Y-104250119D02*
X192110857Y-105250119D01*
X191729904Y-105250119D01*
X191634666Y-105202500D01*
X191587047Y-105154880D01*
X191539428Y-105059642D01*
X191539428Y-104916785D01*
X191587047Y-104821547D01*
X191634666Y-104773928D01*
X191729904Y-104726309D01*
X192110857Y-104726309D01*
X192877523Y-107050119D02*
X193210857Y-107526309D01*
X193448952Y-107050119D02*
X193448952Y-108050119D01*
X193068000Y-108050119D01*
X192972761Y-108002500D01*
X192925142Y-107954880D01*
X192877523Y-107859642D01*
X192877523Y-107716785D01*
X192925142Y-107621547D01*
X192972761Y-107573928D01*
X193068000Y-107526309D01*
X193448952Y-107526309D01*
X192448952Y-107050119D02*
X192448952Y-108050119D01*
X191972761Y-107050119D02*
X191972761Y-108050119D01*
X191401333Y-107050119D01*
X191401333Y-108050119D01*
X190401333Y-108002500D02*
X190496571Y-108050119D01*
X190639428Y-108050119D01*
X190782285Y-108002500D01*
X190877523Y-107907261D01*
X190925142Y-107812023D01*
X190972761Y-107621547D01*
X190972761Y-107478690D01*
X190925142Y-107288214D01*
X190877523Y-107192976D01*
X190782285Y-107097738D01*
X190639428Y-107050119D01*
X190544190Y-107050119D01*
X190401333Y-107097738D01*
X190353714Y-107145357D01*
X190353714Y-107478690D01*
X190544190Y-107478690D01*
X188639428Y-107050119D02*
X189210857Y-107050119D01*
X188925142Y-107050119D02*
X188925142Y-108050119D01*
X189020380Y-107907261D01*
X189115619Y-107812023D01*
X189210857Y-107764404D01*
X192877523Y-109650119D02*
X193210857Y-110126309D01*
X193448952Y-109650119D02*
X193448952Y-110650119D01*
X193068000Y-110650119D01*
X192972761Y-110602500D01*
X192925142Y-110554880D01*
X192877523Y-110459642D01*
X192877523Y-110316785D01*
X192925142Y-110221547D01*
X192972761Y-110173928D01*
X193068000Y-110126309D01*
X193448952Y-110126309D01*
X192448952Y-109650119D02*
X192448952Y-110650119D01*
X191972761Y-109650119D02*
X191972761Y-110650119D01*
X191401333Y-109650119D01*
X191401333Y-110650119D01*
X190401333Y-110602500D02*
X190496571Y-110650119D01*
X190639428Y-110650119D01*
X190782285Y-110602500D01*
X190877523Y-110507261D01*
X190925142Y-110412023D01*
X190972761Y-110221547D01*
X190972761Y-110078690D01*
X190925142Y-109888214D01*
X190877523Y-109792976D01*
X190782285Y-109697738D01*
X190639428Y-109650119D01*
X190544190Y-109650119D01*
X190401333Y-109697738D01*
X190353714Y-109745357D01*
X190353714Y-110078690D01*
X190544190Y-110078690D01*
X189210857Y-110554880D02*
X189163238Y-110602500D01*
X189068000Y-110650119D01*
X188829904Y-110650119D01*
X188734666Y-110602500D01*
X188687047Y-110554880D01*
X188639428Y-110459642D01*
X188639428Y-110364404D01*
X188687047Y-110221547D01*
X189258476Y-109650119D01*
X188639428Y-109650119D01*
X193544190Y-112097738D02*
X193401333Y-112050119D01*
X193163238Y-112050119D01*
X193068000Y-112097738D01*
X193020380Y-112145357D01*
X192972761Y-112240595D01*
X192972761Y-112335833D01*
X193020380Y-112431071D01*
X193068000Y-112478690D01*
X193163238Y-112526309D01*
X193353714Y-112573928D01*
X193448952Y-112621547D01*
X193496571Y-112669166D01*
X193544190Y-112764404D01*
X193544190Y-112859642D01*
X193496571Y-112954880D01*
X193448952Y-113002500D01*
X193353714Y-113050119D01*
X193115619Y-113050119D01*
X192972761Y-113002500D01*
X192068000Y-112050119D02*
X192544190Y-112050119D01*
X192544190Y-113050119D01*
X191734666Y-112573928D02*
X191401333Y-112573928D01*
X191258476Y-112050119D02*
X191734666Y-112050119D01*
X191734666Y-113050119D01*
X191258476Y-113050119D01*
X190829904Y-112573928D02*
X190496571Y-112573928D01*
X190353714Y-112050119D02*
X190829904Y-112050119D01*
X190829904Y-113050119D01*
X190353714Y-113050119D01*
X190068000Y-113050119D02*
X189734666Y-112050119D01*
X189401333Y-113050119D01*
X189068000Y-112573928D02*
X188734666Y-112573928D01*
X188591809Y-112050119D02*
X189068000Y-112050119D01*
X189068000Y-113050119D01*
X188591809Y-113050119D01*
X142200333Y-75128380D02*
X141867000Y-74652190D01*
X141628904Y-75128380D02*
X141628904Y-74128380D01*
X142009857Y-74128380D01*
X142105095Y-74176000D01*
X142152714Y-74223619D01*
X142200333Y-74318857D01*
X142200333Y-74461714D01*
X142152714Y-74556952D01*
X142105095Y-74604571D01*
X142009857Y-74652190D01*
X141628904Y-74652190D01*
X142676523Y-75128380D02*
X142867000Y-75128380D01*
X142962238Y-75080761D01*
X143009857Y-75033142D01*
X143105095Y-74890285D01*
X143152714Y-74699809D01*
X143152714Y-74318857D01*
X143105095Y-74223619D01*
X143057476Y-74176000D01*
X142962238Y-74128380D01*
X142771761Y-74128380D01*
X142676523Y-74176000D01*
X142628904Y-74223619D01*
X142581285Y-74318857D01*
X142581285Y-74556952D01*
X142628904Y-74652190D01*
X142676523Y-74699809D01*
X142771761Y-74747428D01*
X142962238Y-74747428D01*
X143057476Y-74699809D01*
X143105095Y-74652190D01*
X143152714Y-74556952D01*
X157424380Y-110878857D02*
X156948190Y-111212190D01*
X157424380Y-111450285D02*
X156424380Y-111450285D01*
X156424380Y-111069333D01*
X156472000Y-110974095D01*
X156519619Y-110926476D01*
X156614857Y-110878857D01*
X156757714Y-110878857D01*
X156852952Y-110926476D01*
X156900571Y-110974095D01*
X156948190Y-111069333D01*
X156948190Y-111450285D01*
X157424380Y-109926476D02*
X157424380Y-110497904D01*
X157424380Y-110212190D02*
X156424380Y-110212190D01*
X156567238Y-110307428D01*
X156662476Y-110402666D01*
X156710095Y-110497904D01*
X156424380Y-109307428D02*
X156424380Y-109212190D01*
X156472000Y-109116952D01*
X156519619Y-109069333D01*
X156614857Y-109021714D01*
X156805333Y-108974095D01*
X157043428Y-108974095D01*
X157233904Y-109021714D01*
X157329142Y-109069333D01*
X157376761Y-109116952D01*
X157424380Y-109212190D01*
X157424380Y-109307428D01*
X157376761Y-109402666D01*
X157329142Y-109450285D01*
X157233904Y-109497904D01*
X157043428Y-109545523D01*
X156805333Y-109545523D01*
X156614857Y-109497904D01*
X156519619Y-109450285D01*
X156472000Y-109402666D01*
X156424380Y-109307428D01*
X184221380Y-96051666D02*
X183745190Y-96385000D01*
X184221380Y-96623095D02*
X183221380Y-96623095D01*
X183221380Y-96242142D01*
X183269000Y-96146904D01*
X183316619Y-96099285D01*
X183411857Y-96051666D01*
X183554714Y-96051666D01*
X183649952Y-96099285D01*
X183697571Y-96146904D01*
X183745190Y-96242142D01*
X183745190Y-96623095D01*
X183221380Y-95146904D02*
X183221380Y-95623095D01*
X183697571Y-95670714D01*
X183649952Y-95623095D01*
X183602333Y-95527857D01*
X183602333Y-95289761D01*
X183649952Y-95194523D01*
X183697571Y-95146904D01*
X183792809Y-95099285D01*
X184030904Y-95099285D01*
X184126142Y-95146904D01*
X184173761Y-95194523D01*
X184221380Y-95289761D01*
X184221380Y-95527857D01*
X184173761Y-95623095D01*
X184126142Y-95670714D01*
X145113333Y-102103619D02*
X145113333Y-101389333D01*
X145160952Y-101246476D01*
X145256190Y-101151238D01*
X145399047Y-101103619D01*
X145494285Y-101103619D01*
X144113333Y-101103619D02*
X144684761Y-101103619D01*
X144399047Y-101103619D02*
X144399047Y-102103619D01*
X144494285Y-101960761D01*
X144589523Y-101865523D01*
X144684761Y-101817904D01*
X154199047Y-102998857D02*
X154246666Y-102951238D01*
X154389523Y-102903619D01*
X154484761Y-102903619D01*
X154627619Y-102951238D01*
X154722857Y-103046476D01*
X154770476Y-103141714D01*
X154818095Y-103332190D01*
X154818095Y-103475047D01*
X154770476Y-103665523D01*
X154722857Y-103760761D01*
X154627619Y-103856000D01*
X154484761Y-103903619D01*
X154389523Y-103903619D01*
X154246666Y-103856000D01*
X154199047Y-103808380D01*
X153199047Y-102998857D02*
X153246666Y-102951238D01*
X153389523Y-102903619D01*
X153484761Y-102903619D01*
X153627619Y-102951238D01*
X153722857Y-103046476D01*
X153770476Y-103141714D01*
X153818095Y-103332190D01*
X153818095Y-103475047D01*
X153770476Y-103665523D01*
X153722857Y-103760761D01*
X153627619Y-103856000D01*
X153484761Y-103903619D01*
X153389523Y-103903619D01*
X153246666Y-103856000D01*
X153199047Y-103808380D01*
X152818095Y-103808380D02*
X152770476Y-103856000D01*
X152675238Y-103903619D01*
X152437142Y-103903619D01*
X152341904Y-103856000D01*
X152294285Y-103808380D01*
X152246666Y-103713142D01*
X152246666Y-103617904D01*
X152294285Y-103475047D01*
X152865714Y-102903619D01*
X152246666Y-102903619D01*
X148770476Y-102903619D02*
X148770476Y-103903619D01*
X148532380Y-103903619D01*
X148389523Y-103856000D01*
X148294285Y-103760761D01*
X148246666Y-103665523D01*
X148199047Y-103475047D01*
X148199047Y-103332190D01*
X148246666Y-103141714D01*
X148294285Y-103046476D01*
X148389523Y-102951238D01*
X148532380Y-102903619D01*
X148770476Y-102903619D01*
X147770476Y-103284571D02*
X147008571Y-103284571D01*
X147389523Y-102903619D02*
X147389523Y-103665523D01*
X143675238Y-102998857D02*
X143722857Y-102951238D01*
X143865714Y-102903619D01*
X143960952Y-102903619D01*
X144103809Y-102951238D01*
X144199047Y-103046476D01*
X144246666Y-103141714D01*
X144294285Y-103332190D01*
X144294285Y-103475047D01*
X144246666Y-103665523D01*
X144199047Y-103760761D01*
X144103809Y-103856000D01*
X143960952Y-103903619D01*
X143865714Y-103903619D01*
X143722857Y-103856000D01*
X143675238Y-103808380D01*
X142675238Y-102998857D02*
X142722857Y-102951238D01*
X142865714Y-102903619D01*
X142960952Y-102903619D01*
X143103809Y-102951238D01*
X143199047Y-103046476D01*
X143246666Y-103141714D01*
X143294285Y-103332190D01*
X143294285Y-103475047D01*
X143246666Y-103665523D01*
X143199047Y-103760761D01*
X143103809Y-103856000D01*
X142960952Y-103903619D01*
X142865714Y-103903619D01*
X142722857Y-103856000D01*
X142675238Y-103808380D01*
X141722857Y-102903619D02*
X142294285Y-102903619D01*
X142008571Y-102903619D02*
X142008571Y-103903619D01*
X142103809Y-103760761D01*
X142199047Y-103665523D01*
X142294285Y-103617904D01*
X139913333Y-103903619D02*
X139580000Y-102903619D01*
X139246666Y-103903619D01*
X138580000Y-103427428D02*
X138437142Y-103379809D01*
X138389523Y-103332190D01*
X138341904Y-103236952D01*
X138341904Y-103094095D01*
X138389523Y-102998857D01*
X138437142Y-102951238D01*
X138532380Y-102903619D01*
X138913333Y-102903619D01*
X138913333Y-103903619D01*
X138580000Y-103903619D01*
X138484761Y-103856000D01*
X138437142Y-103808380D01*
X138389523Y-103713142D01*
X138389523Y-103617904D01*
X138437142Y-103522666D01*
X138484761Y-103475047D01*
X138580000Y-103427428D01*
X138913333Y-103427428D01*
X137913333Y-103903619D02*
X137913333Y-103094095D01*
X137865714Y-102998857D01*
X137818095Y-102951238D01*
X137722857Y-102903619D01*
X137532380Y-102903619D01*
X137437142Y-102951238D01*
X137389523Y-102998857D01*
X137341904Y-103094095D01*
X137341904Y-103903619D01*
X136913333Y-102951238D02*
X136770476Y-102903619D01*
X136532380Y-102903619D01*
X136437142Y-102951238D01*
X136389523Y-102998857D01*
X136341904Y-103094095D01*
X136341904Y-103189333D01*
X136389523Y-103284571D01*
X136437142Y-103332190D01*
X136532380Y-103379809D01*
X136722857Y-103427428D01*
X136818095Y-103475047D01*
X136865714Y-103522666D01*
X136913333Y-103617904D01*
X136913333Y-103713142D01*
X136865714Y-103808380D01*
X136818095Y-103856000D01*
X136722857Y-103903619D01*
X136484761Y-103903619D01*
X136341904Y-103856000D01*
X152962428Y-107164238D02*
X152819571Y-107116619D01*
X152581476Y-107116619D01*
X152486238Y-107164238D01*
X152438619Y-107211857D01*
X152391000Y-107307095D01*
X152391000Y-107402333D01*
X152438619Y-107497571D01*
X152486238Y-107545190D01*
X152581476Y-107592809D01*
X152771952Y-107640428D01*
X152867190Y-107688047D01*
X152914809Y-107735666D01*
X152962428Y-107830904D01*
X152962428Y-107926142D01*
X152914809Y-108021380D01*
X152867190Y-108069000D01*
X152771952Y-108116619D01*
X152533857Y-108116619D01*
X152391000Y-108069000D01*
X151629095Y-107640428D02*
X151486238Y-107592809D01*
X151438619Y-107545190D01*
X151391000Y-107449952D01*
X151391000Y-107307095D01*
X151438619Y-107211857D01*
X151486238Y-107164238D01*
X151581476Y-107116619D01*
X151962428Y-107116619D01*
X151962428Y-108116619D01*
X151629095Y-108116619D01*
X151533857Y-108069000D01*
X151486238Y-108021380D01*
X151438619Y-107926142D01*
X151438619Y-107830904D01*
X151486238Y-107735666D01*
X151533857Y-107688047D01*
X151629095Y-107640428D01*
X151962428Y-107640428D01*
X150962428Y-108116619D02*
X150962428Y-107307095D01*
X150914809Y-107211857D01*
X150867190Y-107164238D01*
X150771952Y-107116619D01*
X150581476Y-107116619D01*
X150486238Y-107164238D01*
X150438619Y-107211857D01*
X150391000Y-107307095D01*
X150391000Y-108116619D01*
X149391000Y-107116619D02*
X149962428Y-107116619D01*
X149676714Y-107116619D02*
X149676714Y-108116619D01*
X149771952Y-107973761D01*
X149867190Y-107878523D01*
X149962428Y-107830904D01*
X146676714Y-107116619D02*
X146676714Y-108116619D01*
X146438619Y-108116619D01*
X146295761Y-108069000D01*
X146200523Y-107973761D01*
X146152904Y-107878523D01*
X146105285Y-107688047D01*
X146105285Y-107545190D01*
X146152904Y-107354714D01*
X146200523Y-107259476D01*
X146295761Y-107164238D01*
X146438619Y-107116619D01*
X146676714Y-107116619D01*
X145676714Y-107497571D02*
X144914809Y-107497571D01*
X142962428Y-107164238D02*
X142819571Y-107116619D01*
X142581476Y-107116619D01*
X142486238Y-107164238D01*
X142438619Y-107211857D01*
X142391000Y-107307095D01*
X142391000Y-107402333D01*
X142438619Y-107497571D01*
X142486238Y-107545190D01*
X142581476Y-107592809D01*
X142771952Y-107640428D01*
X142867190Y-107688047D01*
X142914809Y-107735666D01*
X142962428Y-107830904D01*
X142962428Y-107926142D01*
X142914809Y-108021380D01*
X142867190Y-108069000D01*
X142771952Y-108116619D01*
X142533857Y-108116619D01*
X142391000Y-108069000D01*
X141629095Y-107640428D02*
X141486238Y-107592809D01*
X141438619Y-107545190D01*
X141391000Y-107449952D01*
X141391000Y-107307095D01*
X141438619Y-107211857D01*
X141486238Y-107164238D01*
X141581476Y-107116619D01*
X141962428Y-107116619D01*
X141962428Y-108116619D01*
X141629095Y-108116619D01*
X141533857Y-108069000D01*
X141486238Y-108021380D01*
X141438619Y-107926142D01*
X141438619Y-107830904D01*
X141486238Y-107735666D01*
X141533857Y-107688047D01*
X141629095Y-107640428D01*
X141962428Y-107640428D01*
X140962428Y-108116619D02*
X140962428Y-107307095D01*
X140914809Y-107211857D01*
X140867190Y-107164238D01*
X140771952Y-107116619D01*
X140581476Y-107116619D01*
X140486238Y-107164238D01*
X140438619Y-107211857D01*
X140391000Y-107307095D01*
X140391000Y-108116619D01*
X139962428Y-108021380D02*
X139914809Y-108069000D01*
X139819571Y-108116619D01*
X139581476Y-108116619D01*
X139486238Y-108069000D01*
X139438619Y-108021380D01*
X139391000Y-107926142D01*
X139391000Y-107830904D01*
X139438619Y-107688047D01*
X140010047Y-107116619D01*
X139391000Y-107116619D01*
X136914809Y-108069000D02*
X137010047Y-108116619D01*
X137152904Y-108116619D01*
X137295761Y-108069000D01*
X137391000Y-107973761D01*
X137438619Y-107878523D01*
X137486238Y-107688047D01*
X137486238Y-107545190D01*
X137438619Y-107354714D01*
X137391000Y-107259476D01*
X137295761Y-107164238D01*
X137152904Y-107116619D01*
X137057666Y-107116619D01*
X136914809Y-107164238D01*
X136867190Y-107211857D01*
X136867190Y-107545190D01*
X137057666Y-107545190D01*
X136438619Y-107116619D02*
X136438619Y-108116619D01*
X135867190Y-107116619D01*
X135867190Y-108116619D01*
X135391000Y-107116619D02*
X135391000Y-108116619D01*
X135152904Y-108116619D01*
X135010047Y-108069000D01*
X134914809Y-107973761D01*
X134867190Y-107878523D01*
X134819571Y-107688047D01*
X134819571Y-107545190D01*
X134867190Y-107354714D01*
X134914809Y-107259476D01*
X135010047Y-107164238D01*
X135152904Y-107116619D01*
X135391000Y-107116619D01*
X171188142Y-90146142D02*
X171140523Y-90193761D01*
X170997666Y-90241380D01*
X170902428Y-90241380D01*
X170759571Y-90193761D01*
X170664333Y-90098523D01*
X170616714Y-90003285D01*
X170569095Y-89812809D01*
X170569095Y-89669952D01*
X170616714Y-89479476D01*
X170664333Y-89384238D01*
X170759571Y-89289000D01*
X170902428Y-89241380D01*
X170997666Y-89241380D01*
X171140523Y-89289000D01*
X171188142Y-89336619D01*
X172140523Y-90241380D02*
X171569095Y-90241380D01*
X171854809Y-90241380D02*
X171854809Y-89241380D01*
X171759571Y-89384238D01*
X171664333Y-89479476D01*
X171569095Y-89527095D01*
X172759571Y-89241380D02*
X172854809Y-89241380D01*
X172950047Y-89289000D01*
X172997666Y-89336619D01*
X173045285Y-89431857D01*
X173092904Y-89622333D01*
X173092904Y-89860428D01*
X173045285Y-90050904D01*
X172997666Y-90146142D01*
X172950047Y-90193761D01*
X172854809Y-90241380D01*
X172759571Y-90241380D01*
X172664333Y-90193761D01*
X172616714Y-90146142D01*
X172569095Y-90050904D01*
X172521476Y-89860428D01*
X172521476Y-89622333D01*
X172569095Y-89431857D01*
X172616714Y-89336619D01*
X172664333Y-89289000D01*
X172759571Y-89241380D01*
X142327333Y-77192142D02*
X142279714Y-77239761D01*
X142136857Y-77287380D01*
X142041619Y-77287380D01*
X141898761Y-77239761D01*
X141803523Y-77144523D01*
X141755904Y-77049285D01*
X141708285Y-76858809D01*
X141708285Y-76715952D01*
X141755904Y-76525476D01*
X141803523Y-76430238D01*
X141898761Y-76335000D01*
X142041619Y-76287380D01*
X142136857Y-76287380D01*
X142279714Y-76335000D01*
X142327333Y-76382619D01*
X142660666Y-76287380D02*
X143327333Y-76287380D01*
X142898761Y-77287380D01*
X173244142Y-84208857D02*
X173291761Y-84256476D01*
X173339380Y-84399333D01*
X173339380Y-84494571D01*
X173291761Y-84637428D01*
X173196523Y-84732666D01*
X173101285Y-84780285D01*
X172910809Y-84827904D01*
X172767952Y-84827904D01*
X172577476Y-84780285D01*
X172482238Y-84732666D01*
X172387000Y-84637428D01*
X172339380Y-84494571D01*
X172339380Y-84399333D01*
X172387000Y-84256476D01*
X172434619Y-84208857D01*
X173339380Y-83256476D02*
X173339380Y-83827904D01*
X173339380Y-83542190D02*
X172339380Y-83542190D01*
X172482238Y-83637428D01*
X172577476Y-83732666D01*
X172625095Y-83827904D01*
X173339380Y-82304095D02*
X173339380Y-82875523D01*
X173339380Y-82589809D02*
X172339380Y-82589809D01*
X172482238Y-82685047D01*
X172577476Y-82780285D01*
X172625095Y-82875523D01*
D11*
X176049000Y-71835000D02*
X176049000Y-66595000D01*
X176049000Y-66595000D02*
X178789000Y-66595000D01*
X176049000Y-71835000D02*
X178789000Y-71835000D01*
X178789000Y-71835000D02*
X178789000Y-66595000D01*
D12*
X163449000Y-72732900D02*
X163449000Y-73331360D01*
X163449000Y-82878638D02*
X163449000Y-83477100D01*
X169291000Y-72732900D02*
X163449000Y-72732900D01*
X169291000Y-73331360D02*
X169291000Y-72732900D01*
X163449000Y-83477100D02*
X169291000Y-83477100D01*
X169291000Y-83477100D02*
X169291000Y-82878640D01*
G36*
X161658300Y-79920498D02*
G01*
X161404300Y-79920498D01*
X161404300Y-79539498D01*
X161658300Y-79539498D01*
X161658300Y-79920498D01*
G37*
G36*
X171335700Y-79270499D02*
G01*
X171081700Y-79270499D01*
X171081700Y-78889499D01*
X171335700Y-78889499D01*
X171335700Y-79270499D01*
G37*
D11*
X145796000Y-98401000D02*
X145796000Y-97631000D01*
X144426000Y-97631000D02*
X147166000Y-97631000D01*
X147166000Y-91091000D02*
X144426000Y-91091000D01*
X144426000Y-91091000D02*
X144426000Y-97631000D01*
X145796000Y-90321000D02*
X145796000Y-91091000D01*
X147166000Y-97631000D02*
X147166000Y-91091000D01*
X139780000Y-98271000D02*
X139780000Y-95531000D01*
X139780000Y-98271000D02*
X134540000Y-98271000D01*
X134540000Y-98271000D02*
X134540000Y-95531000D01*
X139780000Y-95531000D02*
X134540000Y-95531000D01*
X188087000Y-99925000D02*
X188087000Y-99155000D01*
X189457000Y-92615000D02*
X186717000Y-92615000D01*
X186717000Y-92615000D02*
X186717000Y-99155000D01*
X189457000Y-99155000D02*
X189457000Y-92615000D01*
X188087000Y-91845000D02*
X188087000Y-92615000D01*
X186717000Y-99155000D02*
X189457000Y-99155000D01*
X148971000Y-98401000D02*
X148971000Y-97631000D01*
X147601000Y-91091000D02*
X147601000Y-97631000D01*
X147601000Y-97631000D02*
X150341000Y-97631000D01*
X150341000Y-97631000D02*
X150341000Y-91091000D01*
X148971000Y-90321000D02*
X148971000Y-91091000D01*
X150341000Y-91091000D02*
X147601000Y-91091000D01*
X185370000Y-84352000D02*
X185370000Y-87069000D01*
X185290000Y-84352000D02*
X185290000Y-87102000D01*
X187090000Y-80912000D02*
X187090000Y-85712000D01*
X186090000Y-84352000D02*
X186090000Y-86677000D01*
X185450000Y-79590000D02*
X185450000Y-82272000D01*
X187770000Y-82364000D02*
X187770000Y-84260000D01*
X184810000Y-79365000D02*
X184810000Y-82272000D01*
X187530000Y-81667000D02*
X187530000Y-84957000D01*
X185490000Y-79608000D02*
X185490000Y-82272000D01*
X185850000Y-84352000D02*
X185850000Y-86829000D01*
X185690000Y-79706000D02*
X185690000Y-82272000D01*
X184249000Y-79260000D02*
X184249000Y-87364000D01*
X186490000Y-84352000D02*
X186490000Y-86367000D01*
X186530000Y-80293000D02*
X186530000Y-82272000D01*
X183929000Y-79235000D02*
X183929000Y-87389000D01*
X183969000Y-79236000D02*
X183969000Y-87388000D01*
X187290000Y-81210000D02*
X187290000Y-85414000D01*
X185010000Y-79423000D02*
X185010000Y-82272000D01*
X179759302Y-80597000D02*
X179759302Y-81397000D01*
X184409000Y-79282000D02*
X184409000Y-87342000D01*
X186050000Y-79920000D02*
X186050000Y-82272000D01*
X185330000Y-79538000D02*
X185330000Y-82272000D01*
X184890000Y-84352000D02*
X184890000Y-87237000D01*
X186250000Y-80062000D02*
X186250000Y-82272000D01*
X185370000Y-79555000D02*
X185370000Y-82272000D01*
X186290000Y-80092000D02*
X186290000Y-82272000D01*
X187490000Y-81581000D02*
X187490000Y-85043000D01*
X186210000Y-80032000D02*
X186210000Y-82272000D01*
X184009000Y-79238000D02*
X184009000Y-87386000D01*
X185130000Y-79462000D02*
X185130000Y-82272000D01*
X187130000Y-80967000D02*
X187130000Y-85657000D01*
X187690000Y-82083000D02*
X187690000Y-84541000D01*
X184770000Y-84352000D02*
X184770000Y-87269000D01*
X183769000Y-79232000D02*
X183769000Y-87392000D01*
X185330000Y-84352000D02*
X185330000Y-87086000D01*
X186610000Y-80367000D02*
X186610000Y-86257000D01*
X187330000Y-81278000D02*
X187330000Y-85346000D01*
X186570000Y-80329000D02*
X186570000Y-86295000D01*
X186370000Y-80156000D02*
X186370000Y-82272000D01*
X187450000Y-81499000D02*
X187450000Y-85125000D01*
X186290000Y-84352000D02*
X186290000Y-86532000D01*
X184690000Y-79336000D02*
X184690000Y-82272000D01*
X185570000Y-79646000D02*
X185570000Y-82272000D01*
X179359302Y-80997000D02*
X180159302Y-80997000D01*
X185050000Y-79435000D02*
X185050000Y-82272000D01*
X183809000Y-79232000D02*
X183809000Y-87392000D01*
X184890000Y-79387000D02*
X184890000Y-82272000D01*
X185970000Y-79868000D02*
X185970000Y-82272000D01*
X186050000Y-84352000D02*
X186050000Y-86704000D01*
X184690000Y-84352000D02*
X184690000Y-87288000D01*
X185890000Y-84352000D02*
X185890000Y-86805000D01*
X185650000Y-84352000D02*
X185650000Y-86939000D01*
X186890000Y-80661000D02*
X186890000Y-85963000D01*
X186730000Y-80486000D02*
X186730000Y-86138000D01*
X184490000Y-84352000D02*
X184490000Y-87329000D01*
X184129000Y-79247000D02*
X184129000Y-87377000D01*
X184490000Y-79295000D02*
X184490000Y-82272000D01*
X185410000Y-84352000D02*
X185410000Y-87052000D01*
X184650000Y-84352000D02*
X184650000Y-87297000D01*
X186090000Y-79947000D02*
X186090000Y-82272000D01*
X185570000Y-84352000D02*
X185570000Y-86978000D01*
X184850000Y-79376000D02*
X184850000Y-82272000D01*
X186170000Y-84352000D02*
X186170000Y-86621000D01*
X184970000Y-84352000D02*
X184970000Y-87214000D01*
X185610000Y-79665000D02*
X185610000Y-82272000D01*
X185290000Y-79522000D02*
X185290000Y-82272000D01*
X185650000Y-79685000D02*
X185650000Y-82272000D01*
X186650000Y-80405000D02*
X186650000Y-86219000D01*
X184650000Y-79327000D02*
X184650000Y-82272000D01*
X186530000Y-84352000D02*
X186530000Y-86331000D01*
X184610000Y-84352000D02*
X184610000Y-87306000D01*
X185530000Y-84352000D02*
X185530000Y-86998000D01*
X186770000Y-80528000D02*
X186770000Y-86096000D01*
X184970000Y-79410000D02*
X184970000Y-82272000D01*
X186130000Y-84352000D02*
X186130000Y-86650000D01*
X184770000Y-79355000D02*
X184770000Y-82272000D01*
X185610000Y-84352000D02*
X185610000Y-86959000D01*
X184570000Y-79310000D02*
X184570000Y-82272000D01*
X187250000Y-81146000D02*
X187250000Y-85478000D01*
X184730000Y-79345000D02*
X184730000Y-82272000D01*
X186330000Y-84352000D02*
X186330000Y-86501000D01*
X185930000Y-84352000D02*
X185930000Y-86781000D01*
X187050000Y-80858000D02*
X187050000Y-85766000D01*
X184089000Y-79244000D02*
X184089000Y-87380000D01*
X186250000Y-84352000D02*
X186250000Y-86562000D01*
X185730000Y-79728000D02*
X185730000Y-82272000D01*
X186850000Y-80615000D02*
X186850000Y-86009000D01*
X185010000Y-84352000D02*
X185010000Y-87201000D01*
X184289000Y-79264000D02*
X184289000Y-87360000D01*
X185770000Y-84352000D02*
X185770000Y-86874000D01*
X184369000Y-79275000D02*
X184369000Y-87349000D01*
X187810000Y-82544000D02*
X187810000Y-84080000D01*
X184530000Y-84352000D02*
X184530000Y-87322000D01*
X186450000Y-80222000D02*
X186450000Y-82272000D01*
X185250000Y-84352000D02*
X185250000Y-87117000D01*
X185970000Y-84352000D02*
X185970000Y-86756000D01*
X184329000Y-79270000D02*
X184329000Y-87354000D01*
X185890000Y-79819000D02*
X185890000Y-82272000D01*
X184570000Y-84352000D02*
X184570000Y-87314000D01*
X184530000Y-79302000D02*
X184530000Y-82272000D01*
X184169000Y-79251000D02*
X184169000Y-87373000D01*
X185810000Y-84352000D02*
X185810000Y-86852000D01*
X187010000Y-80807000D02*
X187010000Y-85817000D01*
X184850000Y-84352000D02*
X184850000Y-87248000D01*
X184730000Y-84352000D02*
X184730000Y-87279000D01*
X184449000Y-79288000D02*
X184449000Y-87336000D01*
X187650000Y-81966000D02*
X187650000Y-84658000D01*
X186810000Y-80571000D02*
X186810000Y-86053000D01*
X187210000Y-81084000D02*
X187210000Y-85540000D01*
X184930000Y-79398000D02*
X184930000Y-82272000D01*
X185930000Y-79843000D02*
X185930000Y-82272000D01*
X186330000Y-80123000D02*
X186330000Y-82272000D01*
X185730000Y-84352000D02*
X185730000Y-86896000D01*
X185170000Y-84352000D02*
X185170000Y-87147000D01*
X186410000Y-84352000D02*
X186410000Y-86436000D01*
X185530000Y-79626000D02*
X185530000Y-82272000D01*
X185090000Y-79449000D02*
X185090000Y-82272000D01*
X186370000Y-84352000D02*
X186370000Y-86468000D01*
X185450000Y-84352000D02*
X185450000Y-87034000D01*
X186010000Y-79894000D02*
X186010000Y-82272000D01*
X185170000Y-79477000D02*
X185170000Y-82272000D01*
X185490000Y-84352000D02*
X185490000Y-87016000D01*
X185050000Y-84352000D02*
X185050000Y-87189000D01*
X187410000Y-81422000D02*
X187410000Y-85202000D01*
X186410000Y-80188000D02*
X186410000Y-82272000D01*
X185690000Y-84352000D02*
X185690000Y-86918000D01*
X185850000Y-79795000D02*
X185850000Y-82272000D01*
X187570000Y-81760000D02*
X187570000Y-84864000D01*
X184209000Y-79255000D02*
X184209000Y-87369000D01*
X186490000Y-80257000D02*
X186490000Y-82272000D01*
X187170000Y-81025000D02*
X187170000Y-85599000D01*
X186930000Y-80708000D02*
X186930000Y-85916000D01*
X187850000Y-82779000D02*
X187850000Y-83845000D01*
X185130000Y-84352000D02*
X185130000Y-87162000D01*
X185410000Y-79572000D02*
X185410000Y-82272000D01*
X185210000Y-84352000D02*
X185210000Y-87133000D01*
X186210000Y-84352000D02*
X186210000Y-86592000D01*
X184610000Y-79318000D02*
X184610000Y-82272000D01*
X186690000Y-80445000D02*
X186690000Y-86179000D01*
X185770000Y-79750000D02*
X185770000Y-82272000D01*
X185090000Y-84352000D02*
X185090000Y-87175000D01*
X186010000Y-84352000D02*
X186010000Y-86730000D01*
X184930000Y-84352000D02*
X184930000Y-87226000D01*
X186130000Y-79974000D02*
X186130000Y-82272000D01*
X186170000Y-80003000D02*
X186170000Y-82272000D01*
X187370000Y-81348000D02*
X187370000Y-85276000D01*
X184810000Y-84352000D02*
X184810000Y-87259000D01*
X185810000Y-79772000D02*
X185810000Y-82272000D01*
X185210000Y-79491000D02*
X185210000Y-82272000D01*
X187610000Y-81859000D02*
X187610000Y-84765000D01*
X185250000Y-79507000D02*
X185250000Y-82272000D01*
X184049000Y-79241000D02*
X184049000Y-87383000D01*
X187730000Y-82214000D02*
X187730000Y-84410000D01*
X183849000Y-79232000D02*
X183849000Y-87392000D01*
X186970000Y-80756000D02*
X186970000Y-85868000D01*
X183889000Y-79233000D02*
X183889000Y-87391000D01*
X186450000Y-84352000D02*
X186450000Y-86402000D01*
X187889000Y-83312000D02*
G75*
G03*
X187889000Y-83312000I-4120000J0D01*
G01*
X170461000Y-113506000D02*
X173201000Y-113506000D01*
X173201000Y-106966000D02*
X170461000Y-106966000D01*
X171831000Y-114276000D02*
X171831000Y-113506000D01*
X173201000Y-113506000D02*
X173201000Y-106966000D01*
X171831000Y-106196000D02*
X171831000Y-106966000D01*
X170461000Y-106966000D02*
X170461000Y-113506000D01*
X157126000Y-92015000D02*
X159866000Y-92015000D01*
X159866000Y-97255000D02*
X159866000Y-92015000D01*
X157126000Y-97255000D02*
X157126000Y-92015000D01*
X157126000Y-97255000D02*
X159866000Y-97255000D01*
X191394000Y-84191500D02*
X191294000Y-84091500D01*
X191494000Y-84191500D02*
X191494000Y-82191500D01*
X194094000Y-82591500D02*
X192494000Y-82591500D01*
X190694000Y-84191500D02*
X190694000Y-83291500D01*
X194094000Y-83991500D02*
X196094000Y-83991500D01*
X195594000Y-82791500D02*
X194194000Y-82791500D01*
X192394000Y-81791500D02*
X192394000Y-81691500D01*
X194094000Y-83791500D02*
X194094000Y-83891500D01*
X190494000Y-84291500D02*
X196094000Y-84291500D01*
X192494000Y-84191500D02*
X192394000Y-84191500D01*
X195394000Y-82491500D02*
X195294000Y-82491500D01*
X191194000Y-84191500D02*
X191094000Y-84191500D01*
X196094000Y-83891500D02*
X196094000Y-83691500D01*
X195694000Y-82891500D02*
X194094000Y-82891500D01*
X194094000Y-83391500D02*
X195994000Y-83391500D01*
X196094000Y-84291500D02*
X196094000Y-84191500D01*
X190894000Y-82891500D02*
X190894000Y-84191500D01*
X194094000Y-83191500D02*
X195894000Y-83191500D01*
X192394000Y-82491500D02*
X195294000Y-82491500D01*
X191794000Y-84191500D02*
X191694000Y-84191500D01*
X191194000Y-82591500D02*
X191094000Y-82691500D01*
X195294000Y-82491500D02*
X195294000Y-82291500D01*
X191094000Y-84191500D02*
X190994000Y-84191500D01*
X191294000Y-82391500D02*
X191194000Y-82591500D01*
X192394000Y-84191500D02*
X192394000Y-81791500D01*
X194194000Y-82791500D02*
X194094000Y-82591500D01*
X190694000Y-83291500D02*
X190594000Y-83491500D01*
X191894000Y-84191500D02*
X191894000Y-81891500D01*
X191394000Y-82291500D02*
X191394000Y-84191500D01*
X190994000Y-84191500D02*
X190994000Y-82691500D01*
X194094000Y-84291500D02*
X194094000Y-82591500D01*
X191694000Y-82091500D02*
X191594000Y-82191500D01*
X196094000Y-84191500D02*
X190494000Y-84191500D01*
X190594000Y-84191500D02*
X190494000Y-83991500D01*
X192694000Y-81691500D02*
X193894000Y-81691500D01*
X190994000Y-82691500D02*
X190894000Y-82891500D01*
X192394000Y-82091500D02*
X194994000Y-82091500D01*
X190494000Y-84191500D02*
X190494000Y-84091500D01*
X195994000Y-83591500D02*
X195994000Y-83491500D01*
X194094000Y-83891500D02*
X196094000Y-83891500D01*
X194294000Y-81691500D02*
X192394000Y-81691500D01*
X192494000Y-82591500D02*
X192494000Y-84091500D01*
X192094000Y-84191500D02*
X192094000Y-81791500D01*
X191894000Y-81891500D02*
X191794000Y-81991500D01*
X191794000Y-81991500D02*
X191794000Y-84191500D01*
X195794000Y-82991500D02*
X194194000Y-82991500D01*
X194094000Y-82591500D02*
X195494000Y-82591500D01*
X191294000Y-84191500D02*
X191294000Y-82391500D01*
X190494000Y-83991500D02*
X190494000Y-83891500D01*
D12*
X192659000Y-88036400D02*
X193929000Y-88036400D01*
D11*
X196094000Y-83791500D02*
X194094000Y-83791500D01*
X190794000Y-84191500D02*
X190694000Y-84191500D01*
X192094000Y-81791500D02*
X191994000Y-81891500D01*
X195894000Y-83291500D02*
X194094000Y-83291500D01*
X194094000Y-84091500D02*
X194094000Y-84291500D01*
X192394000Y-81791500D02*
X194494000Y-81791500D01*
X195794000Y-83091500D02*
X194094000Y-83091500D01*
X192394000Y-81691500D02*
X192294000Y-81741500D01*
X193794000Y-81591500D02*
X192694000Y-81591500D01*
X192494000Y-84091500D02*
X192494000Y-84191500D01*
X191494000Y-82191500D02*
X191394000Y-82291500D01*
X196094000Y-84091500D02*
X194094000Y-84091500D01*
X192394000Y-82291500D02*
X192394000Y-82391500D01*
X191094000Y-82691500D02*
X191094000Y-84191500D01*
X191294000Y-84091500D02*
X191294000Y-84191500D01*
X192194000Y-81791500D02*
X192194000Y-84191500D01*
X190794000Y-82991500D02*
X190694000Y-83291500D01*
X192294000Y-81741500D02*
X192294000Y-84191500D01*
X191694000Y-84191500D02*
X191694000Y-82091500D01*
D12*
X193294000Y-88671400D02*
X193294000Y-87401400D01*
D11*
X190794000Y-84191500D02*
X190794000Y-82991500D01*
X192394000Y-81891500D02*
X194694000Y-81891500D01*
X194094000Y-83091500D02*
X194094000Y-83191500D01*
X195094000Y-82191500D02*
X192494000Y-82191500D01*
X195294000Y-82291500D02*
X192394000Y-82291500D01*
X190894000Y-84191500D02*
X190794000Y-84191500D01*
X194094000Y-83591500D02*
X195994000Y-83591500D01*
X191994000Y-81891500D02*
X191994000Y-84191500D01*
X191594000Y-82191500D02*
X191594000Y-84191500D01*
X190411100Y-84391500D02*
X196176900Y-84391500D01*
X192394000Y-82391500D02*
X195294000Y-82391500D01*
X196094000Y-83691500D02*
X194094000Y-83691500D01*
X194094000Y-83691500D02*
X194094000Y-83591500D01*
X191594000Y-84191500D02*
X191494000Y-84191500D01*
X194794000Y-81991500D02*
X192394000Y-81991500D01*
X191194000Y-82591500D02*
X191194000Y-84191500D01*
X195994000Y-83491500D02*
X194194000Y-83491500D01*
X196094000Y-83991500D02*
X196094000Y-83791500D01*
X190594000Y-83491500D02*
X190594000Y-84191500D01*
X195594000Y-82691500D02*
X194194000Y-82691500D01*
D12*
X196176900Y-84391500D02*
G75*
G03*
X196176900Y-84391500I-2882900J0D01*
G01*
D11*
X183826000Y-68777000D02*
X186226000Y-68777000D01*
X185826000Y-71777000D02*
X185826000Y-69177000D01*
X183826000Y-67477000D02*
X185026000Y-67477000D01*
X184126000Y-70777000D02*
X184126000Y-72777000D01*
X183726000Y-67177000D02*
X183726000Y-72777000D01*
X185326000Y-67677000D02*
X185126000Y-67577000D01*
X184826000Y-70777000D02*
X184826000Y-72577000D01*
X185426000Y-67877000D02*
X185326000Y-67777000D01*
X185826000Y-68277000D02*
X183826000Y-68277000D01*
X185426000Y-70777000D02*
X185426000Y-69177000D01*
X186026000Y-68477000D02*
X183826000Y-68477000D01*
X185426000Y-69177000D02*
X183926000Y-69177000D01*
X186226000Y-68777000D02*
X186126000Y-68677000D01*
X184526000Y-67277000D02*
X183826000Y-67277000D01*
X184326000Y-72777000D02*
X184326000Y-70777000D01*
X183826000Y-68077000D02*
X183926000Y-67977000D01*
X186326000Y-69377000D02*
X186326000Y-70577000D01*
X186126000Y-68577000D02*
X186026000Y-68477000D01*
X183726000Y-70777000D02*
X185426000Y-70777000D01*
X183826000Y-67477000D02*
X183826000Y-67377000D01*
X185226000Y-70877000D02*
X185426000Y-70777000D01*
X185326000Y-67777000D02*
X183826000Y-67777000D01*
X185026000Y-72477000D02*
X185026000Y-70877000D01*
X185726000Y-71977000D02*
X185726000Y-69077000D01*
X183826000Y-69177000D02*
X183826000Y-69077000D01*
X184226000Y-72777000D02*
X184226000Y-70777000D01*
X183926000Y-67977000D02*
X183826000Y-67977000D01*
X184026000Y-67177000D02*
X184126000Y-67177000D01*
X184926000Y-72477000D02*
X184926000Y-70777000D01*
X186276000Y-68977000D02*
X183826000Y-68977000D01*
X186126000Y-69077000D02*
X186126000Y-71377000D01*
X183826000Y-67377000D02*
X184726000Y-67377000D01*
X184226000Y-70777000D02*
X184126000Y-70777000D01*
X185426000Y-67877000D02*
X183826000Y-67877000D01*
X183826000Y-67577000D02*
X183826000Y-67477000D01*
X183926000Y-70777000D02*
X183726000Y-70777000D01*
X185926000Y-68377000D02*
X185826000Y-68277000D01*
X184326000Y-70777000D02*
X184426000Y-70777000D01*
X184026000Y-70777000D02*
X184026000Y-72777000D01*
X184026000Y-72777000D02*
X184226000Y-72777000D01*
X183826000Y-68277000D02*
X183826000Y-68177000D01*
X185626000Y-69077000D02*
X185626000Y-71977000D01*
X186426000Y-70477000D02*
X186426000Y-69377000D01*
X185926000Y-69077000D02*
X185926000Y-71677000D01*
X185826000Y-68177000D02*
X185726000Y-68077000D01*
X183826000Y-68177000D02*
X185826000Y-68177000D01*
X183726000Y-72777000D02*
X183826000Y-72777000D01*
X186126000Y-68677000D02*
X183826000Y-68677000D01*
X183626000Y-67094100D02*
X183626000Y-72859900D01*
X185326000Y-72277000D02*
X185326000Y-70877000D01*
X183826000Y-67177000D02*
X183926000Y-67177000D01*
X184426000Y-72677000D02*
X184526000Y-72677000D01*
X184426000Y-70777000D02*
X184426000Y-72677000D01*
X184626000Y-70777000D02*
X184626000Y-72677000D01*
X186226000Y-69077000D02*
X186326000Y-69077000D01*
D12*
X179981100Y-69342000D02*
X179981100Y-70612000D01*
D11*
X185026000Y-67477000D02*
X184726000Y-67377000D01*
X185726000Y-68077000D02*
X183826000Y-68077000D01*
X184726000Y-67377000D02*
X184526000Y-67277000D01*
X184126000Y-72777000D02*
X184326000Y-72777000D01*
X183826000Y-67877000D02*
X183826000Y-67777000D01*
X183826000Y-67777000D02*
X183826000Y-67677000D01*
X185726000Y-69077000D02*
X185626000Y-69077000D01*
X186026000Y-71477000D02*
X186026000Y-69077000D01*
X185226000Y-72277000D02*
X185226000Y-70877000D01*
X183826000Y-69077000D02*
X186226000Y-69077000D01*
X185526000Y-69077000D02*
X185526000Y-71977000D01*
X184726000Y-72577000D02*
X184726000Y-70777000D01*
X184926000Y-70777000D02*
X184826000Y-70777000D01*
X185526000Y-72077000D02*
X185526000Y-71977000D01*
X186226000Y-68877000D02*
X183826000Y-68877000D01*
X184526000Y-72677000D02*
X184526000Y-70877000D01*
X185626000Y-67977000D02*
X185426000Y-67877000D01*
X183826000Y-67677000D02*
X185326000Y-67677000D01*
X183826000Y-72777000D02*
X183826000Y-67177000D01*
X183826000Y-68477000D02*
X183826000Y-68377000D01*
X183826000Y-68377000D02*
X185926000Y-68377000D01*
X183926000Y-69177000D02*
X183826000Y-69177000D01*
X185126000Y-72377000D02*
X185126000Y-70777000D01*
X186226000Y-69077000D02*
X186226000Y-71177000D01*
X186326000Y-69077000D02*
X186276000Y-68977000D01*
D12*
X179346100Y-69977000D02*
X180616100Y-69977000D01*
D11*
X185126000Y-67577000D02*
X183826000Y-67577000D01*
X183926000Y-72777000D02*
X183926000Y-70777000D01*
X185526000Y-71977000D02*
X185726000Y-71977000D01*
X183826000Y-67977000D02*
X185626000Y-67977000D01*
X185426000Y-70777000D02*
X185426000Y-72177000D01*
X183826000Y-67277000D02*
X184026000Y-67177000D01*
X186326000Y-70977000D02*
X186326000Y-69077000D01*
X183826000Y-68577000D02*
X186126000Y-68577000D01*
D12*
X186508900Y-69977000D02*
G75*
G03*
X186508900Y-69977000I-2882900J0D01*
G01*
D11*
X163100000Y-67972000D02*
X163100000Y-70712000D01*
X169640000Y-70712000D02*
X169640000Y-67972000D01*
X169640000Y-67972000D02*
X163100000Y-67972000D01*
X162330000Y-69342000D02*
X163100000Y-69342000D01*
X163100000Y-70712000D02*
X169640000Y-70712000D01*
X170410000Y-69342000D02*
X169640000Y-69342000D01*
X178749000Y-61876000D02*
X178749000Y-64616000D01*
X173509000Y-61876000D02*
X173509000Y-64616000D01*
X173509000Y-61876000D02*
X178749000Y-61876000D01*
X173509000Y-64616000D02*
X178749000Y-64616000D01*
X181276000Y-74449000D02*
X186516000Y-74449000D01*
X181276000Y-77189000D02*
X186516000Y-77189000D01*
X186516000Y-74449000D02*
X186516000Y-77189000D01*
X181276000Y-74449000D02*
X181276000Y-77189000D01*
X163160000Y-60721000D02*
X169560000Y-60721000D01*
X163160000Y-65771000D02*
X169560000Y-65771000D01*
X169560000Y-65771000D02*
G75*
G03*
X169560000Y-60721000I0J2525000D01*
G01*
X163160000Y-60721000D02*
G75*
G03*
X163160000Y-65771000I0J-2525000D01*
G01*
X169010000Y-87095000D02*
X163770000Y-87095000D01*
X169010000Y-84355000D02*
X163770000Y-84355000D01*
X169010000Y-87095000D02*
X169010000Y-84355000D01*
X163770000Y-87095000D02*
X163770000Y-84355000D01*
X168402000Y-106196000D02*
X168402000Y-106966000D01*
X167032000Y-106966000D02*
X167032000Y-113506000D01*
X168402000Y-114276000D02*
X168402000Y-113506000D01*
X167032000Y-113506000D02*
X169772000Y-113506000D01*
X169772000Y-113506000D02*
X169772000Y-106966000D01*
X169772000Y-106966000D02*
X167032000Y-106966000D01*
X144287000Y-84105000D02*
X140447000Y-84105000D01*
X144287000Y-82265000D02*
X140447000Y-82265000D01*
X161771000Y-113506000D02*
X161771000Y-106966000D01*
X159031000Y-113506000D02*
X161771000Y-113506000D01*
X161771000Y-106966000D02*
X159031000Y-106966000D01*
X160401000Y-106196000D02*
X160401000Y-106966000D01*
X160401000Y-114276000D02*
X160401000Y-113506000D01*
X159031000Y-106966000D02*
X159031000Y-113506000D01*
X173476000Y-93034000D02*
X173476000Y-92934000D01*
X173876000Y-93034000D02*
X173776000Y-93034000D01*
X175376000Y-93034000D02*
X175376000Y-90634000D01*
X175376000Y-90634000D02*
X175376000Y-90534000D01*
X177076000Y-92234000D02*
X178976000Y-92234000D01*
X174576000Y-91034000D02*
X174576000Y-93034000D01*
X174876000Y-93034000D02*
X174876000Y-90734000D01*
X175376000Y-90534000D02*
X175276000Y-90584000D01*
X175376000Y-90934000D02*
X177976000Y-90934000D01*
X179076000Y-92734000D02*
X179076000Y-92534000D01*
X174076000Y-93034000D02*
X173976000Y-93034000D01*
X175376000Y-91234000D02*
X178276000Y-91234000D01*
X179076000Y-92934000D02*
X177076000Y-92934000D01*
X177076000Y-91434000D02*
X178476000Y-91434000D01*
X179076000Y-93034000D02*
X173476000Y-93034000D01*
X174376000Y-91134000D02*
X174376000Y-93034000D01*
X174476000Y-91034000D02*
X174376000Y-91134000D01*
X177076000Y-92834000D02*
X179076000Y-92834000D01*
X174176000Y-91434000D02*
X174076000Y-91534000D01*
X175076000Y-90634000D02*
X174976000Y-90734000D01*
X178776000Y-91834000D02*
X177176000Y-91834000D01*
X173676000Y-93034000D02*
X173676000Y-92134000D01*
D12*
X175641000Y-96878900D02*
X176911000Y-96878900D01*
D11*
X175476000Y-91434000D02*
X175476000Y-92934000D01*
X174276000Y-91234000D02*
X174176000Y-91434000D01*
X174276000Y-93034000D02*
X174276000Y-91234000D01*
X175476000Y-93034000D02*
X175376000Y-93034000D01*
X177176000Y-91634000D02*
X177076000Y-91434000D01*
X173776000Y-93034000D02*
X173676000Y-93034000D01*
X174876000Y-90734000D02*
X174776000Y-90834000D01*
X178776000Y-91934000D02*
X177076000Y-91934000D01*
X177276000Y-90534000D02*
X175376000Y-90534000D01*
X177076000Y-91934000D02*
X177076000Y-92034000D01*
X177076000Y-92034000D02*
X178876000Y-92034000D01*
X177076000Y-92734000D02*
X179076000Y-92734000D01*
X177076000Y-92434000D02*
X178976000Y-92434000D01*
X177076000Y-92534000D02*
X177076000Y-92434000D01*
X174776000Y-90834000D02*
X174776000Y-93034000D01*
X174376000Y-93034000D02*
X174276000Y-92934000D01*
X173476000Y-92834000D02*
X173476000Y-92734000D01*
X178276000Y-91334000D02*
X178276000Y-91134000D01*
X173476000Y-93134000D02*
X179076000Y-93134000D01*
X179076000Y-92834000D02*
X179076000Y-92634000D01*
X177076000Y-93134000D02*
X177076000Y-91434000D01*
X174776000Y-93034000D02*
X174676000Y-93034000D01*
X173976000Y-91534000D02*
X173876000Y-91734000D01*
X179076000Y-92634000D02*
X177076000Y-92634000D01*
X177776000Y-90834000D02*
X175376000Y-90834000D01*
X178876000Y-92134000D02*
X177076000Y-92134000D01*
X173576000Y-93034000D02*
X173476000Y-92834000D01*
X175376000Y-90734000D02*
X177676000Y-90734000D01*
X177076000Y-92634000D02*
X177076000Y-92734000D01*
X173976000Y-93034000D02*
X173976000Y-91534000D01*
X175476000Y-92934000D02*
X175476000Y-93034000D01*
X179076000Y-92534000D02*
X177076000Y-92534000D01*
X173776000Y-93034000D02*
X173776000Y-91834000D01*
X174276000Y-92934000D02*
X174276000Y-93034000D01*
X175276000Y-90584000D02*
X175276000Y-93034000D01*
X176776000Y-90434000D02*
X175676000Y-90434000D01*
X175176000Y-90634000D02*
X175176000Y-93034000D01*
X173393100Y-93234000D02*
X179158900Y-93234000D01*
X174076000Y-91534000D02*
X174076000Y-93034000D01*
X173576000Y-92334000D02*
X173576000Y-93034000D01*
X178076000Y-91034000D02*
X175476000Y-91034000D01*
X174576000Y-93034000D02*
X174476000Y-93034000D01*
X178976000Y-92434000D02*
X178976000Y-92334000D01*
X178976000Y-92334000D02*
X177176000Y-92334000D01*
X175376000Y-90634000D02*
X177476000Y-90634000D01*
X175376000Y-91334000D02*
X178276000Y-91334000D01*
X174976000Y-90734000D02*
X174976000Y-93034000D01*
X175076000Y-93034000D02*
X175076000Y-90634000D01*
X173676000Y-92134000D02*
X173576000Y-92334000D01*
X177076000Y-91434000D02*
X175476000Y-91434000D01*
X174176000Y-93034000D02*
X174076000Y-93034000D01*
X173776000Y-91834000D02*
X173676000Y-92134000D01*
X178676000Y-91734000D02*
X177076000Y-91734000D01*
X174176000Y-91434000D02*
X174176000Y-93034000D01*
X175376000Y-91134000D02*
X175376000Y-91234000D01*
X174676000Y-93034000D02*
X174676000Y-90934000D01*
X175676000Y-90534000D02*
X176876000Y-90534000D01*
X178576000Y-91634000D02*
X177176000Y-91634000D01*
X174476000Y-93034000D02*
X174476000Y-91034000D01*
X173876000Y-91734000D02*
X173876000Y-93034000D01*
X177076000Y-92934000D02*
X177076000Y-93134000D01*
D12*
X176276000Y-97513900D02*
X176276000Y-96243900D01*
D11*
X178576000Y-91534000D02*
X177176000Y-91534000D01*
X179076000Y-93134000D02*
X179076000Y-93034000D01*
X178376000Y-91334000D02*
X178276000Y-91334000D01*
X178276000Y-91134000D02*
X175376000Y-91134000D01*
X174676000Y-90934000D02*
X174576000Y-91034000D01*
D12*
X179158900Y-93234000D02*
G75*
G03*
X179158900Y-93234000I-2882900J0D01*
G01*
D11*
X153951000Y-64616000D02*
X159191000Y-64616000D01*
X153951000Y-61876000D02*
X153951000Y-64616000D01*
X153951000Y-61876000D02*
X159191000Y-61876000D01*
X159191000Y-61876000D02*
X159191000Y-64616000D01*
G36*
X143450355Y-72087029D02*
G01*
X143553506Y-72208672D01*
X143626286Y-72306359D01*
X143815368Y-72571834D01*
X143834819Y-72302531D01*
X143858573Y-72147816D01*
X143895898Y-72070648D01*
X143913603Y-72069898D01*
X143951404Y-72152886D01*
X143969706Y-72308746D01*
X143968397Y-72485912D01*
X143947363Y-72632823D01*
X143914980Y-72694754D01*
X143845163Y-72671591D01*
X143732005Y-72572612D01*
X143662871Y-72495031D01*
X143468718Y-72259490D01*
X143468718Y-72459213D01*
X143450636Y-72610057D01*
X143407007Y-72697031D01*
X143405690Y-72697888D01*
X143367904Y-72665430D01*
X143346464Y-72522083D01*
X143342663Y-72386471D01*
X143350347Y-72195963D01*
X143370191Y-72069711D01*
X143389933Y-72038493D01*
X143450355Y-72087029D01*
G37*
G36*
X149072244Y-72110677D02*
G01*
X149131550Y-72081563D01*
X149203956Y-72085377D01*
X149388653Y-72142014D01*
X149484211Y-72247733D01*
X149472874Y-72381897D01*
X149467620Y-72391817D01*
X149439948Y-72516222D01*
X149502048Y-72619064D01*
X149557759Y-72704158D01*
X149524537Y-72722584D01*
X149421620Y-72672400D01*
X149365480Y-72632856D01*
X149225264Y-72549989D01*
X149153743Y-72568599D01*
X149141174Y-72634861D01*
X149105399Y-72718708D01*
X149074853Y-72729402D01*
X149037399Y-72670916D01*
X149024162Y-72510074D01*
X149027583Y-72398508D01*
X149036529Y-72288211D01*
X149141174Y-72288211D01*
X149173074Y-72391655D01*
X149251472Y-72402267D01*
X149345238Y-72340119D01*
X149361770Y-72288211D01*
X149309374Y-72199217D01*
X149251472Y-72174155D01*
X149162133Y-72196079D01*
X149141174Y-72288211D01*
X149036529Y-72288211D01*
X149043162Y-72206430D01*
X149072244Y-72110677D01*
G37*
G36*
X141908792Y-67832175D02*
G01*
X141829548Y-67820899D01*
X141684232Y-67761860D01*
X141609412Y-67724202D01*
X141506023Y-67658765D01*
X141919241Y-67658765D01*
X141924995Y-67687940D01*
X141992407Y-67740187D01*
X142064649Y-67748956D01*
X142082117Y-67725475D01*
X142073881Y-67718732D01*
X142397254Y-67718732D01*
X142428767Y-67750245D01*
X142460281Y-67718732D01*
X142428767Y-67687218D01*
X142397254Y-67718732D01*
X142073881Y-67718732D01*
X142032678Y-67684996D01*
X141984303Y-67663170D01*
X141919241Y-67658765D01*
X141506023Y-67658765D01*
X141446531Y-67621111D01*
X141419066Y-67582173D01*
X141661935Y-67582173D01*
X141670587Y-67619642D01*
X141703953Y-67624191D01*
X141755832Y-67601130D01*
X141751435Y-67592677D01*
X142208172Y-67592677D01*
X142239685Y-67624191D01*
X142271199Y-67592677D01*
X142239685Y-67561164D01*
X142208172Y-67592677D01*
X141751435Y-67592677D01*
X141745972Y-67582173D01*
X141671173Y-67574630D01*
X141661935Y-67582173D01*
X141419066Y-67582173D01*
X141377517Y-67523268D01*
X141371453Y-67433713D01*
X141370911Y-67344600D01*
X141351064Y-67354465D01*
X141296061Y-67386302D01*
X141192518Y-67315837D01*
X141188400Y-67312021D01*
X141139752Y-67242989D01*
X141469402Y-67242989D01*
X141488008Y-67363225D01*
X141545448Y-67414617D01*
X141608777Y-67373110D01*
X141692071Y-67311647D01*
X141711393Y-67309054D01*
X141746826Y-67347271D01*
X141738159Y-67367727D01*
X141748095Y-67447423D01*
X141775691Y-67472006D01*
X141819895Y-67480493D01*
X141804513Y-67444847D01*
X141799199Y-67384020D01*
X141864636Y-67375341D01*
X141958976Y-67414293D01*
X142020354Y-67468146D01*
X142098973Y-67532591D01*
X142132730Y-67531559D01*
X142120016Y-67467243D01*
X142050953Y-67372468D01*
X141984587Y-67281604D01*
X141988312Y-67246027D01*
X142039458Y-67233830D01*
X141997668Y-67205049D01*
X141892842Y-67171403D01*
X141754880Y-67144611D01*
X141718668Y-67140352D01*
X141559546Y-67134581D01*
X141487986Y-67170019D01*
X141469402Y-67242989D01*
X141139752Y-67242989D01*
X141105781Y-67194784D01*
X141108229Y-67115061D01*
X141120357Y-67066533D01*
X141090023Y-67078359D01*
X141015696Y-67066312D01*
X140986189Y-67021075D01*
X140923726Y-66956180D01*
X140885044Y-66962129D01*
X140831923Y-66945315D01*
X140819104Y-66887340D01*
X140799030Y-66854464D01*
X140747538Y-66934511D01*
X140727606Y-66978161D01*
X140634469Y-67128253D01*
X140512511Y-67181430D01*
X140477964Y-67183000D01*
X140351596Y-67152388D01*
X140317353Y-67093711D01*
X140269698Y-66992501D01*
X140238569Y-66972632D01*
X140236476Y-66971349D01*
X140353103Y-66971349D01*
X140360445Y-67032878D01*
X140417959Y-67082471D01*
X140488680Y-67038178D01*
X140540051Y-66923569D01*
X140544383Y-66899715D01*
X140528071Y-66836350D01*
X141073680Y-66836350D01*
X141105194Y-66867863D01*
X141136708Y-66836350D01*
X141105194Y-66804836D01*
X141199735Y-66804836D01*
X141222796Y-66856715D01*
X141241753Y-66846854D01*
X141249296Y-66772056D01*
X141241753Y-66762818D01*
X141204283Y-66771470D01*
X141199735Y-66804836D01*
X141105194Y-66804836D01*
X141073680Y-66836350D01*
X140528071Y-66836350D01*
X140527836Y-66835436D01*
X140499874Y-66840405D01*
X140472202Y-66916170D01*
X140484232Y-66945956D01*
X140482230Y-66989077D01*
X140425443Y-66976325D01*
X140353103Y-66971349D01*
X140236476Y-66971349D01*
X140192123Y-66944156D01*
X140238569Y-66935866D01*
X140308570Y-66880152D01*
X140317353Y-66836350D01*
X140373389Y-66760023D01*
X140490678Y-66738102D01*
X140602642Y-66727911D01*
X140602713Y-66695614D01*
X140563888Y-66666064D01*
X140498751Y-66588290D01*
X140522032Y-66472815D01*
X140532374Y-66449666D01*
X140610482Y-66331807D01*
X140707095Y-66316002D01*
X140851638Y-66399563D01*
X140876364Y-66418262D01*
X141025697Y-66533103D01*
X140813336Y-66503360D01*
X140684302Y-66494830D01*
X140638880Y-66511988D01*
X140642681Y-66518111D01*
X140730699Y-66557151D01*
X140860876Y-66581979D01*
X140997122Y-66618456D01*
X141060775Y-66671581D01*
X141126282Y-66738604D01*
X141145680Y-66741809D01*
X141178387Y-66702870D01*
X141168154Y-66678673D01*
X141190699Y-66667887D01*
X141292903Y-66713879D01*
X141357067Y-66750020D01*
X141508109Y-66864066D01*
X141554095Y-66960838D01*
X141550924Y-66973303D01*
X141547438Y-67030224D01*
X141624211Y-67002019D01*
X141770254Y-66982510D01*
X141914207Y-67036380D01*
X142078280Y-67094010D01*
X142215534Y-67099785D01*
X142312056Y-67098525D01*
X142334226Y-67125873D01*
X142284854Y-67179813D01*
X142260694Y-67183000D01*
X142217735Y-67207766D01*
X142227658Y-67223495D01*
X142302169Y-67223475D01*
X142358606Y-67188921D01*
X142453464Y-67149758D01*
X142489903Y-67179939D01*
X142498736Y-67240686D01*
X142483468Y-67246027D01*
X142489225Y-67277036D01*
X142558532Y-67338564D01*
X142633175Y-67408244D01*
X142602359Y-67433104D01*
X142586335Y-67434070D01*
X142527210Y-67448303D01*
X142575863Y-67490330D01*
X142623188Y-67542101D01*
X142560106Y-67581928D01*
X142475858Y-67584123D01*
X142460281Y-67555466D01*
X142420453Y-67522187D01*
X142388255Y-67535211D01*
X142378820Y-67591524D01*
X142482796Y-67666998D01*
X142604859Y-67741174D01*
X142648341Y-67787416D01*
X142601854Y-67788959D01*
X142554822Y-67773038D01*
X142473541Y-67780486D01*
X142460281Y-67818576D01*
X142441824Y-67862619D01*
X142381497Y-67808808D01*
X142323738Y-67745361D01*
X142317490Y-67743259D01*
X142288107Y-67798251D01*
X142193681Y-67870690D01*
X142084126Y-67926304D01*
X142034847Y-67937323D01*
X141961750Y-67897270D01*
X141956062Y-67872580D01*
X141936298Y-67844786D01*
X142082117Y-67844786D01*
X142113631Y-67876300D01*
X142145144Y-67844786D01*
X142113631Y-67813273D01*
X142082117Y-67844786D01*
X141936298Y-67844786D01*
X141923848Y-67827277D01*
X141908792Y-67832175D01*
G37*
G36*
X144603209Y-68412032D02*
G01*
X144571695Y-68443546D01*
X144540182Y-68412032D01*
X144571695Y-68380518D01*
X144603209Y-68412032D01*
G37*
G36*
X146002676Y-72206870D02*
G01*
X146018458Y-72190805D01*
X146207180Y-72061372D01*
X146387433Y-72051952D01*
X146521039Y-72135144D01*
X146609619Y-72276846D01*
X146583887Y-72424799D01*
X146465379Y-72574698D01*
X146309503Y-72698805D01*
X146171304Y-72717080D01*
X146008705Y-72634683D01*
X146003833Y-72631287D01*
X145886190Y-72507020D01*
X145886150Y-72497308D01*
X146008211Y-72497308D01*
X146009314Y-72500239D01*
X146097822Y-72580773D01*
X146240521Y-72598970D01*
X146381168Y-72553273D01*
X146428488Y-72511834D01*
X146492167Y-72365921D01*
X146445447Y-72249124D01*
X146303807Y-72194485D01*
X146279438Y-72193670D01*
X146107412Y-72237335D01*
X146008256Y-72348475D01*
X146008211Y-72497308D01*
X145886150Y-72497308D01*
X145885635Y-72370630D01*
X146002676Y-72206870D01*
G37*
G36*
X145674673Y-68601114D02*
G01*
X145643159Y-68632628D01*
X145611646Y-68601114D01*
X145643159Y-68569600D01*
X145674673Y-68601114D01*
G37*
G36*
X152702520Y-72050080D02*
G01*
X152790329Y-72085001D01*
X152796757Y-72099129D01*
X152741989Y-72143382D01*
X152610028Y-72162151D01*
X152607675Y-72162156D01*
X152474915Y-72180412D01*
X152418608Y-72224399D01*
X152418594Y-72225183D01*
X152473362Y-72269437D01*
X152605323Y-72288206D01*
X152607675Y-72288211D01*
X152740436Y-72306467D01*
X152796743Y-72350454D01*
X152796757Y-72351238D01*
X152741989Y-72395492D01*
X152610028Y-72414260D01*
X152607675Y-72414265D01*
X152457562Y-72442452D01*
X152418594Y-72508806D01*
X152473832Y-72583209D01*
X152611395Y-72603347D01*
X152737393Y-72620417D01*
X152766487Y-72664212D01*
X152765244Y-72666374D01*
X152669052Y-72720271D01*
X152522840Y-72721529D01*
X152390177Y-72672164D01*
X152368172Y-72653769D01*
X152320984Y-72546975D01*
X152294573Y-72371508D01*
X152292539Y-72307119D01*
X152292539Y-72036102D01*
X152544648Y-72036102D01*
X152702520Y-72050080D01*
G37*
G36*
X151503421Y-72155574D02*
G01*
X151573010Y-72072668D01*
X151594338Y-72064586D01*
X151640487Y-72143350D01*
X151684395Y-72293993D01*
X151690330Y-72323504D01*
X151728031Y-72505662D01*
X151763039Y-72646462D01*
X151765648Y-72655093D01*
X151781219Y-72723475D01*
X151743898Y-72693623D01*
X151707733Y-72650618D01*
X151580794Y-72557778D01*
X151453290Y-72552549D01*
X151369922Y-72634861D01*
X151312070Y-72709633D01*
X151245477Y-72731890D01*
X151221075Y-72695793D01*
X151249429Y-72601878D01*
X151320215Y-72456394D01*
X151378112Y-72354958D01*
X151473184Y-72354958D01*
X151521258Y-72412568D01*
X151536211Y-72414265D01*
X151591525Y-72362963D01*
X151599239Y-72316005D01*
X151568684Y-72250768D01*
X151536211Y-72256697D01*
X151475588Y-72337275D01*
X151473184Y-72354958D01*
X151378112Y-72354958D01*
X151412018Y-72295554D01*
X151503421Y-72155574D01*
G37*
G36*
X146144658Y-68720798D02*
G01*
X146175993Y-68725377D01*
X146286319Y-68746453D01*
X146411747Y-68716355D01*
X146487733Y-68664141D01*
X146683110Y-68664141D01*
X146714623Y-68695655D01*
X146746137Y-68664141D01*
X146714623Y-68632628D01*
X146683110Y-68664141D01*
X146487733Y-68664141D01*
X146501817Y-68654463D01*
X146514602Y-68595334D01*
X146514398Y-68519043D01*
X146602715Y-68528685D01*
X146716738Y-68587590D01*
X146827726Y-68698650D01*
X146824509Y-68817662D01*
X146793407Y-68858475D01*
X146749621Y-68942646D01*
X146825579Y-68987610D01*
X146873554Y-68993564D01*
X146961058Y-68976311D01*
X146958356Y-68934211D01*
X146954744Y-68895161D01*
X146988508Y-68910232D01*
X147057564Y-68982421D01*
X147025403Y-69036732D01*
X146916345Y-69066684D01*
X146848187Y-69066310D01*
X146872192Y-69042305D01*
X146840678Y-69010791D01*
X146809164Y-69042305D01*
X146833086Y-69066227D01*
X146754710Y-69065796D01*
X146564820Y-69027586D01*
X146557055Y-69025212D01*
X146370625Y-68967446D01*
X146229269Y-68923690D01*
X146194648Y-68912993D01*
X146124932Y-68837797D01*
X146116184Y-68790196D01*
X146620082Y-68790196D01*
X146651596Y-68821709D01*
X146683110Y-68790196D01*
X146746137Y-68790196D01*
X146777651Y-68821709D01*
X146809164Y-68790196D01*
X146777651Y-68758682D01*
X146746137Y-68790196D01*
X146683110Y-68790196D01*
X146651596Y-68758682D01*
X146620082Y-68790196D01*
X146116184Y-68790196D01*
X146115864Y-68788454D01*
X146144658Y-68720798D01*
G37*
G36*
X142805252Y-67480199D02*
G01*
X142855620Y-67505215D01*
X142968428Y-67565653D01*
X143013293Y-67592233D01*
X142985553Y-67636723D01*
X142922410Y-67693994D01*
X142851894Y-67739933D01*
X142861579Y-67702975D01*
X142871819Y-67633870D01*
X142848908Y-67624191D01*
X142776877Y-67573880D01*
X142752065Y-67528192D01*
X142742043Y-67466536D01*
X142805252Y-67480199D01*
G37*
G36*
X145278146Y-72087029D02*
G01*
X145381297Y-72208672D01*
X145454077Y-72306359D01*
X145643159Y-72571834D01*
X145662610Y-72302531D01*
X145686364Y-72147816D01*
X145723690Y-72070648D01*
X145741394Y-72069898D01*
X145779195Y-72152886D01*
X145797498Y-72308746D01*
X145796189Y-72485912D01*
X145775154Y-72632823D01*
X145742771Y-72694754D01*
X145672955Y-72671591D01*
X145559797Y-72572612D01*
X145490662Y-72495031D01*
X145296509Y-72259490D01*
X145296509Y-72459213D01*
X145278428Y-72610057D01*
X145234798Y-72697031D01*
X145233482Y-72697888D01*
X145195695Y-72665430D01*
X145174256Y-72522083D01*
X145170455Y-72386471D01*
X145178139Y-72195963D01*
X145197982Y-72069711D01*
X145217725Y-72038493D01*
X145278146Y-72087029D01*
G37*
G36*
X139371943Y-64567367D02*
G01*
X139340430Y-64598881D01*
X139308916Y-64567367D01*
X139340430Y-64535853D01*
X139371943Y-64567367D01*
G37*
G36*
X148057949Y-72051932D02*
G01*
X148130832Y-72090857D01*
X148132737Y-72099129D01*
X148078800Y-72146508D01*
X147975169Y-72162156D01*
X147856721Y-72183731D01*
X147817601Y-72225183D01*
X147871538Y-72272563D01*
X147975169Y-72288211D01*
X148093617Y-72309786D01*
X148132737Y-72351238D01*
X148078800Y-72398617D01*
X147975169Y-72414265D01*
X147855227Y-72440297D01*
X147818266Y-72542796D01*
X147817601Y-72571834D01*
X147796026Y-72690281D01*
X147754574Y-72729402D01*
X147720058Y-72672415D01*
X147697165Y-72525413D01*
X147691546Y-72382752D01*
X147691546Y-72036102D01*
X147912142Y-72036102D01*
X148057949Y-72051932D01*
G37*
G36*
X150322094Y-72053849D02*
G01*
X150370206Y-72099129D01*
X150347892Y-72145865D01*
X150247871Y-72162156D01*
X150127656Y-72183277D01*
X150086584Y-72225183D01*
X150139017Y-72277459D01*
X150204921Y-72288211D01*
X150355708Y-72332742D01*
X150428583Y-72438436D01*
X150418283Y-72563440D01*
X150319547Y-72665901D01*
X150255549Y-72690817D01*
X150112206Y-72722888D01*
X150032570Y-72707566D01*
X149959644Y-72633794D01*
X149959265Y-72633338D01*
X149912784Y-72536035D01*
X149923461Y-72493352D01*
X149987948Y-72497532D01*
X150018779Y-72532590D01*
X150114497Y-72590085D01*
X150238012Y-72578003D01*
X150319430Y-72503573D01*
X150320175Y-72501420D01*
X150283075Y-72442155D01*
X150161150Y-72394598D01*
X150152073Y-72392698D01*
X150000910Y-72339787D01*
X149970571Y-72258617D01*
X150056955Y-72137771D01*
X150059572Y-72135144D01*
X150197988Y-72047902D01*
X150322094Y-72053849D01*
G37*
G36*
X154634737Y-68175216D02*
G01*
X154666567Y-68317491D01*
X154651342Y-68450294D01*
X154614662Y-68506560D01*
X154614044Y-68506573D01*
X154554879Y-68463310D01*
X154554058Y-68459303D01*
X154552777Y-68368602D01*
X154506156Y-68318009D01*
X154425859Y-68282928D01*
X154339474Y-68240812D01*
X154367853Y-68193454D01*
X154379869Y-68185511D01*
X154536323Y-68125785D01*
X154634737Y-68175216D01*
G37*
G36*
X154792622Y-68023364D02*
G01*
X154783970Y-68060833D01*
X154750603Y-68065382D01*
X154698725Y-68042321D01*
X154708585Y-68023364D01*
X154783384Y-68015821D01*
X154792622Y-68023364D01*
G37*
G36*
X154056338Y-68368587D02*
G01*
X153994053Y-68499185D01*
X153827886Y-68610550D01*
X153784051Y-68628685D01*
X153582224Y-68688124D01*
X153474390Y-68679149D01*
X153465664Y-68605287D01*
X153530251Y-68544529D01*
X153659357Y-68473424D01*
X153813986Y-68407595D01*
X153955147Y-68362670D01*
X154043846Y-68354273D01*
X154056338Y-68368587D01*
G37*
G36*
X140433669Y-66200058D02*
G01*
X140501332Y-66263520D01*
X140487452Y-66300004D01*
X140478641Y-66300618D01*
X140425331Y-66255851D01*
X140405875Y-66227852D01*
X140398447Y-66184723D01*
X140433669Y-66200058D01*
G37*
G36*
X155006924Y-67965363D02*
G01*
X155037800Y-67904694D01*
X155065018Y-67907367D01*
X155100082Y-67896853D01*
X155086950Y-67840664D01*
X155049350Y-67778793D01*
X155003033Y-67820182D01*
X154970600Y-67877419D01*
X154898945Y-67965683D01*
X154851828Y-67950141D01*
X154861231Y-67861929D01*
X154943662Y-67746273D01*
X154944826Y-67745105D01*
X155048862Y-67659153D01*
X155112372Y-67666445D01*
X155135241Y-67695536D01*
X155182095Y-67739012D01*
X155191794Y-67718732D01*
X155218908Y-67707183D01*
X155252460Y-67748582D01*
X155270680Y-67852710D01*
X155235738Y-67889428D01*
X155194482Y-67930460D01*
X155239065Y-67938362D01*
X155312333Y-67977774D01*
X155317849Y-68000137D01*
X155269830Y-68075145D01*
X155166098Y-68138752D01*
X155067143Y-68158651D01*
X155042513Y-68147201D01*
X155026622Y-68110554D01*
X155072130Y-68110554D01*
X155135285Y-68097330D01*
X155147242Y-68092843D01*
X155224422Y-68042914D01*
X155224976Y-68014527D01*
X155158302Y-68021597D01*
X155111960Y-68057561D01*
X155072130Y-68110554D01*
X155026622Y-68110554D01*
X155006755Y-68064740D01*
X155006924Y-67965363D01*
G37*
G36*
X154309412Y-68349005D02*
G01*
X154277899Y-68380518D01*
X154246385Y-68349005D01*
X154277899Y-68317491D01*
X154309412Y-68349005D01*
G37*
G36*
X143153581Y-67655704D02*
G01*
X143122067Y-67687218D01*
X143090554Y-67655704D01*
X143122067Y-67624191D01*
X143153581Y-67655704D01*
G37*
G36*
X138784924Y-63946293D02*
G01*
X138773184Y-63968608D01*
X138713799Y-64028799D01*
X138702717Y-64031635D01*
X138698417Y-63990923D01*
X138710157Y-63968608D01*
X138769542Y-63908416D01*
X138780623Y-63905580D01*
X138784924Y-63946293D01*
G37*
G36*
X144286241Y-66537662D02*
G01*
X144288072Y-66552727D01*
X144240110Y-66613923D01*
X144225045Y-66615754D01*
X144163849Y-66567792D01*
X144162018Y-66552727D01*
X144209980Y-66491531D01*
X144225045Y-66489700D01*
X144286241Y-66537662D01*
G37*
G36*
X148645434Y-69580304D02*
G01*
X148668961Y-69635046D01*
X148686346Y-69692892D01*
X148642397Y-69675941D01*
X148591441Y-69584270D01*
X148597936Y-69543358D01*
X148590158Y-69485183D01*
X148539205Y-69493449D01*
X148460164Y-69496456D01*
X148461267Y-69472992D01*
X148910074Y-69472992D01*
X148918726Y-69510461D01*
X148952092Y-69515010D01*
X148961325Y-69510906D01*
X149093600Y-69510906D01*
X149102221Y-69515010D01*
X149156690Y-69472992D01*
X149414292Y-69472992D01*
X149422944Y-69510461D01*
X149456311Y-69515010D01*
X149508189Y-69491949D01*
X149498329Y-69472992D01*
X149423530Y-69465448D01*
X149414292Y-69472992D01*
X149156690Y-69472992D01*
X149159739Y-69470640D01*
X149172688Y-69451982D01*
X149188748Y-69393059D01*
X149180127Y-69388955D01*
X149122609Y-69433325D01*
X149109661Y-69451982D01*
X149093600Y-69510906D01*
X148961325Y-69510906D01*
X149003971Y-69491949D01*
X148994110Y-69472992D01*
X148919312Y-69465448D01*
X148910074Y-69472992D01*
X148461267Y-69472992D01*
X148463547Y-69424478D01*
X148525766Y-69327906D01*
X148636956Y-69327906D01*
X148688035Y-69382078D01*
X148731497Y-69388955D01*
X148815588Y-69375470D01*
X148826038Y-69364185D01*
X148817860Y-69357441D01*
X148889065Y-69357441D01*
X148920579Y-69388955D01*
X148952092Y-69357441D01*
X149015120Y-69357441D01*
X149046633Y-69388955D01*
X149078147Y-69357441D01*
X149046633Y-69325928D01*
X149015120Y-69357441D01*
X148952092Y-69357441D01*
X148920579Y-69325928D01*
X148889065Y-69357441D01*
X148817860Y-69357441D01*
X148776753Y-69323544D01*
X148731497Y-69303135D01*
X148650339Y-69301825D01*
X148636956Y-69327906D01*
X148525766Y-69327906D01*
X148546648Y-69295495D01*
X148573928Y-69262901D01*
X148663249Y-69181640D01*
X148699801Y-69197682D01*
X148699983Y-69202835D01*
X148718815Y-69254336D01*
X148750261Y-69231387D01*
X148826038Y-69231387D01*
X148857551Y-69262901D01*
X148889065Y-69231387D01*
X148857551Y-69199873D01*
X148826038Y-69231387D01*
X148750261Y-69231387D01*
X148774116Y-69213978D01*
X148874392Y-69176140D01*
X148915928Y-69194824D01*
X149051945Y-69255595D01*
X149234759Y-69282717D01*
X149410033Y-69273734D01*
X149511025Y-69231387D01*
X150086584Y-69231387D01*
X150118097Y-69262901D01*
X150149611Y-69231387D01*
X150118097Y-69199873D01*
X150086584Y-69231387D01*
X149511025Y-69231387D01*
X149523433Y-69226184D01*
X149526741Y-69222466D01*
X149626540Y-69173535D01*
X149794813Y-69149796D01*
X149989241Y-69149835D01*
X150167501Y-69172240D01*
X150287273Y-69215597D01*
X150313067Y-69248719D01*
X150309948Y-69284019D01*
X150296323Y-69261846D01*
X150231629Y-69234841D01*
X150165308Y-69276027D01*
X150076267Y-69335667D01*
X150045383Y-69341685D01*
X149974438Y-69331548D01*
X149825938Y-69326183D01*
X149782363Y-69325928D01*
X149626776Y-69332961D01*
X149564502Y-69372487D01*
X149562891Y-69472146D01*
X149567826Y-69507546D01*
X149565729Y-69651585D01*
X149525396Y-69731861D01*
X149463161Y-69730361D01*
X149456311Y-69704092D01*
X149417776Y-69663309D01*
X149392255Y-69673213D01*
X149355897Y-69748748D01*
X149364461Y-69771474D01*
X149377278Y-69827150D01*
X149369209Y-69830146D01*
X149311603Y-69785882D01*
X149299702Y-69768671D01*
X149216266Y-69731170D01*
X149076884Y-69728716D01*
X148951199Y-69727091D01*
X148932416Y-69684939D01*
X148925809Y-69645765D01*
X148875571Y-69656942D01*
X148749458Y-69651486D01*
X148732356Y-69641064D01*
X149078147Y-69641064D01*
X149101208Y-69692943D01*
X149120165Y-69683082D01*
X149127708Y-69608284D01*
X149120165Y-69599046D01*
X149082695Y-69607698D01*
X149078147Y-69641064D01*
X148732356Y-69641064D01*
X148698417Y-69620382D01*
X148645434Y-69580304D01*
G37*
G36*
X137956053Y-62473534D02*
G01*
X138000402Y-62548162D01*
X138030563Y-62647037D01*
X138028264Y-62706464D01*
X138023326Y-62708062D01*
X137969371Y-62674495D01*
X137887091Y-62613366D01*
X137803541Y-62545586D01*
X137819815Y-62539034D01*
X137885384Y-62561050D01*
X137968622Y-62575915D01*
X137956733Y-62518594D01*
X137954064Y-62513934D01*
X137934831Y-62461405D01*
X137956053Y-62473534D01*
G37*
G36*
X138829710Y-64300845D02*
G01*
X138830628Y-64299832D01*
X138827382Y-64228095D01*
X138789480Y-64163489D01*
X138762542Y-64116196D01*
X138823449Y-64158057D01*
X138847991Y-64178633D01*
X138946451Y-64255309D01*
X138989644Y-64248451D01*
X139011727Y-64178633D01*
X139024625Y-64148495D01*
X139018749Y-64228615D01*
X139016828Y-64244159D01*
X139010459Y-64363382D01*
X139044230Y-64378921D01*
X139082748Y-64351396D01*
X139175339Y-64312767D01*
X139213119Y-64344739D01*
X139293828Y-64379730D01*
X139329028Y-64367215D01*
X139356495Y-64369196D01*
X139316956Y-64429214D01*
X139224324Y-64524639D01*
X139188662Y-64515110D01*
X139190325Y-64488583D01*
X139186028Y-64388549D01*
X139124263Y-64400695D01*
X139084302Y-64436327D01*
X139021587Y-64539289D01*
X139024994Y-64598397D01*
X139056621Y-64665212D01*
X139028976Y-64654977D01*
X138965014Y-64586185D01*
X138901451Y-64498871D01*
X138839952Y-64380195D01*
X138884026Y-64380195D01*
X138896647Y-64405606D01*
X138956746Y-64470767D01*
X138967801Y-64424814D01*
X138952502Y-64375567D01*
X138906100Y-64306927D01*
X138885141Y-64308346D01*
X138884026Y-64380195D01*
X138839952Y-64380195D01*
X138837211Y-64374905D01*
X138829710Y-64300845D01*
G37*
G36*
X137711568Y-63376948D02*
G01*
X137701720Y-63401362D01*
X137645083Y-63461489D01*
X137634973Y-63464389D01*
X137607902Y-63415626D01*
X137607179Y-63401362D01*
X137655631Y-63340757D01*
X137673926Y-63338335D01*
X137711568Y-63376948D01*
G37*
G36*
X154907725Y-68129131D02*
G01*
X154840314Y-68181378D01*
X154768072Y-68190147D01*
X154750603Y-68166666D01*
X154800042Y-68126187D01*
X154848418Y-68104361D01*
X154913479Y-68099956D01*
X154907725Y-68129131D01*
G37*
G36*
X138489561Y-64189203D02*
G01*
X138458048Y-64220717D01*
X138426534Y-64189203D01*
X138458048Y-64157690D01*
X138489561Y-64189203D01*
G37*
G36*
X142000727Y-72087029D02*
G01*
X142103878Y-72208672D01*
X142176658Y-72306359D01*
X142365740Y-72571834D01*
X142385191Y-72302531D01*
X142408945Y-72147816D01*
X142446270Y-72070648D01*
X142463975Y-72069898D01*
X142501776Y-72152886D01*
X142520079Y-72308746D01*
X142518769Y-72485912D01*
X142497735Y-72632823D01*
X142465352Y-72694754D01*
X142395536Y-72671591D01*
X142282378Y-72572612D01*
X142213243Y-72495031D01*
X142019090Y-72259490D01*
X142019090Y-72459213D01*
X142001008Y-72610057D01*
X141957379Y-72697031D01*
X141956062Y-72697888D01*
X141918276Y-72665430D01*
X141896836Y-72522083D01*
X141893035Y-72386471D01*
X141900720Y-72195963D01*
X141920563Y-72069711D01*
X141940306Y-72038493D01*
X142000727Y-72087029D01*
G37*
G36*
X146742126Y-69231387D02*
G01*
X146756127Y-69314380D01*
X146797379Y-69280637D01*
X146809164Y-69262901D01*
X146861182Y-69204827D01*
X146866082Y-69251031D01*
X146833935Y-69352287D01*
X146774655Y-69441834D01*
X146701079Y-69414565D01*
X146630590Y-69319332D01*
X146589945Y-69234745D01*
X146610046Y-69225184D01*
X146684566Y-69214674D01*
X146704264Y-69184509D01*
X146731329Y-69170018D01*
X146742126Y-69231387D01*
G37*
G36*
X140705917Y-72256697D02*
G01*
X140821571Y-72256697D01*
X140855604Y-72340572D01*
X140884598Y-72351238D01*
X140940515Y-72300189D01*
X140947626Y-72256697D01*
X140913593Y-72172822D01*
X140884598Y-72162156D01*
X140828682Y-72213206D01*
X140821571Y-72256697D01*
X140705917Y-72256697D01*
X140709584Y-72199419D01*
X140755222Y-72083488D01*
X140790860Y-72058586D01*
X140919053Y-72066071D01*
X141026702Y-72153386D01*
X141062415Y-72278140D01*
X141061824Y-72282103D01*
X141077883Y-72423434D01*
X141098124Y-72467027D01*
X141114026Y-72571368D01*
X141012240Y-72653556D01*
X140868842Y-72700261D01*
X140767313Y-72719561D01*
X140716017Y-72693537D01*
X140697801Y-72594368D01*
X140697097Y-72540320D01*
X140821571Y-72540320D01*
X140872621Y-72596236D01*
X140916112Y-72603347D01*
X140999987Y-72569314D01*
X141010653Y-72540320D01*
X140959604Y-72484403D01*
X140916112Y-72477293D01*
X140832237Y-72511326D01*
X140821571Y-72540320D01*
X140697097Y-72540320D01*
X140695517Y-72419120D01*
X140705917Y-72256697D01*
G37*
G36*
X145165306Y-68442857D02*
G01*
X145353300Y-68493005D01*
X145391094Y-68506590D01*
X145511271Y-68574554D01*
X145524594Y-68633744D01*
X145450224Y-68672404D01*
X145307327Y-68678781D01*
X145153926Y-68652060D01*
X145077885Y-68602472D01*
X145078862Y-68564830D01*
X145053493Y-68522170D01*
X144953579Y-68506573D01*
X144833339Y-68487035D01*
X144792291Y-68448298D01*
X144846503Y-68416775D01*
X144983607Y-68416204D01*
X145165306Y-68442857D01*
G37*
G36*
X139497998Y-64504340D02*
G01*
X139466484Y-64535853D01*
X139434971Y-64504340D01*
X139466484Y-64472826D01*
X139497998Y-64504340D01*
G37*
G36*
X139777622Y-66375929D02*
G01*
X139690946Y-66380896D01*
X139527187Y-66371819D01*
X139415430Y-66272390D01*
X139390444Y-66121548D01*
X139432970Y-66016995D01*
X139497998Y-66016995D01*
X139529512Y-66048508D01*
X139561025Y-66016995D01*
X139687080Y-66016995D01*
X139718594Y-66048508D01*
X139750107Y-66016995D01*
X139718594Y-65985481D01*
X139687080Y-66016995D01*
X139561025Y-66016995D01*
X139529512Y-65985481D01*
X139497998Y-66016995D01*
X139432970Y-66016995D01*
X139448794Y-65978091D01*
X139549043Y-65897146D01*
X139646538Y-65904837D01*
X139675762Y-65899536D01*
X139661585Y-65869165D01*
X139567228Y-65808193D01*
X139492300Y-65796399D01*
X139370756Y-65749922D01*
X139320913Y-65644147D01*
X139365339Y-65529559D01*
X139370658Y-65524297D01*
X139420754Y-65492944D01*
X139416066Y-65559145D01*
X139402711Y-65607317D01*
X139383945Y-65706995D01*
X139403914Y-65719833D01*
X139497488Y-65706608D01*
X139620755Y-65779740D01*
X139740783Y-65916187D01*
X139780498Y-65983311D01*
X139875222Y-66166485D01*
X139655096Y-66130764D01*
X139490156Y-66122309D01*
X139434982Y-66169164D01*
X139434971Y-66170278D01*
X139485673Y-66227231D01*
X139545268Y-66231866D01*
X139701887Y-66241844D01*
X139765864Y-66259418D01*
X139945480Y-66322278D01*
X140029115Y-66337406D01*
X140036507Y-66307055D01*
X140026664Y-66289185D01*
X140024669Y-66243664D01*
X140102175Y-66261137D01*
X140155819Y-66267299D01*
X140113805Y-66206727D01*
X140045360Y-66139416D01*
X139939736Y-66026476D01*
X139896216Y-65951451D01*
X139898799Y-65941835D01*
X139975347Y-65928850D01*
X140078846Y-65961904D01*
X140152536Y-66016547D01*
X140156980Y-66053046D01*
X140168952Y-66106896D01*
X140194929Y-66111536D01*
X140241715Y-66161797D01*
X140232801Y-66250067D01*
X140229061Y-66391706D01*
X140259139Y-66463986D01*
X140276618Y-66562841D01*
X140220485Y-66640590D01*
X140069535Y-66733258D01*
X139920569Y-66700608D01*
X139845525Y-66639141D01*
X139778433Y-66521468D01*
X139778520Y-66507766D01*
X139823294Y-66507766D01*
X139838630Y-66542989D01*
X139902091Y-66610651D01*
X139938576Y-66596771D01*
X139939189Y-66587960D01*
X139894422Y-66534651D01*
X139866423Y-66515195D01*
X139823294Y-66507766D01*
X139778520Y-66507766D01*
X139778834Y-66458186D01*
X139939189Y-66458186D01*
X139970703Y-66489700D01*
X140002216Y-66458186D01*
X139970703Y-66426672D01*
X139939189Y-66458186D01*
X139778834Y-66458186D01*
X139778933Y-66442463D01*
X139777622Y-66375929D01*
G37*
G36*
X138046451Y-63762367D02*
G01*
X138070119Y-63808321D01*
X138086247Y-63897130D01*
X138043908Y-63879893D01*
X138014265Y-63838360D01*
X137994891Y-63755869D01*
X138002759Y-63741101D01*
X138046451Y-63762367D01*
G37*
G36*
X151013097Y-72068208D02*
G01*
X151080209Y-72149148D01*
X151065682Y-72202380D01*
X150954719Y-72192352D01*
X150948799Y-72190886D01*
X150796826Y-72206461D01*
X150691789Y-72323192D01*
X150653829Y-72512909D01*
X150675686Y-72580543D01*
X150762684Y-72597621D01*
X150890182Y-72582959D01*
X151036335Y-72563605D01*
X151074750Y-72574862D01*
X151021663Y-72624528D01*
X151004190Y-72637739D01*
X150840729Y-72721138D01*
X150701285Y-72691327D01*
X150624678Y-72628219D01*
X150557095Y-72482277D01*
X150596893Y-72309923D01*
X150732585Y-72143752D01*
X150883845Y-72059943D01*
X151013097Y-72068208D01*
G37*
G36*
X147433054Y-69015439D02*
G01*
X147511239Y-69071722D01*
X147609447Y-69158154D01*
X147613324Y-69191283D01*
X147525979Y-69197776D01*
X147525939Y-69197776D01*
X147378482Y-69156094D01*
X147310907Y-69102349D01*
X147235710Y-69040758D01*
X147178100Y-69086592D01*
X147136210Y-69125047D01*
X147125266Y-69058062D01*
X147168930Y-68968272D01*
X147281738Y-68954425D01*
X147433054Y-69015439D01*
G37*
G36*
X147114986Y-72047439D02*
G01*
X147229088Y-72076425D01*
X147250355Y-72099129D01*
X147197567Y-72150337D01*
X147124301Y-72162156D01*
X147045527Y-72180713D01*
X147008277Y-72257770D01*
X146998294Y-72425404D01*
X146998246Y-72445779D01*
X146985728Y-72614925D01*
X146954055Y-72716388D01*
X146935219Y-72729402D01*
X146897631Y-72673069D01*
X146875084Y-72530540D01*
X146872192Y-72445779D01*
X146863944Y-72268537D01*
X146829696Y-72184725D01*
X146755192Y-72162264D01*
X146746137Y-72162156D01*
X146643720Y-72135762D01*
X146620082Y-72099129D01*
X146676767Y-72063175D01*
X146821702Y-72040355D01*
X146935219Y-72036102D01*
X147114986Y-72047439D01*
G37*
G36*
X138678643Y-64252231D02*
G01*
X138647129Y-64283744D01*
X138615616Y-64252231D01*
X138647129Y-64220717D01*
X138678643Y-64252231D01*
G37*
G36*
X143941422Y-66426672D02*
G01*
X143946003Y-66531160D01*
X143924136Y-66563710D01*
X143846873Y-66586329D01*
X143815368Y-66552727D01*
X143810787Y-66448239D01*
X143832654Y-66415689D01*
X143909917Y-66393070D01*
X143941422Y-66426672D01*
G37*
G36*
X145863755Y-68790196D02*
G01*
X145832241Y-68821709D01*
X145800727Y-68790196D01*
X145832241Y-68758682D01*
X145863755Y-68790196D01*
G37*
G36*
X148334686Y-72206870D02*
G01*
X148350468Y-72190805D01*
X148539190Y-72061372D01*
X148719443Y-72051952D01*
X148853049Y-72135144D01*
X148941628Y-72276846D01*
X148915897Y-72424799D01*
X148797389Y-72574698D01*
X148641513Y-72698805D01*
X148503314Y-72717080D01*
X148340715Y-72634683D01*
X148335843Y-72631287D01*
X148218200Y-72507020D01*
X148218160Y-72497308D01*
X148340221Y-72497308D01*
X148341324Y-72500239D01*
X148429832Y-72580773D01*
X148572531Y-72598970D01*
X148713178Y-72553273D01*
X148760498Y-72511834D01*
X148824177Y-72365921D01*
X148777457Y-72249124D01*
X148635817Y-72194485D01*
X148611448Y-72193670D01*
X148439422Y-72237335D01*
X148340266Y-72348475D01*
X148340221Y-72497308D01*
X148218160Y-72497308D01*
X148217645Y-72370630D01*
X148334686Y-72206870D01*
G37*
G36*
X138426534Y-64315258D02*
G01*
X138395020Y-64346771D01*
X138363507Y-64315258D01*
X138395020Y-64283744D01*
X138426534Y-64315258D01*
G37*
G36*
X138552589Y-64693422D02*
G01*
X138521075Y-64724935D01*
X138489561Y-64693422D01*
X138521075Y-64661908D01*
X138552589Y-64693422D01*
G37*
G36*
X151578230Y-67582173D02*
G01*
X151569578Y-67619642D01*
X151536211Y-67624191D01*
X151484333Y-67601130D01*
X151494193Y-67582173D01*
X151568992Y-67574630D01*
X151578230Y-67582173D01*
G37*
G36*
X150959246Y-69113122D02*
G01*
X150968966Y-69128653D01*
X150913811Y-69233814D01*
X150779662Y-69310821D01*
X150613492Y-69336204D01*
X150565192Y-69330396D01*
X150447124Y-69296623D01*
X150439306Y-69253783D01*
X150470651Y-69224499D01*
X150581975Y-69167422D01*
X150730934Y-69123983D01*
X150871901Y-69102958D01*
X150959246Y-69113122D01*
G37*
G36*
X141640926Y-67214513D02*
G01*
X141609412Y-67246027D01*
X141577899Y-67214513D01*
X141609412Y-67183000D01*
X141640926Y-67214513D01*
G37*
G36*
X148072276Y-69135991D02*
G01*
X148121933Y-69077888D01*
X148151646Y-69073819D01*
X148265418Y-69116974D01*
X148361267Y-69210989D01*
X148384847Y-69275506D01*
X148368861Y-69312725D01*
X148296714Y-69310422D01*
X148180008Y-69282481D01*
X148107511Y-69231387D01*
X148258792Y-69231387D01*
X148290306Y-69262901D01*
X148321819Y-69231387D01*
X148290306Y-69199873D01*
X148258792Y-69231387D01*
X148107511Y-69231387D01*
X148094041Y-69221894D01*
X148072276Y-69135991D01*
G37*
G36*
X152461966Y-68924271D02*
G01*
X152399674Y-68923732D01*
X152358354Y-68936506D01*
X152387080Y-68900961D01*
X152478015Y-68849052D01*
X152641277Y-68787067D01*
X152837292Y-68726384D01*
X153026489Y-68678381D01*
X153169294Y-68654435D01*
X153223714Y-68660411D01*
X153210710Y-68692996D01*
X153185426Y-68695655D01*
X153118944Y-68745995D01*
X153111894Y-68783363D01*
X153058159Y-68862683D01*
X152954326Y-68910619D01*
X152836208Y-68963904D01*
X152796757Y-69019710D01*
X152831263Y-69048978D01*
X152893969Y-69008574D01*
X152991441Y-68960147D01*
X153067294Y-69005359D01*
X153102551Y-69064115D01*
X153080380Y-69070857D01*
X152967198Y-69065320D01*
X152937355Y-69095757D01*
X152967568Y-69124220D01*
X152999785Y-69180943D01*
X152930415Y-69243525D01*
X152802844Y-69279855D01*
X152734699Y-69263499D01*
X152696642Y-69216314D01*
X152771852Y-69182054D01*
X152844604Y-69158270D01*
X152798524Y-69147049D01*
X152751704Y-69144157D01*
X152612001Y-69086533D01*
X152545258Y-69010791D01*
X152670703Y-69010791D01*
X152693763Y-69062670D01*
X152712721Y-69052810D01*
X152720264Y-68978011D01*
X152712721Y-68968773D01*
X152675251Y-68977425D01*
X152670703Y-69010791D01*
X152545258Y-69010791D01*
X152543703Y-69009026D01*
X152461966Y-68924271D01*
G37*
G36*
X139484508Y-65325214D02*
G01*
X139607829Y-65362915D01*
X139654496Y-65393733D01*
X139732499Y-65459061D01*
X139707929Y-65480009D01*
X139667613Y-65481263D01*
X139576332Y-65515121D01*
X139561025Y-65551033D01*
X139607127Y-65592494D01*
X139658840Y-65583269D01*
X139723901Y-65578864D01*
X139718147Y-65608039D01*
X139629172Y-65668438D01*
X139527156Y-65619509D01*
X139458443Y-65516067D01*
X139443710Y-65449749D01*
X139497998Y-65449749D01*
X139529512Y-65481263D01*
X139561025Y-65449749D01*
X139529512Y-65418236D01*
X139497998Y-65449749D01*
X139443710Y-65449749D01*
X139428277Y-65380281D01*
X139484508Y-65325214D01*
G37*
G36*
X155303845Y-68491649D02*
G01*
X155306714Y-68548621D01*
X155248403Y-68653677D01*
X155158889Y-68680696D01*
X155099310Y-68635955D01*
X155088944Y-68527756D01*
X155171709Y-68453441D01*
X155231649Y-68443546D01*
X155303845Y-68491649D01*
G37*
G36*
X142712390Y-67655704D02*
G01*
X142680876Y-67687218D01*
X142649363Y-67655704D01*
X142680876Y-67624191D01*
X142712390Y-67655704D01*
G37*
G36*
X138678643Y-64126176D02*
G01*
X138647129Y-64157690D01*
X138615616Y-64126176D01*
X138647129Y-64094662D01*
X138678643Y-64126176D01*
G37*
G36*
X153237948Y-68790196D02*
G01*
X153206435Y-68821709D01*
X153174921Y-68790196D01*
X153206435Y-68758682D01*
X153237948Y-68790196D01*
G37*
G36*
X151690878Y-69287189D02*
G01*
X151670144Y-69303442D01*
X151589149Y-69373045D01*
X151483432Y-69440200D01*
X151379771Y-69490281D01*
X151356705Y-69458554D01*
X151374883Y-69377173D01*
X151413653Y-69231387D01*
X151788321Y-69231387D01*
X151819834Y-69262901D01*
X151851348Y-69231387D01*
X151977402Y-69231387D01*
X152008916Y-69262901D01*
X152040430Y-69231387D01*
X152008916Y-69199873D01*
X151977402Y-69231387D01*
X151851348Y-69231387D01*
X151819834Y-69199873D01*
X151788321Y-69231387D01*
X151413653Y-69231387D01*
X151310948Y-69371284D01*
X151227706Y-69464023D01*
X151160926Y-69458417D01*
X151115036Y-69417975D01*
X151014314Y-69358414D01*
X150960113Y-69362913D01*
X150953154Y-69423619D01*
X151012465Y-69487542D01*
X151082973Y-69553235D01*
X151048759Y-69574497D01*
X151031993Y-69575067D01*
X150897196Y-69543053D01*
X150842911Y-69515012D01*
X150796935Y-69462372D01*
X150827784Y-69389161D01*
X150939658Y-69273337D01*
X151084293Y-69148874D01*
X151223944Y-69047549D01*
X151333722Y-68984287D01*
X151388742Y-68974010D01*
X151379312Y-69009709D01*
X151395190Y-69034174D01*
X151496133Y-68999050D01*
X151536211Y-68979278D01*
X151654991Y-68928858D01*
X151700081Y-68932929D01*
X151695436Y-68945084D01*
X151713400Y-68983871D01*
X151834317Y-68977227D01*
X152043998Y-68926280D01*
X152084468Y-68914205D01*
X152188587Y-68924576D01*
X152339632Y-68980901D01*
X152352134Y-68987013D01*
X152478416Y-69065814D01*
X152504884Y-69141805D01*
X152483172Y-69196975D01*
X152371421Y-69317301D01*
X152224624Y-69385673D01*
X152191610Y-69388955D01*
X152180692Y-69335949D01*
X152192824Y-69230103D01*
X152195448Y-69123789D01*
X152161515Y-69108403D01*
X152127566Y-69181327D01*
X152134971Y-69199873D01*
X152124243Y-69276719D01*
X152103457Y-69294414D01*
X152066032Y-69369903D01*
X152074635Y-69393310D01*
X152047915Y-69437089D01*
X151933852Y-69459439D01*
X151756807Y-69466897D01*
X151945889Y-69508440D01*
X152062475Y-69542742D01*
X152064167Y-69574808D01*
X152027753Y-69592364D01*
X151893450Y-69584452D01*
X151775644Y-69513947D01*
X151696540Y-69429073D01*
X151708824Y-69391334D01*
X151713256Y-69391052D01*
X151763163Y-69350607D01*
X151761934Y-69346937D01*
X151872357Y-69346937D01*
X151881009Y-69384407D01*
X151914375Y-69388955D01*
X151966254Y-69365894D01*
X151956393Y-69346937D01*
X151881595Y-69339394D01*
X151872357Y-69346937D01*
X151761934Y-69346937D01*
X151752648Y-69319199D01*
X151690878Y-69287189D01*
G37*
G36*
X144381337Y-72155574D02*
G01*
X144450926Y-72072668D01*
X144472253Y-72064586D01*
X144518402Y-72143350D01*
X144562311Y-72293993D01*
X144568246Y-72323504D01*
X144605947Y-72505662D01*
X144640954Y-72646462D01*
X144643563Y-72655093D01*
X144659135Y-72723475D01*
X144621814Y-72693623D01*
X144585649Y-72650618D01*
X144458709Y-72557778D01*
X144331206Y-72552549D01*
X144247837Y-72634861D01*
X144189986Y-72709633D01*
X144123392Y-72731890D01*
X144098991Y-72695793D01*
X144127345Y-72601878D01*
X144198131Y-72456394D01*
X144256028Y-72354958D01*
X144351100Y-72354958D01*
X144399173Y-72412568D01*
X144414127Y-72414265D01*
X144469441Y-72362963D01*
X144477154Y-72316005D01*
X144446599Y-72250768D01*
X144414127Y-72256697D01*
X144353504Y-72337275D01*
X144351100Y-72354958D01*
X144256028Y-72354958D01*
X144289934Y-72295554D01*
X144381337Y-72155574D01*
G37*
G36*
X143783411Y-71048674D02*
G01*
X145947791Y-71048674D01*
X145956443Y-71086144D01*
X145989809Y-71090692D01*
X146041688Y-71067631D01*
X146031828Y-71048674D01*
X145957029Y-71041131D01*
X145947791Y-71048674D01*
X143783411Y-71048674D01*
X143604185Y-70996151D01*
X146431000Y-70996151D01*
X146462514Y-71027665D01*
X146466618Y-71023561D01*
X146635535Y-71023561D01*
X146644157Y-71027665D01*
X146701674Y-70983295D01*
X146706409Y-70976472D01*
X147010352Y-70976472D01*
X147033177Y-71001133D01*
X147092787Y-71027665D01*
X147199706Y-71072674D01*
X147234598Y-71086262D01*
X147249915Y-71042313D01*
X147250355Y-71027665D01*
X147215008Y-70996151D01*
X150527775Y-70996151D01*
X150559288Y-71027665D01*
X150590802Y-70996151D01*
X150968966Y-70996151D01*
X151000479Y-71027665D01*
X151031993Y-70996151D01*
X151095020Y-70996151D01*
X151126534Y-71027665D01*
X151158048Y-70996151D01*
X151221075Y-70996151D01*
X151252589Y-71027665D01*
X151284102Y-70996151D01*
X151252589Y-70964637D01*
X151221075Y-70996151D01*
X151158048Y-70996151D01*
X151126534Y-70964637D01*
X151095020Y-70996151D01*
X151031993Y-70996151D01*
X151000479Y-70964637D01*
X150968966Y-70996151D01*
X150590802Y-70996151D01*
X150559288Y-70964637D01*
X150527775Y-70996151D01*
X147215008Y-70996151D01*
X147197113Y-70980196D01*
X147108544Y-70969067D01*
X147010352Y-70976472D01*
X146706409Y-70976472D01*
X146714623Y-70964637D01*
X146723213Y-70933124D01*
X148763010Y-70933124D01*
X148794524Y-70964637D01*
X148826038Y-70933124D01*
X149015120Y-70933124D01*
X149046633Y-70964637D01*
X149078147Y-70933124D01*
X149582365Y-70933124D01*
X149613879Y-70964637D01*
X149645393Y-70933124D01*
X150401720Y-70933124D01*
X150433234Y-70964637D01*
X150464747Y-70933124D01*
X150433234Y-70901610D01*
X150401720Y-70933124D01*
X149645393Y-70933124D01*
X149613879Y-70901610D01*
X149582365Y-70933124D01*
X149078147Y-70933124D01*
X149046633Y-70901610D01*
X149015120Y-70933124D01*
X148826038Y-70933124D01*
X148794524Y-70901610D01*
X148763010Y-70933124D01*
X146723213Y-70933124D01*
X146730684Y-70905714D01*
X146722063Y-70901610D01*
X146664545Y-70945980D01*
X146651596Y-70964637D01*
X146635535Y-71023561D01*
X146466618Y-71023561D01*
X146494028Y-70996151D01*
X146462514Y-70964637D01*
X146431000Y-70996151D01*
X143604185Y-70996151D01*
X143389116Y-70933124D01*
X145674673Y-70933124D01*
X145706187Y-70964637D01*
X145737700Y-70933124D01*
X145706187Y-70901610D01*
X145674673Y-70933124D01*
X143389116Y-70933124D01*
X143174047Y-70870097D01*
X148195765Y-70870097D01*
X148227278Y-70901610D01*
X148258792Y-70870097D01*
X148384847Y-70870097D01*
X148416360Y-70901610D01*
X148447874Y-70870097D01*
X149771447Y-70870097D01*
X149802961Y-70901610D01*
X149834474Y-70870097D01*
X149802961Y-70838583D01*
X149771447Y-70870097D01*
X148447874Y-70870097D01*
X148416360Y-70838583D01*
X148384847Y-70870097D01*
X148258792Y-70870097D01*
X148227278Y-70838583D01*
X148195765Y-70870097D01*
X143174047Y-70870097D01*
X142972920Y-70811156D01*
X142962065Y-70807069D01*
X144414127Y-70807069D01*
X144445641Y-70838583D01*
X144477154Y-70807069D01*
X144540182Y-70807069D01*
X144571695Y-70838583D01*
X144603209Y-70807069D01*
X144666236Y-70807069D01*
X144697750Y-70838583D01*
X144729263Y-70807069D01*
X149897502Y-70807069D01*
X149929015Y-70838583D01*
X149956874Y-70810724D01*
X150057058Y-70810724D01*
X150095611Y-70845496D01*
X150183910Y-70894770D01*
X150192025Y-70861560D01*
X150172542Y-70807431D01*
X150172177Y-70807069D01*
X150275665Y-70807069D01*
X150307179Y-70838583D01*
X150338693Y-70807069D01*
X152103457Y-70807069D01*
X152134971Y-70838583D01*
X152166484Y-70807069D01*
X152134971Y-70775556D01*
X152103457Y-70807069D01*
X150338693Y-70807069D01*
X150307179Y-70775556D01*
X150275665Y-70807069D01*
X150172177Y-70807069D01*
X150110068Y-70745540D01*
X150073250Y-70752282D01*
X150057058Y-70810724D01*
X149956874Y-70810724D01*
X149960529Y-70807069D01*
X149929015Y-70775556D01*
X149897502Y-70807069D01*
X144729263Y-70807069D01*
X144697750Y-70775556D01*
X144666236Y-70807069D01*
X144603209Y-70807069D01*
X144571695Y-70775556D01*
X144540182Y-70807069D01*
X144477154Y-70807069D01*
X144445641Y-70775556D01*
X144414127Y-70807069D01*
X142962065Y-70807069D01*
X142627263Y-70681015D01*
X143846881Y-70681015D01*
X143878395Y-70712528D01*
X143909909Y-70681015D01*
X144035963Y-70681015D01*
X144067477Y-70712528D01*
X144098991Y-70681015D01*
X144067477Y-70649501D01*
X144035963Y-70681015D01*
X143909909Y-70681015D01*
X143878395Y-70649501D01*
X143846881Y-70681015D01*
X142627263Y-70681015D01*
X142459859Y-70617987D01*
X143594772Y-70617987D01*
X143626286Y-70649501D01*
X143657799Y-70617987D01*
X143626286Y-70586474D01*
X143594772Y-70617987D01*
X142459859Y-70617987D01*
X142292458Y-70554960D01*
X143783854Y-70554960D01*
X143815368Y-70586474D01*
X143846881Y-70554960D01*
X144981373Y-70554960D01*
X145012886Y-70586474D01*
X145044400Y-70554960D01*
X145170455Y-70554960D01*
X145201968Y-70586474D01*
X145233482Y-70554960D01*
X150905938Y-70554960D01*
X150937452Y-70586474D01*
X150968966Y-70554960D01*
X150937452Y-70523446D01*
X150905938Y-70554960D01*
X145233482Y-70554960D01*
X145201968Y-70523446D01*
X145170455Y-70554960D01*
X145044400Y-70554960D01*
X145012886Y-70523446D01*
X144981373Y-70554960D01*
X143846881Y-70554960D01*
X143815368Y-70523446D01*
X143783854Y-70554960D01*
X142292458Y-70554960D01*
X142125057Y-70491933D01*
X143279636Y-70491933D01*
X143311149Y-70523446D01*
X143342663Y-70491933D01*
X145359536Y-70491933D01*
X145391050Y-70523446D01*
X145422564Y-70491933D01*
X145391050Y-70460419D01*
X145359536Y-70491933D01*
X143342663Y-70491933D01*
X143311149Y-70460419D01*
X143279636Y-70491933D01*
X142125057Y-70491933D01*
X142050016Y-70463680D01*
X141947960Y-70415458D01*
X152743890Y-70415458D01*
X152759225Y-70450681D01*
X152822687Y-70518344D01*
X152859171Y-70504464D01*
X152859785Y-70495652D01*
X152815018Y-70442343D01*
X152787019Y-70422887D01*
X152743890Y-70415458D01*
X141947960Y-70415458D01*
X141843030Y-70365878D01*
X144414127Y-70365878D01*
X144445641Y-70397392D01*
X144477154Y-70365878D01*
X152040430Y-70365878D01*
X152071943Y-70397392D01*
X152103457Y-70365878D01*
X152229512Y-70365878D01*
X152261025Y-70397392D01*
X152292539Y-70365878D01*
X152261025Y-70334365D01*
X152229512Y-70365878D01*
X152103457Y-70365878D01*
X152071943Y-70334365D01*
X152040430Y-70365878D01*
X144477154Y-70365878D01*
X144445641Y-70334365D01*
X144414127Y-70365878D01*
X141843030Y-70365878D01*
X141687408Y-70292346D01*
X142355235Y-70292346D01*
X142363887Y-70329816D01*
X142397254Y-70334365D01*
X142449132Y-70311304D01*
X142444736Y-70302851D01*
X143090554Y-70302851D01*
X143122067Y-70334365D01*
X143153581Y-70302851D01*
X144162018Y-70302851D01*
X144193531Y-70334365D01*
X144225045Y-70302851D01*
X144193531Y-70271337D01*
X144162018Y-70302851D01*
X143153581Y-70302851D01*
X143122067Y-70271337D01*
X143090554Y-70302851D01*
X142444736Y-70302851D01*
X142439272Y-70292346D01*
X142364473Y-70284803D01*
X142355235Y-70292346D01*
X141687408Y-70292346D01*
X141199414Y-70061767D01*
X140967252Y-69924687D01*
X143342663Y-69924687D01*
X143374177Y-69956201D01*
X143405690Y-69924687D01*
X143374177Y-69893173D01*
X143342663Y-69924687D01*
X140967252Y-69924687D01*
X140753763Y-69798633D01*
X141388817Y-69798633D01*
X141420330Y-69830146D01*
X141451844Y-69798633D01*
X141420330Y-69767119D01*
X141388817Y-69798633D01*
X140753763Y-69798633D01*
X140436528Y-69611322D01*
X140349823Y-69546523D01*
X141010653Y-69546523D01*
X141042167Y-69578037D01*
X141073680Y-69546523D01*
X141042167Y-69515010D01*
X141010653Y-69546523D01*
X140349823Y-69546523D01*
X140265489Y-69483496D01*
X143090554Y-69483496D01*
X143122067Y-69515010D01*
X143153581Y-69483496D01*
X143122067Y-69451982D01*
X143090554Y-69483496D01*
X140265489Y-69483496D01*
X140181155Y-69420469D01*
X141010653Y-69420469D01*
X141042167Y-69451982D01*
X141073680Y-69420469D01*
X141042167Y-69388955D01*
X141010653Y-69420469D01*
X140181155Y-69420469D01*
X140096820Y-69357441D01*
X141956062Y-69357441D01*
X141987576Y-69388955D01*
X142019090Y-69357441D01*
X141987576Y-69325928D01*
X141956062Y-69357441D01*
X140096820Y-69357441D01*
X140007508Y-69290694D01*
X142082117Y-69290694D01*
X142102888Y-69381758D01*
X142157463Y-69354460D01*
X142173966Y-69330283D01*
X142166063Y-69249335D01*
X142146172Y-69232022D01*
X142091361Y-69245716D01*
X142082117Y-69290694D01*
X140007508Y-69290694D01*
X139928152Y-69231387D01*
X141262762Y-69231387D01*
X141294276Y-69262901D01*
X141298380Y-69258797D01*
X141404270Y-69258797D01*
X141412891Y-69262901D01*
X141470409Y-69218531D01*
X141483358Y-69199873D01*
X141499418Y-69140950D01*
X141490797Y-69136846D01*
X141433279Y-69181216D01*
X141420330Y-69199873D01*
X141404270Y-69258797D01*
X141298380Y-69258797D01*
X141325790Y-69231387D01*
X141294276Y-69199873D01*
X141262762Y-69231387D01*
X139928152Y-69231387D01*
X139776770Y-69118252D01*
X139770771Y-69113050D01*
X140758544Y-69113050D01*
X140789202Y-69131915D01*
X140872989Y-69050950D01*
X140879950Y-69042305D01*
X141640926Y-69042305D01*
X141672440Y-69073819D01*
X141703953Y-69042305D01*
X141672440Y-69010791D01*
X141640926Y-69042305D01*
X140879950Y-69042305D01*
X140892638Y-69026548D01*
X140947147Y-68951893D01*
X140914509Y-68967543D01*
X140868842Y-69002752D01*
X140781551Y-69080502D01*
X140758544Y-69113050D01*
X139770771Y-69113050D01*
X139687583Y-69040917D01*
X139625459Y-68979278D01*
X140695517Y-68979278D01*
X140727030Y-69010791D01*
X140758544Y-68979278D01*
X140727030Y-68947764D01*
X140695517Y-68979278D01*
X139625459Y-68979278D01*
X139561935Y-68916250D01*
X140380380Y-68916250D01*
X140411894Y-68947764D01*
X140443407Y-68916250D01*
X140411894Y-68884737D01*
X140380380Y-68916250D01*
X139561935Y-68916250D01*
X139434889Y-68790196D01*
X139876162Y-68790196D01*
X139907675Y-68821709D01*
X139939189Y-68790196D01*
X140254326Y-68790196D01*
X140285839Y-68821709D01*
X140317353Y-68790196D01*
X140285839Y-68758682D01*
X140254326Y-68790196D01*
X139939189Y-68790196D01*
X139907675Y-68758682D01*
X139876162Y-68790196D01*
X139434889Y-68790196D01*
X139244319Y-68601114D01*
X140128271Y-68601114D01*
X140159785Y-68632628D01*
X140191298Y-68601114D01*
X140159785Y-68569600D01*
X140128271Y-68601114D01*
X139244319Y-68601114D01*
X139211669Y-68568719D01*
X139125667Y-68461612D01*
X139508158Y-68461612D01*
X139523493Y-68496835D01*
X139586955Y-68564497D01*
X139623439Y-68550617D01*
X139624053Y-68541806D01*
X139579286Y-68488497D01*
X139551287Y-68469041D01*
X139508158Y-68461612D01*
X139125667Y-68461612D01*
X139108174Y-68439826D01*
X139687080Y-68439826D01*
X139732832Y-68504008D01*
X139750107Y-68506573D01*
X139761823Y-68502469D01*
X139954642Y-68502469D01*
X139963263Y-68506573D01*
X140020781Y-68462203D01*
X140033730Y-68443546D01*
X140049791Y-68384622D01*
X140041169Y-68380518D01*
X139983652Y-68424888D01*
X139970703Y-68443546D01*
X139954642Y-68502469D01*
X139761823Y-68502469D01*
X139811496Y-68485069D01*
X139813134Y-68478779D01*
X139768969Y-68424968D01*
X139750107Y-68412032D01*
X139692029Y-68417029D01*
X139687080Y-68439826D01*
X139108174Y-68439826D01*
X139035249Y-68349005D01*
X139561025Y-68349005D01*
X139592539Y-68380518D01*
X139624053Y-68349005D01*
X139592539Y-68317491D01*
X139561025Y-68349005D01*
X139035249Y-68349005D01*
X138934033Y-68222950D01*
X139939189Y-68222950D01*
X139970703Y-68254464D01*
X140002216Y-68222950D01*
X139970703Y-68191437D01*
X139939189Y-68222950D01*
X138934033Y-68222950D01*
X138804286Y-68061363D01*
X138747241Y-67970841D01*
X140065244Y-67970841D01*
X140096757Y-68002355D01*
X140128271Y-67970841D01*
X140096757Y-67939327D01*
X140065244Y-67970841D01*
X138747241Y-67970841D01*
X138667805Y-67844786D01*
X139056807Y-67844786D01*
X139088321Y-67876300D01*
X139119834Y-67844786D01*
X139088321Y-67813273D01*
X139056807Y-67844786D01*
X138667805Y-67844786D01*
X138633383Y-67790163D01*
X139182861Y-67790163D01*
X139213936Y-67882579D01*
X139276206Y-67918575D01*
X139299462Y-67906763D01*
X139295370Y-67876300D01*
X139939189Y-67876300D01*
X139962250Y-67928179D01*
X139981207Y-67918318D01*
X139988750Y-67843520D01*
X139981207Y-67834282D01*
X139943738Y-67842934D01*
X139939189Y-67876300D01*
X139295370Y-67876300D01*
X139290764Y-67842011D01*
X139257444Y-67799617D01*
X139193989Y-67764086D01*
X139182861Y-67790163D01*
X138633383Y-67790163D01*
X138548651Y-67655704D01*
X139056807Y-67655704D01*
X139088321Y-67687218D01*
X139119834Y-67655704D01*
X139088321Y-67624191D01*
X139056807Y-67655704D01*
X138548651Y-67655704D01*
X138471685Y-67533570D01*
X138454977Y-67498136D01*
X139245889Y-67498136D01*
X139268949Y-67550015D01*
X139287907Y-67540154D01*
X139295450Y-67465356D01*
X139287907Y-67456118D01*
X139250437Y-67464770D01*
X139245889Y-67498136D01*
X138454977Y-67498136D01*
X138395539Y-67372082D01*
X139056807Y-67372082D01*
X139079868Y-67423960D01*
X139098825Y-67414100D01*
X139106368Y-67339301D01*
X139098825Y-67330063D01*
X139061355Y-67338715D01*
X139056807Y-67372082D01*
X138395539Y-67372082D01*
X138220119Y-67000058D01*
X138178715Y-66867863D01*
X138804698Y-66867863D01*
X138827758Y-66919742D01*
X138846716Y-66909882D01*
X138854259Y-66835083D01*
X138846716Y-66825845D01*
X138809246Y-66834497D01*
X138804698Y-66867863D01*
X138178715Y-66867863D01*
X138064280Y-66502491D01*
X138555112Y-66502491D01*
X138575655Y-66590160D01*
X138627192Y-66708911D01*
X138685063Y-66809534D01*
X138724611Y-66842815D01*
X138725327Y-66842188D01*
X138716739Y-66775188D01*
X138660383Y-66647916D01*
X138654585Y-66637083D01*
X138588761Y-66528409D01*
X138555848Y-66498956D01*
X138555112Y-66502491D01*
X138064280Y-66502491D01*
X138055841Y-66475546D01*
X137985105Y-65974754D01*
X138014162Y-65512402D01*
X138081701Y-65260667D01*
X138147403Y-65053496D01*
X138151454Y-65008558D01*
X138552589Y-65008558D01*
X138584102Y-65040072D01*
X138615616Y-65008558D01*
X138584102Y-64977044D01*
X138552589Y-65008558D01*
X138151454Y-65008558D01*
X138161593Y-64896091D01*
X138116705Y-64744025D01*
X138005172Y-64552874D01*
X137946036Y-64464142D01*
X137604681Y-64018993D01*
X137246438Y-63663030D01*
X137125019Y-63578039D01*
X137683543Y-63578039D01*
X137750769Y-63689377D01*
X137859288Y-63833331D01*
X137987680Y-63978926D01*
X138067910Y-64024739D01*
X138117494Y-63978576D01*
X138127401Y-63952851D01*
X138136717Y-63807412D01*
X138080189Y-63697192D01*
X137986994Y-63666623D01*
X137854879Y-63643550D01*
X137764180Y-63590440D01*
X137686481Y-63541145D01*
X137683543Y-63578039D01*
X137125019Y-63578039D01*
X136896601Y-63418150D01*
X136691429Y-63282591D01*
X136667846Y-63251581D01*
X137202006Y-63251581D01*
X137223644Y-63270654D01*
X137360532Y-63308627D01*
X137427193Y-63305069D01*
X137519126Y-63305950D01*
X137535399Y-63326445D01*
X137541972Y-63466781D01*
X137606550Y-63512989D01*
X137634085Y-63506393D01*
X137745922Y-63518956D01*
X137796261Y-63558930D01*
X137902327Y-63616402D01*
X137960046Y-63610851D01*
X138015793Y-63553659D01*
X137987498Y-63498500D01*
X137967844Y-63449692D01*
X138011760Y-63449692D01*
X138020184Y-63469773D01*
X138095544Y-63501736D01*
X138115031Y-63493658D01*
X138144613Y-63509909D01*
X138130389Y-63571414D01*
X138110998Y-63647691D01*
X138160949Y-63624998D01*
X138188527Y-63603140D01*
X138281510Y-63554540D01*
X138336120Y-63597122D01*
X138346636Y-63643383D01*
X138309772Y-63627701D01*
X138234115Y-63625721D01*
X138196230Y-63702804D01*
X138206932Y-63814877D01*
X138246158Y-63886968D01*
X138299413Y-63960240D01*
X138266255Y-63953555D01*
X138237452Y-63937094D01*
X138176510Y-63908079D01*
X138202706Y-63954541D01*
X138228837Y-63987329D01*
X138324302Y-64065352D01*
X138378458Y-64044217D01*
X138373446Y-63948618D01*
X138326360Y-63852474D01*
X138292562Y-63794743D01*
X138383184Y-63794743D01*
X138410930Y-63875934D01*
X138422631Y-63898288D01*
X138495987Y-64012717D01*
X138529608Y-64010930D01*
X138525748Y-63924754D01*
X138471245Y-63817834D01*
X138430664Y-63791407D01*
X138383184Y-63794743D01*
X138292562Y-63794743D01*
X138267749Y-63752360D01*
X138265119Y-63727703D01*
X138269866Y-63731709D01*
X138350914Y-63742849D01*
X138426739Y-63677505D01*
X138453694Y-63579249D01*
X138447558Y-63554322D01*
X138363021Y-63477751D01*
X138297456Y-63464389D01*
X138179265Y-63433312D01*
X138142276Y-63400334D01*
X138066098Y-63364386D01*
X138042987Y-63373175D01*
X138011760Y-63449692D01*
X137967844Y-63449692D01*
X137951970Y-63410273D01*
X137963117Y-63381570D01*
X137950043Y-63333170D01*
X137844176Y-63282936D01*
X137678245Y-63240620D01*
X137484977Y-63215974D01*
X137398237Y-63213245D01*
X137239392Y-63223049D01*
X137202006Y-63251581D01*
X136667846Y-63251581D01*
X136578336Y-63133884D01*
X136545465Y-62940416D01*
X136580961Y-62670573D01*
X136593828Y-62610862D01*
X136668858Y-62424681D01*
X137737294Y-62424681D01*
X137782741Y-62582893D01*
X137888665Y-62695120D01*
X137983214Y-62793132D01*
X138001122Y-62864570D01*
X137998962Y-62867368D01*
X137999315Y-62887783D01*
X138033641Y-62871380D01*
X138084913Y-62798182D01*
X138077192Y-62766734D01*
X138086484Y-62711849D01*
X138107678Y-62708062D01*
X138164776Y-62754304D01*
X138166748Y-62849510D01*
X138113884Y-62927121D01*
X138095366Y-62992225D01*
X138151858Y-63078532D01*
X138246471Y-63149203D01*
X138342316Y-63167400D01*
X138351601Y-63164521D01*
X138414800Y-63160676D01*
X138401640Y-63201569D01*
X138390332Y-63267399D01*
X138409402Y-63275307D01*
X138456861Y-63328367D01*
X138472204Y-63400992D01*
X138522792Y-63531825D01*
X138630517Y-63668858D01*
X138699348Y-63739248D01*
X138683926Y-63736027D01*
X138665589Y-63722137D01*
X138559444Y-63670419D01*
X138505031Y-63680020D01*
X138512339Y-63746794D01*
X138580491Y-63816193D01*
X138646232Y-63882321D01*
X138627662Y-63905580D01*
X138568105Y-63952239D01*
X138568345Y-63981500D01*
X138535899Y-64053394D01*
X138508031Y-64060284D01*
X138414379Y-64108059D01*
X138334551Y-64189203D01*
X138264104Y-64276662D01*
X138253551Y-64264377D01*
X138274757Y-64189203D01*
X138293063Y-64106353D01*
X138257378Y-64133127D01*
X138237452Y-64157690D01*
X138183987Y-64215991D01*
X138190396Y-64166192D01*
X138198015Y-64141933D01*
X138202176Y-64050752D01*
X138176166Y-64031635D01*
X138095346Y-64067736D01*
X138112681Y-64167712D01*
X138225068Y-64318025D01*
X138328470Y-64437222D01*
X138378639Y-64510494D01*
X138379263Y-64518582D01*
X138407532Y-64535812D01*
X138410777Y-64535853D01*
X138457320Y-64488178D01*
X138458048Y-64478078D01*
X138497356Y-64382859D01*
X138510570Y-64367781D01*
X138550941Y-64357074D01*
X138550377Y-64378285D01*
X138547525Y-64494372D01*
X138606019Y-64501683D01*
X138647129Y-64472826D01*
X138728376Y-64429070D01*
X138738988Y-64473692D01*
X138725914Y-64501627D01*
X138757188Y-64556587D01*
X138836211Y-64627836D01*
X138910252Y-64692351D01*
X138881556Y-64696567D01*
X138854474Y-64687794D01*
X138776559Y-64684163D01*
X138770126Y-64771049D01*
X138773151Y-64787791D01*
X138780256Y-64880707D01*
X138732880Y-64868895D01*
X138708312Y-64849459D01*
X138645759Y-64764469D01*
X138646037Y-64756449D01*
X138678643Y-64756449D01*
X138710157Y-64787963D01*
X138741670Y-64756449D01*
X138710157Y-64724935D01*
X138678643Y-64756449D01*
X138646037Y-64756449D01*
X138647129Y-64724935D01*
X138631756Y-64649946D01*
X138589537Y-64603391D01*
X138546905Y-64584549D01*
X138641545Y-64584549D01*
X138649821Y-64603236D01*
X138701557Y-64658277D01*
X138720287Y-64593428D01*
X138720661Y-64570140D01*
X138692848Y-64506929D01*
X138667110Y-64511467D01*
X138641545Y-64584549D01*
X138546905Y-64584549D01*
X138504770Y-64565927D01*
X138471233Y-64616592D01*
X138491461Y-64727250D01*
X138565827Y-64866690D01*
X138687146Y-65039959D01*
X138528717Y-65100194D01*
X138401735Y-65209683D01*
X138322575Y-65399446D01*
X138304040Y-65628662D01*
X138323628Y-65753995D01*
X138393743Y-65919150D01*
X138526654Y-66144999D01*
X138699692Y-66399582D01*
X138890185Y-66650935D01*
X139075463Y-66867097D01*
X139199306Y-66988584D01*
X139366480Y-67134620D01*
X139507163Y-67259969D01*
X139560613Y-67309054D01*
X139758774Y-67481160D01*
X140010810Y-67680162D01*
X140266278Y-67867531D01*
X140459164Y-67995417D01*
X140603134Y-68094748D01*
X140686878Y-68175858D01*
X140695517Y-68196577D01*
X140746149Y-68248992D01*
X140783296Y-68254464D01*
X140871146Y-68281537D01*
X141045821Y-68355285D01*
X141282167Y-68464503D01*
X141555030Y-68597983D01*
X141559946Y-68600451D01*
X141847133Y-68739756D01*
X142112294Y-68859516D01*
X142324994Y-68946526D01*
X142450401Y-68986756D01*
X142599633Y-69030108D01*
X142684410Y-69079758D01*
X142685908Y-69081959D01*
X142764487Y-69115756D01*
X142921209Y-69135086D01*
X142990089Y-69136846D01*
X143267215Y-69181458D01*
X143405690Y-69262901D01*
X143554072Y-69367845D01*
X143660421Y-69372395D01*
X143749113Y-69288169D01*
X143802449Y-69238103D01*
X143875651Y-69240136D01*
X143999908Y-69301885D01*
X144127383Y-69380538D01*
X144530304Y-69587571D01*
X145022453Y-69760894D01*
X145568858Y-69888368D01*
X145611646Y-69895843D01*
X145844255Y-69935935D01*
X146041140Y-69970612D01*
X146147378Y-69990058D01*
X146449819Y-70040543D01*
X146838830Y-70093967D01*
X147275145Y-70145868D01*
X147719497Y-70191787D01*
X148132620Y-70227260D01*
X148374233Y-70243062D01*
X148663369Y-70259679D01*
X148901529Y-70275315D01*
X149063426Y-70288177D01*
X149123647Y-70296263D01*
X149192586Y-70303319D01*
X149361464Y-70304976D01*
X149531834Y-70302851D01*
X152355566Y-70302851D01*
X152387080Y-70334365D01*
X152418594Y-70302851D01*
X152387080Y-70271337D01*
X152355566Y-70302851D01*
X149531834Y-70302851D01*
X149604312Y-70301947D01*
X149895163Y-70294945D01*
X150208049Y-70284684D01*
X150517002Y-70271878D01*
X150796053Y-70257239D01*
X150968966Y-70245573D01*
X151236489Y-70223578D01*
X151401883Y-70208310D01*
X153742167Y-70208310D01*
X153765227Y-70260189D01*
X153784185Y-70250328D01*
X153791728Y-70175529D01*
X153784185Y-70166292D01*
X153746715Y-70174943D01*
X153742167Y-70208310D01*
X151401883Y-70208310D01*
X151472393Y-70201801D01*
X151635385Y-70184119D01*
X151662266Y-70180440D01*
X151819194Y-70157280D01*
X152034386Y-70126121D01*
X152134971Y-70111715D01*
X152367717Y-70069587D01*
X152675773Y-70001555D01*
X152991322Y-69924687D01*
X154246385Y-69924687D01*
X154277899Y-69956201D01*
X154309412Y-69924687D01*
X154277899Y-69893173D01*
X154246385Y-69924687D01*
X152991322Y-69924687D01*
X153024434Y-69916621D01*
X153234348Y-69861660D01*
X154120330Y-69861660D01*
X154151844Y-69893173D01*
X154183358Y-69861660D01*
X154151844Y-69830146D01*
X154120330Y-69861660D01*
X153234348Y-69861660D01*
X153378997Y-69823787D01*
X153704758Y-69732053D01*
X153967012Y-69650421D01*
X154097916Y-69602588D01*
X154223758Y-69546523D01*
X154435467Y-69546523D01*
X154466981Y-69578037D01*
X154498494Y-69546523D01*
X154466981Y-69515010D01*
X154435467Y-69546523D01*
X154223758Y-69546523D01*
X154516853Y-69415944D01*
X154880035Y-69228253D01*
X155173251Y-69048658D01*
X155382288Y-68886299D01*
X155492936Y-68750318D01*
X155506931Y-68696225D01*
X155541466Y-68570624D01*
X155600631Y-68463872D01*
X155683571Y-68295086D01*
X155765127Y-68047134D01*
X155833364Y-67766466D01*
X155876348Y-67499528D01*
X155885095Y-67356744D01*
X155855561Y-67158857D01*
X155780315Y-66923389D01*
X155726465Y-66802741D01*
X155647901Y-66657409D01*
X155570236Y-66560125D01*
X155471460Y-66507753D01*
X155329566Y-66497155D01*
X155122545Y-66525196D01*
X154828389Y-66588739D01*
X154601607Y-66642436D01*
X154035070Y-66772432D01*
X153445616Y-66898051D01*
X152877541Y-67010282D01*
X152375138Y-67100113D01*
X152261025Y-67118643D01*
X152008048Y-67158846D01*
X151778650Y-67195636D01*
X151630752Y-67219696D01*
X151269478Y-67267406D01*
X150834091Y-67302166D01*
X150310706Y-67324637D01*
X149685438Y-67335478D01*
X149172688Y-67336479D01*
X148679059Y-67332646D01*
X148283218Y-67323233D01*
X147956950Y-67306252D01*
X147672040Y-67279714D01*
X147400273Y-67241630D01*
X147124301Y-67192121D01*
X146193428Y-66983697D01*
X145192041Y-66708167D01*
X144149151Y-66375788D01*
X143093766Y-65996818D01*
X142054894Y-65581513D01*
X141061545Y-65140131D01*
X140386243Y-64809615D01*
X140097750Y-64664546D01*
X139846901Y-64542968D01*
X139656136Y-64455417D01*
X139547892Y-64412430D01*
X139534779Y-64409799D01*
X139451188Y-64361789D01*
X139383276Y-64278470D01*
X139287482Y-64189188D01*
X139211303Y-64181661D01*
X139140587Y-64188925D01*
X139135857Y-64171178D01*
X139112152Y-64094254D01*
X139034819Y-63971317D01*
X139032805Y-63968608D01*
X138964254Y-63891643D01*
X138947993Y-63906518D01*
X138951758Y-63919319D01*
X138960553Y-64024548D01*
X138941083Y-64056764D01*
X138900096Y-64028649D01*
X138883897Y-63953236D01*
X138846757Y-63761357D01*
X138777220Y-63599446D01*
X138693972Y-63502115D01*
X138634848Y-63491894D01*
X138577477Y-63491054D01*
X138584548Y-63463667D01*
X138572981Y-63407257D01*
X138540551Y-63400397D01*
X138499214Y-63382999D01*
X138552589Y-63338335D01*
X138601198Y-63288083D01*
X138579780Y-63276273D01*
X138509904Y-63224469D01*
X138424924Y-63098241D01*
X138410486Y-63070469D01*
X138340451Y-62952555D01*
X138307336Y-62954727D01*
X138304510Y-62979648D01*
X138276453Y-63058156D01*
X138243369Y-63058369D01*
X138210334Y-62976702D01*
X138218385Y-62900223D01*
X138207039Y-62773036D01*
X138137416Y-62624121D01*
X138037036Y-62493089D01*
X137933418Y-62419548D01*
X137883660Y-62418458D01*
X137806964Y-62416024D01*
X137796261Y-62390947D01*
X137847341Y-62336775D01*
X137890802Y-62329898D01*
X137974677Y-62295865D01*
X137985343Y-62266871D01*
X137947923Y-62207490D01*
X137856971Y-62238456D01*
X137808866Y-62279476D01*
X137737294Y-62424681D01*
X136668858Y-62424681D01*
X136729695Y-62273720D01*
X136962802Y-62004772D01*
X137278285Y-61814567D01*
X137661282Y-61713658D01*
X137877023Y-61699977D01*
X138042803Y-61718991D01*
X138133163Y-61768068D01*
X138137943Y-61778409D01*
X138280103Y-62160942D01*
X138492468Y-62590221D01*
X138751914Y-63028260D01*
X139035317Y-63437074D01*
X139319550Y-63778679D01*
X139413968Y-63874394D01*
X139598267Y-64018689D01*
X139882131Y-64199131D01*
X140247535Y-64406450D01*
X140676453Y-64631381D01*
X141150861Y-64864654D01*
X141652734Y-65097003D01*
X142164045Y-65319159D01*
X142460281Y-65440670D01*
X143606852Y-65881290D01*
X144666930Y-66248953D01*
X145654142Y-66547287D01*
X146582118Y-66779920D01*
X147464486Y-66950481D01*
X148314875Y-67062597D01*
X148668469Y-67093328D01*
X149232449Y-67110076D01*
X149899599Y-67087010D01*
X150654152Y-67026075D01*
X151480343Y-66929214D01*
X152362404Y-66798372D01*
X153284569Y-66635491D01*
X154231071Y-66442517D01*
X154583879Y-66363972D01*
X154944882Y-66284893D01*
X155267348Y-66220184D01*
X155529638Y-66173716D01*
X155710113Y-66149357D01*
X155784197Y-66149331D01*
X155884033Y-66236588D01*
X155916944Y-66301675D01*
X155974304Y-66424334D01*
X156073861Y-66592584D01*
X156113023Y-66652076D01*
X156209612Y-66816886D01*
X156246430Y-66967401D01*
X156236973Y-67166751D01*
X156231950Y-67208331D01*
X156094754Y-67918245D01*
X155869897Y-68545151D01*
X155551713Y-69101782D01*
X155195171Y-69538157D01*
X154651814Y-70035025D01*
X154027853Y-70460613D01*
X153319175Y-70816157D01*
X152521669Y-71102886D01*
X151631223Y-71322035D01*
X150643726Y-71474836D01*
X149555067Y-71562520D01*
X148362236Y-71586327D01*
X147948628Y-71583003D01*
X147572142Y-71578503D01*
X147252936Y-71573187D01*
X147011164Y-71567415D01*
X146866984Y-71561546D01*
X146840678Y-71559183D01*
X146728319Y-71545217D01*
X146522305Y-71521857D01*
X146254369Y-71492640D01*
X146021323Y-71467902D01*
X144973986Y-71319173D01*
X144646115Y-71248260D01*
X149519338Y-71248260D01*
X149550852Y-71279774D01*
X149582365Y-71248260D01*
X149550852Y-71216747D01*
X149519338Y-71248260D01*
X144646115Y-71248260D01*
X143952714Y-71098289D01*
X143783411Y-71048674D01*
G37*
G36*
X143153581Y-67781759D02*
G01*
X143122067Y-67813273D01*
X143090554Y-67781759D01*
X143122067Y-67750245D01*
X143153581Y-67781759D01*
G37*
G36*
X146052837Y-68853223D02*
G01*
X146021323Y-68884737D01*
X145989809Y-68853223D01*
X146021323Y-68821709D01*
X146052837Y-68853223D01*
G37*
G36*
X151951963Y-72092435D02*
G01*
X151974510Y-72234964D01*
X151977402Y-72319724D01*
X151983933Y-72494742D01*
X152016035Y-72577664D01*
X152092471Y-72602264D01*
X152134971Y-72603347D01*
X152253419Y-72624922D01*
X152292539Y-72666374D01*
X152239610Y-72708445D01*
X152118148Y-72727970D01*
X151984142Y-72722004D01*
X151893583Y-72687599D01*
X151893366Y-72687384D01*
X151864181Y-72601090D01*
X151852065Y-72448487D01*
X151855574Y-72274387D01*
X151873262Y-72123600D01*
X151903683Y-72040937D01*
X151914375Y-72036102D01*
X151951963Y-72092435D01*
G37*
G36*
X153364003Y-68664141D02*
G01*
X153332489Y-68695655D01*
X153300976Y-68664141D01*
X153332489Y-68632628D01*
X153364003Y-68664141D01*
G37*
G36*
X137857369Y-63447231D02*
G01*
X137881038Y-63493185D01*
X137897165Y-63581994D01*
X137854826Y-63564757D01*
X137825183Y-63523223D01*
X137805809Y-63440732D01*
X137813677Y-63425964D01*
X137857369Y-63447231D01*
G37*
G36*
X141545109Y-72155574D02*
G01*
X141614698Y-72072668D01*
X141636025Y-72064586D01*
X141682174Y-72143350D01*
X141726083Y-72293993D01*
X141732018Y-72323504D01*
X141769719Y-72505662D01*
X141804726Y-72646462D01*
X141807335Y-72655093D01*
X141822906Y-72723475D01*
X141785586Y-72693623D01*
X141749421Y-72650618D01*
X141622481Y-72557778D01*
X141494978Y-72552549D01*
X141411609Y-72634861D01*
X141353757Y-72709633D01*
X141287164Y-72731890D01*
X141262762Y-72695793D01*
X141291117Y-72601878D01*
X141361903Y-72456394D01*
X141419799Y-72354958D01*
X141514871Y-72354958D01*
X141562945Y-72412568D01*
X141577899Y-72414265D01*
X141633212Y-72362963D01*
X141640926Y-72316005D01*
X141610371Y-72250768D01*
X141577899Y-72256697D01*
X141517276Y-72337275D01*
X141514871Y-72354958D01*
X141419799Y-72354958D01*
X141453705Y-72295554D01*
X141545109Y-72155574D01*
G37*
G36*
X142931709Y-72155574D02*
G01*
X143001298Y-72072668D01*
X143022625Y-72064586D01*
X143068775Y-72143350D01*
X143112683Y-72293993D01*
X143118618Y-72323504D01*
X143156319Y-72505662D01*
X143191326Y-72646462D01*
X143193936Y-72655093D01*
X143209507Y-72723475D01*
X143172186Y-72693623D01*
X143136021Y-72650618D01*
X143009082Y-72557778D01*
X142881578Y-72552549D01*
X142798210Y-72634861D01*
X142740358Y-72709633D01*
X142673765Y-72731890D01*
X142649363Y-72695793D01*
X142677717Y-72601878D01*
X142748503Y-72456394D01*
X142806400Y-72354958D01*
X142901472Y-72354958D01*
X142949546Y-72412568D01*
X142964499Y-72414265D01*
X143019813Y-72362963D01*
X143027527Y-72316005D01*
X142996971Y-72250768D01*
X142964499Y-72256697D01*
X142903876Y-72337275D01*
X142901472Y-72354958D01*
X142806400Y-72354958D01*
X142840306Y-72295554D01*
X142931709Y-72155574D01*
G37*
G36*
X147023045Y-69195297D02*
G01*
X147028679Y-69283075D01*
X147006320Y-69383848D01*
X146978521Y-69429689D01*
X146944747Y-69413520D01*
X146935219Y-69340152D01*
X146957212Y-69218448D01*
X146987498Y-69175002D01*
X147023045Y-69195297D01*
G37*
G36*
X143027527Y-67781759D02*
G01*
X142996013Y-67813273D01*
X142964499Y-67781759D01*
X142996013Y-67750245D01*
X143027527Y-67781759D01*
G37*
G36*
X148006683Y-69231387D02*
G01*
X147975169Y-69262901D01*
X147943656Y-69231387D01*
X147975169Y-69199873D01*
X148006683Y-69231387D01*
G37*
G36*
X143264826Y-67839845D02*
G01*
X143377702Y-67875459D01*
X143550859Y-67904145D01*
X143579963Y-67907174D01*
X143784971Y-67949013D01*
X144019372Y-68027548D01*
X144098991Y-68061846D01*
X144231947Y-68130316D01*
X144275604Y-68167190D01*
X144243824Y-68168023D01*
X144127558Y-68167026D01*
X144086256Y-68192960D01*
X144023520Y-68197389D01*
X143877778Y-68159068D01*
X143691162Y-68090426D01*
X143485094Y-67999673D01*
X143323906Y-67916684D01*
X143249971Y-67865751D01*
X143220632Y-67820917D01*
X143264826Y-67839845D01*
G37*
X178468000Y-102502500D02*
X196468000Y-102502500D01*
X196468000Y-102502500D02*
X196468000Y-114502500D01*
X196468000Y-114502500D02*
X178468000Y-114502500D01*
X196198000Y-112455000D02*
X196198000Y-113785000D01*
X196198000Y-113785000D02*
X194868000Y-113785000D01*
X178468000Y-114502500D02*
X178468000Y-102502500D01*
X140447000Y-73756000D02*
X144287000Y-73756000D01*
X140447000Y-75596000D02*
X144287000Y-75596000D01*
X158342000Y-113506000D02*
X158342000Y-106966000D01*
X156972000Y-106196000D02*
X156972000Y-106966000D01*
X155602000Y-106966000D02*
X155602000Y-113506000D01*
X156972000Y-114276000D02*
X156972000Y-113506000D01*
X158342000Y-106966000D02*
X155602000Y-106966000D01*
X155602000Y-113506000D02*
X158342000Y-113506000D01*
X185139000Y-92615000D02*
X182399000Y-92615000D01*
X183769000Y-99925000D02*
X183769000Y-99155000D01*
X182399000Y-99155000D02*
X185139000Y-99155000D01*
X182399000Y-92615000D02*
X182399000Y-99155000D01*
X185139000Y-99155000D02*
X185139000Y-92615000D01*
X183769000Y-91845000D02*
X183769000Y-92615000D01*
X134580000Y-102756000D02*
X154980000Y-102756000D01*
X134580000Y-116956000D02*
X154980000Y-116956000D01*
X154980000Y-102756000D02*
X154980000Y-116956000D01*
X134580000Y-102756000D02*
X134580000Y-116956000D01*
X170954000Y-91000000D02*
X170954000Y-95690000D01*
X171154000Y-91311000D02*
X171154000Y-95379000D01*
X171274000Y-91532000D02*
X171274000Y-95158000D01*
X170514000Y-90478000D02*
X170514000Y-96212000D01*
X170634000Y-90604000D02*
X170634000Y-96086000D01*
X170554000Y-90519000D02*
X170554000Y-96171000D01*
X170874000Y-90891000D02*
X170874000Y-95799000D01*
X168073000Y-89293000D02*
X168073000Y-97397000D01*
X168193000Y-89308000D02*
X168193000Y-97382000D01*
X167633000Y-89265000D02*
X167633000Y-97425000D01*
X169674000Y-89828000D02*
X169674000Y-92305000D01*
X167593000Y-89265000D02*
X167593000Y-97425000D01*
X170034000Y-94385000D02*
X170034000Y-96625000D01*
X170794000Y-90789000D02*
X170794000Y-95901000D01*
X171554000Y-92247000D02*
X171554000Y-94443000D01*
X171674000Y-92812000D02*
X171674000Y-93878000D01*
X171074000Y-91179000D02*
X171074000Y-95511000D01*
X169154000Y-89571000D02*
X169154000Y-92305000D01*
X170114000Y-90125000D02*
X170114000Y-92305000D01*
X169714000Y-89852000D02*
X169714000Y-92305000D01*
X169514000Y-89739000D02*
X169514000Y-92305000D01*
X170714000Y-90694000D02*
X170714000Y-95996000D01*
X168634000Y-89398000D02*
X168634000Y-92305000D01*
X168474000Y-94385000D02*
X168474000Y-97330000D01*
X170274000Y-94385000D02*
X170274000Y-96435000D01*
X170914000Y-90945000D02*
X170914000Y-95745000D01*
X170074000Y-94385000D02*
X170074000Y-96595000D01*
X169834000Y-94385000D02*
X169834000Y-96763000D01*
X168354000Y-94385000D02*
X168354000Y-97355000D01*
X169194000Y-89588000D02*
X169194000Y-92305000D01*
X171634000Y-92577000D02*
X171634000Y-94113000D01*
X168714000Y-89420000D02*
X168714000Y-92305000D01*
X168834000Y-94385000D02*
X168834000Y-97234000D01*
X169234000Y-89605000D02*
X169234000Y-92305000D01*
X168794000Y-94385000D02*
X168794000Y-97247000D01*
X171354000Y-91700000D02*
X171354000Y-94990000D01*
X163183302Y-91030000D02*
X163983302Y-91030000D01*
X167833000Y-89271000D02*
X167833000Y-97419000D01*
X168314000Y-89328000D02*
X168314000Y-92305000D01*
X167673000Y-89265000D02*
X167673000Y-97425000D01*
X167753000Y-89268000D02*
X167753000Y-97422000D01*
X168273000Y-89321000D02*
X168273000Y-97369000D01*
X169874000Y-94385000D02*
X169874000Y-96737000D01*
X169914000Y-94385000D02*
X169914000Y-96710000D01*
X168914000Y-94385000D02*
X168914000Y-97208000D01*
X170434000Y-90400000D02*
X170434000Y-96290000D01*
X169354000Y-89659000D02*
X169354000Y-92305000D01*
X168794000Y-89443000D02*
X168794000Y-92305000D01*
X170314000Y-90290000D02*
X170314000Y-92305000D01*
X168754000Y-89431000D02*
X168754000Y-92305000D01*
X170314000Y-94385000D02*
X170314000Y-96400000D01*
X170834000Y-90840000D02*
X170834000Y-95850000D01*
X168674000Y-89409000D02*
X168674000Y-92305000D01*
X171114000Y-91243000D02*
X171114000Y-95447000D01*
X168514000Y-89369000D02*
X168514000Y-92305000D01*
X163583302Y-90630000D02*
X163583302Y-91430000D01*
X169274000Y-89623000D02*
X169274000Y-92305000D01*
X170754000Y-90741000D02*
X170754000Y-95949000D01*
X167993000Y-89284000D02*
X167993000Y-97406000D01*
X168394000Y-94385000D02*
X168394000Y-97347000D01*
X170994000Y-91058000D02*
X170994000Y-95632000D01*
X169834000Y-89927000D02*
X169834000Y-92305000D01*
X169074000Y-94385000D02*
X169074000Y-97150000D01*
X168354000Y-89335000D02*
X168354000Y-92305000D01*
X169754000Y-89876000D02*
X169754000Y-92305000D01*
X168994000Y-94385000D02*
X168994000Y-97180000D01*
X170274000Y-90255000D02*
X170274000Y-92305000D01*
X168754000Y-94385000D02*
X168754000Y-97259000D01*
X167713000Y-89266000D02*
X167713000Y-97424000D01*
X169314000Y-94385000D02*
X169314000Y-97049000D01*
X169114000Y-89555000D02*
X169114000Y-92305000D01*
X169594000Y-89783000D02*
X169594000Y-92305000D01*
X169994000Y-94385000D02*
X169994000Y-96654000D01*
X170234000Y-90221000D02*
X170234000Y-92305000D01*
X170114000Y-94385000D02*
X170114000Y-96565000D01*
X167793000Y-89269000D02*
X167793000Y-97421000D01*
X169474000Y-94385000D02*
X169474000Y-96972000D01*
X168394000Y-89343000D02*
X168394000Y-92305000D01*
X169354000Y-94385000D02*
X169354000Y-97031000D01*
X170154000Y-94385000D02*
X170154000Y-96534000D01*
X169994000Y-90036000D02*
X169994000Y-92305000D01*
X170354000Y-94385000D02*
X170354000Y-96364000D01*
X168233000Y-89315000D02*
X168233000Y-97375000D01*
X169034000Y-94385000D02*
X169034000Y-97166000D01*
X170194000Y-90189000D02*
X170194000Y-92305000D01*
X168914000Y-89482000D02*
X168914000Y-92305000D01*
X169034000Y-89524000D02*
X169034000Y-92305000D01*
X168874000Y-89468000D02*
X168874000Y-92305000D01*
X168113000Y-89297000D02*
X168113000Y-97393000D01*
X170234000Y-94385000D02*
X170234000Y-96469000D01*
X168434000Y-89351000D02*
X168434000Y-92305000D01*
X170074000Y-90095000D02*
X170074000Y-92305000D01*
X170474000Y-90438000D02*
X170474000Y-96252000D01*
X170354000Y-90326000D02*
X170354000Y-92305000D01*
X167953000Y-89280000D02*
X167953000Y-97410000D01*
X168674000Y-94385000D02*
X168674000Y-97281000D01*
X167913000Y-89277000D02*
X167913000Y-97413000D01*
X167873000Y-89274000D02*
X167873000Y-97416000D01*
X168834000Y-89456000D02*
X168834000Y-92305000D01*
X168594000Y-89388000D02*
X168594000Y-92305000D01*
X169074000Y-89540000D02*
X169074000Y-92305000D01*
X169154000Y-94385000D02*
X169154000Y-97119000D01*
X169434000Y-89698000D02*
X169434000Y-92305000D01*
X171514000Y-92116000D02*
X171514000Y-94574000D01*
X169794000Y-89901000D02*
X169794000Y-92305000D01*
X170674000Y-90648000D02*
X170674000Y-96042000D01*
X170154000Y-90156000D02*
X170154000Y-92305000D01*
X168714000Y-94385000D02*
X168714000Y-97270000D01*
X169674000Y-94385000D02*
X169674000Y-96862000D01*
X169514000Y-94385000D02*
X169514000Y-96951000D01*
X171594000Y-92397000D02*
X171594000Y-94293000D01*
X168153000Y-89303000D02*
X168153000Y-97387000D01*
X169554000Y-89761000D02*
X169554000Y-92305000D01*
X169114000Y-94385000D02*
X169114000Y-97135000D01*
X168954000Y-89495000D02*
X168954000Y-92305000D01*
X169394000Y-94385000D02*
X169394000Y-97011000D01*
X168634000Y-94385000D02*
X168634000Y-97292000D01*
X169874000Y-89953000D02*
X169874000Y-92305000D01*
X171234000Y-91455000D02*
X171234000Y-95235000D01*
X168314000Y-94385000D02*
X168314000Y-97362000D01*
X168033000Y-89288000D02*
X168033000Y-97402000D01*
X171034000Y-91117000D02*
X171034000Y-95573000D01*
X169754000Y-94385000D02*
X169754000Y-96814000D01*
X168594000Y-94385000D02*
X168594000Y-97302000D01*
X168514000Y-94385000D02*
X168514000Y-97321000D01*
X169314000Y-89641000D02*
X169314000Y-92305000D01*
X169474000Y-89718000D02*
X169474000Y-92305000D01*
X170594000Y-90561000D02*
X170594000Y-96129000D01*
X171394000Y-91793000D02*
X171394000Y-94897000D01*
X170394000Y-90362000D02*
X170394000Y-96328000D01*
X171434000Y-91892000D02*
X171434000Y-94798000D01*
X169394000Y-89679000D02*
X169394000Y-92305000D01*
X168954000Y-94385000D02*
X168954000Y-97195000D01*
X169634000Y-94385000D02*
X169634000Y-96885000D01*
X169954000Y-90007000D02*
X169954000Y-92305000D01*
X169954000Y-94385000D02*
X169954000Y-96683000D01*
X168554000Y-89378000D02*
X168554000Y-92305000D01*
X169714000Y-94385000D02*
X169714000Y-96838000D01*
X168554000Y-94385000D02*
X168554000Y-97312000D01*
X169914000Y-89980000D02*
X169914000Y-92305000D01*
X169274000Y-94385000D02*
X169274000Y-97067000D01*
X169794000Y-94385000D02*
X169794000Y-96789000D01*
X171194000Y-91381000D02*
X171194000Y-95309000D01*
X169554000Y-94385000D02*
X169554000Y-96929000D01*
X169634000Y-89805000D02*
X169634000Y-92305000D01*
X168994000Y-89510000D02*
X168994000Y-92305000D01*
X168874000Y-94385000D02*
X168874000Y-97222000D01*
X171314000Y-91614000D02*
X171314000Y-95076000D01*
X171474000Y-91999000D02*
X171474000Y-94691000D01*
X168434000Y-94385000D02*
X168434000Y-97339000D01*
X169594000Y-94385000D02*
X169594000Y-96907000D01*
X170194000Y-94385000D02*
X170194000Y-96501000D01*
X170034000Y-90065000D02*
X170034000Y-92305000D01*
X168474000Y-89360000D02*
X168474000Y-92305000D01*
X169234000Y-94385000D02*
X169234000Y-97085000D01*
X169194000Y-94385000D02*
X169194000Y-97102000D01*
X169434000Y-94385000D02*
X169434000Y-96992000D01*
X171713000Y-93345000D02*
G75*
G03*
X171713000Y-93345000I-4120000J0D01*
G01*
X145114000Y-77624000D02*
X145114000Y-80364000D01*
X139874000Y-80364000D02*
X145114000Y-80364000D01*
X139874000Y-77624000D02*
X145114000Y-77624000D01*
X139874000Y-77624000D02*
X139874000Y-80364000D01*
X176757000Y-86186000D02*
X176757000Y-80946000D01*
X174017000Y-80946000D02*
X176757000Y-80946000D01*
X174017000Y-86186000D02*
X174017000Y-80946000D01*
X174017000Y-86186000D02*
X176757000Y-86186000D01*
M02*
