G04 #@! TF.GenerationSoftware,KiCad,Pcbnew,(6.0.10)*
G04 #@! TF.CreationDate,2023-07-12T01:57:19+10:00*
G04 #@! TF.ProjectId,DAC,4441432e-6b69-4636-9164-5f7063625858,rev?*
G04 #@! TF.SameCoordinates,Original*
G04 #@! TF.FileFunction,Soldermask,Top*
G04 #@! TF.FilePolarity,Negative*
%FSLAX46Y46*%
G04 Gerber Fmt 4.6, Leading zero omitted, Abs format (unit mm)*
G04 Created by KiCad (PCBNEW (6.0.10)) date 2023-07-12 01:57:19*
%MOMM*%
%LPD*%
G01*
G04 APERTURE LIST*
%ADD10C,1.600000*%
%ADD11R,1.651000X0.431800*%
%ADD12O,1.600000X1.600000*%
%ADD13R,1.600000X1.600000*%
%ADD14C,1.270000*%
%ADD15C,1.500000*%
%ADD16C,1.400000*%
%ADD17O,1.400000X1.400000*%
%ADD18R,1.700000X1.700000*%
%ADD19O,1.700000X1.700000*%
G04 APERTURE END LIST*
D10*
X177419000Y-70465000D03*
X177419000Y-67965000D03*
D11*
X162737800Y-73880000D03*
X162737800Y-74530001D03*
X162737800Y-75180000D03*
X162737800Y-75830001D03*
X162737800Y-76479999D03*
X162737800Y-77130001D03*
X162737800Y-77779999D03*
X162737800Y-78429998D03*
X162737800Y-79079999D03*
X162737800Y-79729998D03*
X162737800Y-80379999D03*
X162737800Y-81029998D03*
X162737800Y-81679999D03*
X162737800Y-82329998D03*
X170002200Y-82330000D03*
X170002200Y-81679999D03*
X170002200Y-81030000D03*
X170002200Y-80379999D03*
X170002200Y-79730001D03*
X170002200Y-79079999D03*
X170002200Y-78430001D03*
X170002200Y-77779999D03*
X170002200Y-77130001D03*
X170002200Y-76479999D03*
X170002200Y-75830001D03*
X170002200Y-75180000D03*
X170002200Y-74530001D03*
X170002200Y-73880000D03*
D10*
X145796000Y-89281000D03*
D12*
X145796000Y-99441000D03*
D10*
X138410000Y-96901000D03*
X135910000Y-96901000D03*
X188087000Y-90805000D03*
D12*
X188087000Y-100965000D03*
D10*
X148971000Y-89281000D03*
D12*
X148971000Y-99441000D03*
D13*
X182019000Y-83312000D03*
D10*
X185519000Y-83312000D03*
X171831000Y-105156000D03*
D12*
X171831000Y-115316000D03*
D10*
X158496000Y-95885000D03*
X158496000Y-93385000D03*
D14*
X193294000Y-85391500D03*
X193294000Y-83391500D03*
X182626000Y-69977000D03*
X184626000Y-69977000D03*
D10*
X171450000Y-69342000D03*
D12*
X161290000Y-69342000D03*
D10*
X174879000Y-63246000D03*
X177379000Y-63246000D03*
X182646000Y-75819000D03*
X185146000Y-75819000D03*
D15*
X163920000Y-63246000D03*
X168800000Y-63246000D03*
D10*
X167640000Y-85725000D03*
X165140000Y-85725000D03*
X168402000Y-105156000D03*
D12*
X168402000Y-115316000D03*
D16*
X144907000Y-83185000D03*
D17*
X139827000Y-83185000D03*
D10*
X160401000Y-115316000D03*
D12*
X160401000Y-105156000D03*
D14*
X176276000Y-94234000D03*
X176276000Y-92234000D03*
D10*
X155321000Y-63246000D03*
X157821000Y-63246000D03*
D18*
X194868000Y-112512500D03*
D19*
X194868000Y-109972500D03*
X194868000Y-107432500D03*
X194868000Y-104892500D03*
D16*
X139827000Y-74676000D03*
D17*
X144907000Y-74676000D03*
D10*
X156972000Y-115316000D03*
D12*
X156972000Y-105156000D03*
D10*
X183769000Y-90805000D03*
D12*
X183769000Y-100965000D03*
D18*
X153690000Y-105156000D03*
D19*
X151150000Y-105156000D03*
X148610000Y-105156000D03*
X146070000Y-105156000D03*
X143530000Y-105156000D03*
X140990000Y-105156000D03*
X138450000Y-105156000D03*
X135910000Y-105156000D03*
D13*
X165843000Y-93345000D03*
D10*
X169343000Y-93345000D03*
X141244000Y-78994000D03*
X143744000Y-78994000D03*
X175387000Y-84816000D03*
X175387000Y-82316000D03*
M02*
